<svg width="947" height="533" viewBox="0 0 947 533" fill="none" xmlns="http://www.w3.org/2000/svg">
<path d="M434.402 19.7955C321.936 37.2553 64.9968 88.6242 7.68631 194.83C-2.48618 213.691 -9.52079 272.667 51.4261 367.917C74.0015 403.209 62.182 415.303 78.811 431.472C131.805 482.984 215.855 504.214 274.329 514.864C388.746 535.708 636.185 554.936 710.314 469.966C734.905 441.779 739.196 403.539 801.242 352.632C822.887 334.871 826.511 336.129 847.6 319.492C873.398 299.146 951.142 237.855 945.869 172.281C938.878 85.3833 789.323 30.957 771.639 24.7283C661.036 -14.2468 556.442 0.841305 434.393 19.7884L434.402 19.7955Z" fill="#602940"/>
</svg>
