<svg width="779" height="443" viewBox="0 0 779 443" fill="none" xmlns="http://www.w3.org/2000/svg">
<path d="M353.244 20.1338C260.823 36.9055 49.9237 84.6937 4.87647 173.522C-3.11913 189.297 -7.68161 238.102 44.6057 315.403C63.9737 344.044 54.4769 354.271 68.5365 367.261C113.342 408.644 183.132 424.39 231.599 431.946C326.434 446.735 530.982 457.391 590.352 385.728C610.047 361.956 612.782 330.317 662.9 287.012C680.384 271.902 683.401 272.864 700.449 258.695C721.305 241.366 784.156 189.163 778.425 135.173C770.828 63.6278 646.296 21.8725 631.576 17.1058C539.505 -12.7218 453.531 1.92759 353.236 20.1281L353.244 20.1338Z" fill="#602940"/>
</svg>
