<svg width="81" height="128" viewBox="0 0 81 128" fill="none" xmlns="http://www.w3.org/2000/svg">
<g clip-path="url(#clip0_204_2)">
<path d="M75.8396 76.2666H50.207C50.2095 76.1685 50.2144 76.0705 50.2144 75.9724V8.06741C50.2144 3.61085 46.5982 0 42.135 0H40.2938C35.8306 0 32.2144 3.61085 32.2144 8.06741V75.97C32.2144 76.068 32.2193 76.1661 32.2218 76.2641H5.16285C2.3126 76.2641 0 78.5709 0 81.4193V85.9274C0 88.7734 2.31015 91.0826 5.16285 91.0826H75.8396C78.6899 91.0826 81.0025 88.7759 81.0025 85.9274V81.4193C81.0025 78.5733 78.6923 76.2641 75.8396 76.2641V76.2666Z" fill="#EFA9A9"/>
<path d="M13.7262 97.6398C13.7262 94.9565 11.5483 92.7812 8.86164 92.7812C6.17501 92.7812 3.99707 94.9565 3.99707 97.6398V123.141C3.99707 125.825 6.17501 128 8.86164 128C11.5483 128 13.7262 125.825 13.7262 123.141V97.6398Z" fill="#EFA9A9"/>
<path d="M27.3483 97.6398C27.3483 94.9565 25.1703 92.7812 22.4837 92.7812C19.7971 92.7812 17.6191 94.9565 17.6191 97.6398V123.141C17.6191 125.825 19.7971 128 22.4837 128C25.1703 128 27.3483 125.825 27.3483 123.141V97.6398Z" fill="#EFA9A9"/>
<path d="M35.6363 92.7812C32.9505 92.7812 30.7705 94.9556 30.7705 97.6398V123.144C30.7705 125.826 32.9481 128.002 35.6363 128.002C38.3245 128.002 40.5021 125.828 40.5021 123.144V97.6398C40.5021 94.9581 38.3245 92.7812 35.6363 92.7812Z" fill="#EFA9A9"/>
<path d="M53.1481 97.6398C53.1481 94.9565 50.9701 92.7812 48.2835 92.7812C45.5969 92.7812 43.4189 94.9565 43.4189 97.6398V123.141C43.4189 125.825 45.5969 128 48.2835 128C50.9701 128 53.1481 125.825 53.1481 123.141V97.6398Z" fill="#EFA9A9"/>
<path d="M77.7174 97.6398C77.7174 94.9565 75.5395 92.7812 72.8528 92.7812C70.1662 92.7812 67.9883 94.9565 67.9883 97.6398V123.141C67.9883 125.825 70.1662 128 72.8528 128C75.5395 128 77.7174 125.825 77.7174 123.141V97.6398Z" fill="#EFA9A9"/>
<path d="M65.4332 97.6398C65.4332 94.9565 63.2553 92.7812 60.5687 92.7812C57.882 92.7812 55.7041 94.9565 55.7041 97.6398V123.141C55.7041 125.825 57.882 128 60.5687 128C63.2553 128 65.4332 125.825 65.4332 123.141V97.6398Z" fill="#EFA9A9"/>
</g>
<defs>
<clipPath id="clip0_204_2">
<rect width="81" height="128" fill="white"/>
</clipPath>
</defs>
</svg>
