<svg width="1053" height="639" viewBox="0 0 1053 639" fill="none" xmlns="http://www.w3.org/2000/svg">
<g clip-path="url(#clip0_173_2)">
<path d="M692.286 512.955V560.689C714.408 562.971 731.612 579.935 731.612 600.538V611.04C731.612 624.333 719.676 635.106 704.971 635.106H638.446V634.994C614.462 633.909 595.38 616.067 595.38 594.139V512.939H692.302L692.286 512.955Z" fill="#E7E7E7"/>
<path d="M90.0956 358.887C40.3376 358.887 0.000793457 320.975 0.000793457 274.208C0.000793457 227.441 40.3376 189.529 90.0956 189.529C139.854 189.529 180.19 227.441 180.19 274.208C180.19 320.975 139.854 358.887 90.0956 358.887Z" fill="#DCDCDC"/>
<path d="M1050.91 279.14C1045.73 260.212 1031.23 245.115 1015.11 233.976C998.984 222.836 980.92 214.857 964.178 204.675C910.13 171.783 872.762 117.889 837.017 65.5757C826.29 49.872 815.563 34.1683 804.837 18.4646C799.314 14.2674 793.792 10.0702 788.269 5.87293L754.418 0C741.113 0.510689 729.002 9.09665 721.76 20.2999C714.535 31.5031 711.638 45.0205 710.795 58.3463C708.36 96.9193 721.888 134.519 735.224 170.794C751.903 216.165 768.71 261.824 793.203 303.493C810.168 332.363 831.415 359.717 860.062 376.969C911.594 407.993 983.928 398.465 1025.72 355.153C1045.11 335.076 1058.28 306.094 1050.9 279.14H1050.91Z" fill="#DCDCDC"/>
<path d="M773.739 89.275C811.919 148.371 863.93 198.419 924.391 234.247C934.497 240.232 945.001 245.961 953.054 254.531C961.107 263.101 966.406 275.262 963.573 286.688C961.17 296.375 953.436 303.876 945.048 309.254C920.078 325.245 887.309 326.299 859.585 315.829C831.861 305.36 808.943 284.39 792.057 259.989C775.172 235.571 763.888 207.723 754.387 179.587C749.103 163.915 744.265 147.717 744.822 131.199C745.363 114.666 752.159 97.5417 765.861 88.3493C768.09 86.8492 770.747 85.5405 773.341 86.1789C775.936 86.8173 777.782 90.3442 775.952 92.3072" fill="#E4B3B3"/>
<path d="M169.368 54.1013L754.896 54.1013C774.26 54.1013 789.957 69.842 789.957 89.2591V500.013C789.957 519.43 774.26 535.171 754.896 535.171H169.368C150.004 535.171 134.307 519.43 134.307 500.013V89.2591C134.307 69.842 150.004 54.1013 169.368 54.1013Z" fill="#B196C7"/>
<path d="M789.957 444.14L134.307 444.14V510.61C134.307 524.159 145.288 535.171 158.8 535.171L765.464 535.171C778.976 535.171 789.957 524.159 789.957 510.61V444.14Z" fill="#815E9D"/>
<path d="M577.38 119.294L697.029 119.294C713.097 119.294 726.122 132.355 726.122 148.467V376.601C726.122 392.713 713.097 405.774 697.029 405.774H577.38C561.313 405.774 548.288 392.713 548.288 376.601V148.467C548.288 132.355 561.313 119.294 577.38 119.294Z" fill="#815E9D"/>
<path d="M695.613 638.825C678.763 638.825 665.104 622.134 665.104 601.544C665.104 580.955 678.763 564.264 695.613 564.264C712.463 564.264 726.122 580.955 726.122 601.544C726.122 622.134 712.463 638.825 695.613 638.825Z" fill="#E7E7E7"/>
<path d="M142.121 460.115C150.81 393.23 175.892 330.926 211.956 286.64L205.144 292.034C222.953 257.977 247.558 231.31 275.281 216.005C287.138 209.462 300.284 204.961 312.507 209.957C323.424 214.425 332.305 226.027 339.053 239.114C355.859 271.734 361.222 314.648 357.26 354.785C353.313 394.922 340.692 432.505 324.57 465.812C311.902 491.985 297.069 515.796 281.791 539C294.507 537.867 307.223 537.755 319.939 539.383C326.798 540.261 333.769 541.697 340.056 546.645C346.358 551.592 351.976 560.577 353.949 572.371C356.91 589.957 350.862 609.3 342.22 619.194C334.231 628.339 324.538 631.052 315.021 632.121C279.403 642.255 242.051 639.494 207.356 624.142C200.672 621.189 194.019 617.678 187.972 612.715C170.179 605.294 155.076 584.483 147.325 559.875C137.601 529.01 137.792 493.437 142.105 460.147L142.121 460.115Z" fill="#E7E7E7"/>
<path d="M334.215 639C305.332 639 281.918 615.521 281.918 586.558C281.918 557.596 305.332 534.117 334.215 534.117C363.098 534.117 386.512 557.596 386.512 586.558C386.512 615.521 363.098 639 334.215 639Z" fill="#E7E7E7"/>
<path d="M205.012 555.675C153.152 539.408 135.809 447.05 166.274 349.386C196.74 251.723 263.477 185.738 315.337 202.005C367.196 218.272 384.539 310.631 354.074 408.294C323.609 505.957 256.871 571.942 205.012 555.675Z" fill="#E7E7E7"/>
<path d="M379.127 279.139C384.316 260.212 398.814 245.115 414.936 233.975C431.058 222.836 449.121 214.856 465.864 204.674C519.911 171.783 557.28 117.889 593.025 65.5754C603.752 49.8717 614.478 34.168 625.205 18.4643C630.728 14.2671 636.25 10.0698 641.772 5.87262L675.64 -0.0322266C688.945 0.478463 701.056 9.06443 708.297 20.2677C715.523 31.4709 718.419 44.9882 719.263 58.314C721.698 96.887 708.17 134.487 694.833 170.761C678.154 216.133 661.348 261.792 636.855 303.461C619.889 332.331 598.643 359.685 569.996 376.936C518.463 407.961 446.129 398.433 404.337 355.12C384.952 335.044 371.775 306.062 379.159 279.107L379.127 279.139Z" fill="#E7E7E7"/>
</g>
<defs>
<clipPath id="clip0_173_2">
<rect width="1053" height="639" fill="white" transform="matrix(-1 0 0 1 1053 0)"/>
</clipPath>
</defs>
</svg>
