<svg width="344" height="217" viewBox="0 0 344 217" fill="none" xmlns="http://www.w3.org/2000/svg">
<rect width="344" height="217" rx="30" fill="#90DEFF"/>
<g clip-path="url(#clip0_245_166)">
<path d="M140.059 96.4798C132.507 98.502 125.138 93.1239 118.741 88.2155C108.511 80.3671 97.876 72.9919 86.2734 68.0584C74.6709 63.1249 61.9849 60.7156 49.7426 63.0281C37.5003 65.3407 25.7724 72.7338 19.0018 84.3397C19.947 83.0669 21.8148 83.1673 23.0526 84.0744C24.2903 84.9815 25.0651 86.4694 25.8527 87.8677C32.26 99.2298 42.4705 107.853 54.0152 111.646C65.5598 115.439 78.3326 114.371 89.2375 108.699C81.0717 112.13 74.15 119.1 70.2632 127.813C67.1287 134.836 65.9681 142.717 64.7433 150.444C63.5184 158.17 62.1392 166.044 58.6382 172.849C55.1372 179.654 49.09 185.319 42.0718 185.874C53.3915 185.95 64.859 184.157 75.2399 179.12C85.6208 174.082 94.87 165.606 100.142 154.434C104.151 145.94 106.158 135.611 113.057 129.871C120.518 123.664 131.941 124.553 137.998 116.669C142.553 110.735 141.926 100.746 136.67 95.5835" fill="#E39797"/>
<path d="M128.678 113.03C123.537 113.034 118.406 114.289 113.7 116.598C108.948 118.928 104.608 122.259 100.969 126.386C97.3682 130.47 94.449 135.353 92.6133 140.713C90.4015 147.188 89.7328 154.341 86.5308 160.379C83.8849 165.37 78.7314 169.798 73.2726 168.991C72.6232 168.894 71.9898 168.733 71.3725 168.489C70.9643 168.328 70.691 167.876 70.8099 167.385C70.9192 166.944 71.3886 166.596 71.8001 166.757C76.825 168.729 82.001 164.8 84.7015 160.257C86.3893 157.421 87.3763 154.13 88.2186 150.885C89.0866 147.532 89.7939 144.126 90.8612 140.842C92.6551 135.331 95.4875 130.294 99.0656 126.006C102.621 121.746 106.913 118.218 111.617 115.698C116.352 113.156 121.496 111.603 126.749 111.291C127.392 111.252 128.032 111.234 128.675 111.234C129.71 111.234 129.71 113.027 128.675 113.027L128.678 113.03Z" fill="#915555"/>
<path d="M123.707 96.7489C118.309 98.9324 112.4 98.5272 106.942 96.8349C101.483 95.1426 96.2359 92.0484 91.2432 88.8216C86.2537 85.5947 81.306 82.1707 75.9114 79.8258C70.5168 77.481 65.0997 76.4305 59.4897 76.4986C53.8765 76.5631 48.2858 77.8108 43.0905 80.1915C42.4733 80.4748 41.8625 80.7795 41.2613 81.0986C40.8691 81.3066 40.3932 81.2205 40.1618 80.7759C39.956 80.3851 40.0557 79.7577 40.4511 79.5497C45.6239 76.832 51.221 75.2401 56.9242 74.8134C62.6274 74.3868 68.2985 75.1361 73.6834 77.0471C79.2291 79.0155 84.3151 82.2388 89.3175 85.4943C94.2877 88.7319 99.2643 92.0628 104.723 94.1817C110.182 96.3007 115.754 97.2795 121.232 95.7234C121.923 95.5262 122.604 95.2896 123.276 95.0171C123.685 94.8522 124.157 95.2036 124.267 95.6446C124.389 96.1429 124.115 96.5804 123.704 96.7489H123.707Z" fill="#915555"/>
<path d="M125.481 107.874C120.723 108.491 115.991 109.434 111.371 110.868C106.751 112.302 102.273 114.221 98.0938 116.824C93.9144 119.427 90.4327 122.399 87.3335 126.164C84.3855 129.745 81.9261 133.904 80.2865 138.418C78.6469 142.932 77.8014 147.766 78.0457 152.627C78.0746 153.233 78.1229 153.836 78.1872 154.442C78.2354 154.922 77.7821 155.338 77.3834 155.338C76.9076 155.338 76.6279 154.926 76.5797 154.442C76.0686 149.454 76.6794 144.367 78.1647 139.637C79.6821 134.808 82.045 130.358 84.9835 126.44C87.9219 122.521 91.635 119.064 95.6376 116.347C99.833 113.493 104.405 111.345 109.098 109.739C113.844 108.118 118.727 107.057 123.643 106.333C124.253 106.243 124.867 106.157 125.481 106.078C125.912 106.021 126.285 106.53 126.285 106.975C126.285 107.505 125.915 107.814 125.481 107.871V107.874Z" fill="#915555"/>
<path d="M123.315 102.715C113.934 105.257 103.916 104.698 94.8275 101.051C86.1344 97.5628 78.1712 91.3815 68.848 90.0621C64.2217 89.406 59.3865 89.9474 55.3583 92.7332C54.4774 93.3427 53.6672 91.7939 54.5481 91.1843C62.2767 85.8385 71.9825 88.0794 79.8558 91.7472C84.2634 93.8017 88.491 96.3043 92.9146 98.3157C97.3673 100.341 102.032 101.718 106.825 102.235C112.198 102.815 117.64 102.403 122.887 100.983C123.893 100.711 124.321 102.439 123.315 102.711V102.715Z" fill="#915555"/>
<path d="M230.188 117.616C234.3 120.036 240.669 120.456 242.633 126.017C244.597 131.577 243.617 138.092 241.106 143.37C238.595 148.648 234.708 152.878 230.677 156.722C226.645 160.565 222.389 164.14 218.814 168.539C215.242 172.939 212.342 178.335 211.728 184.304C211.436 187.14 211.269 190.733 208.941 191.744C206.681 192.726 204.488 190.285 203.006 188.101C199.029 182.239 194.815 175.258 196.281 168.005C197.438 162.279 201.814 158.285 205.835 154.635C209.854 150.985 214.082 146.629 214.699 140.792C215.515 133.08 209.674 125.335 212.111 118.082C213.021 115.375 215.088 113.213 217.522 112.428C222.482 110.825 227.378 114.748 231.391 118.441" fill="#BB7A7A"/>
<path d="M219.04 145.919C217.853 150.888 214.008 154.072 210.829 157.45C209.141 159.242 207.659 161.186 206.527 163.469C205.396 165.753 204.595 168.331 204.193 170.945C203.746 173.842 203.814 176.85 204.399 179.718C204.627 180.841 203.078 181.321 202.849 180.195C201.747 174.771 202.367 169.038 204.479 164.007C205.508 161.555 206.916 159.328 208.604 157.381C210.195 155.546 211.973 153.922 213.597 152.122C215.31 150.221 216.86 148.088 217.49 145.439C217.757 144.323 219.306 144.797 219.04 145.915V145.919Z" fill="#8A5151"/>
<path d="M227.295 152.932C223.196 155.252 219.618 158.611 216.805 162.663C213.992 166.714 211.963 171.407 210.889 176.37C210.285 179.166 210.002 182.027 210.053 184.903C210.073 186.057 208.465 186.057 208.446 184.903C208.353 179.514 209.417 174.172 211.391 169.267C213.365 164.362 216.223 160.02 219.782 156.496C221.81 154.488 224.061 152.753 226.481 151.387C227.401 150.867 228.218 152.412 227.292 152.936L227.295 152.932Z" fill="#8A5151"/>
<path d="M140.789 151.046L241.273 147.504C244.417 147.393 248.851 143.732 251.178 139.329L292.615 60.9129C294.943 56.5101 294.28 53.0286 291.139 53.1398L190.655 56.6822C187.511 56.7933 183.077 60.454 180.75 64.8569L139.31 143.269C136.982 147.672 137.644 151.154 140.785 151.042L140.789 151.046Z" fill="#99675F"/>
<path d="M245.603 135.7L289.683 56.5637H222.504L245.603 135.7Z" fill="#FFD2D2"/>
<path d="M219.502 58.8261C217.997 51.9995 216.464 45.0833 213.413 38.9344C210.362 32.7854 205.562 27.3858 199.493 25.4963C187.839 21.8643 175.728 31.7994 163.775 29.6912C159.29 28.9025 155.198 26.4608 151.115 24.245C147.032 22.0257 142.705 19.9569 138.162 19.9999C133.619 20.043 128.807 22.7248 127.28 27.497C130.366 24.686 134.587 23.4957 138.5 24.3311C142.412 25.1701 145.939 28.024 147.868 31.9106C151.276 38.773 149.7 47.948 153.876 54.2583C156.651 58.4461 161.377 60.3965 165.945 61.4686C174.905 63.5732 184.334 63.1214 193.098 60.1706C200.1 57.8115 207.719 53.9034 214.332 57.3956C215.692 58.1126 216.953 59.1345 218.422 59.4966C219.891 59.8587 221.72 59.2922 222.231 57.7147" fill="#E39797"/>
<path d="M194.912 58.7688C195.439 55.9722 194.565 53.1111 193.032 50.8917C191.353 48.4644 188.968 46.8295 186.316 46.0837C183.146 45.1945 179.799 45.4814 176.632 46.2451C174.99 46.6394 173.389 47.1952 171.781 47.7402C170.174 48.2851 168.402 48.8122 166.66 48.7512C164.917 48.6903 163.426 48.0628 162.172 46.8259C161.021 45.6893 160.246 43.9863 160.452 42.2438C160.51 41.7633 160.78 41.3474 161.256 41.3474C161.645 41.3474 162.117 41.7597 162.059 42.2438C161.895 43.6313 162.49 44.8181 163.438 45.6857C164.525 46.6789 165.879 47.0159 167.258 46.9585C168.965 46.8904 170.614 46.2702 172.231 45.7108C173.848 45.1515 175.475 44.6531 177.137 44.3089C180.416 43.6241 183.843 43.4592 187.087 44.4595C189.836 45.3057 192.337 47.0625 194.121 49.5615C196.076 52.3044 197.121 55.7571 196.462 59.2493C196.25 60.3787 194.7 59.9018 194.912 58.7724V58.7688Z" fill="#915555"/>
<path d="M210.134 56.9187C210.334 52.4012 209.07 47.923 206.646 44.3018C204.222 40.6805 200.653 38.2711 196.763 37.2887C194.815 36.7975 192.78 36.6792 190.8 36.9732C188.684 37.2851 186.64 38.0632 184.643 38.8735C180.644 40.4977 176.513 42.4409 172.16 41.8314C167.807 41.2219 163.653 38.3464 161.319 34.087C160.779 33.101 162.168 32.1975 162.708 33.1835C164.717 36.8513 168.212 39.3683 172.015 40.0136C176.246 40.7307 180.335 38.7193 184.216 37.1417C186.26 36.3099 188.337 35.5534 190.501 35.22C192.664 34.8865 194.732 34.9905 196.815 35.4638C200.888 36.3924 204.701 38.8484 207.36 42.4266C210.35 46.453 211.976 51.6805 211.745 56.9152C211.693 58.0625 210.086 58.0697 210.137 56.9152L210.134 56.9187Z" fill="#915555"/>
<path d="M138.699 152.1L245.993 148.386C249.349 148.271 251.188 144.531 250.098 140.035L230.709 60.0166C229.619 55.5205 226.015 51.971 222.659 52.0893L115.365 55.8038C112.009 55.9185 110.17 59.6581 111.26 64.1541L130.649 144.173C131.739 148.669 135.343 152.219 138.699 152.1Z" fill="#E18D7A"/>
<path d="M200.872 135.683L232.111 127.999C233.089 127.759 233.307 125.314 232.603 122.535L220.039 73.0961C219.332 70.3174 217.969 68.263 216.992 68.5032L185.752 76.1867C184.775 76.4269 184.557 78.8722 185.261 81.6509L197.824 131.09C198.532 133.868 199.895 135.923 200.872 135.683Z" fill="#9B5A5A"/>
<path d="M195.423 118.215C199.792 121.725 207.054 123.435 208.482 130.036C209.909 136.633 207.81 143.721 204.132 149.132C200.454 154.542 195.349 158.511 190.137 162.017C184.926 165.528 179.493 168.686 174.725 172.906C169.958 177.126 165.817 182.59 164.219 189.141C163.46 192.253 162.727 196.236 159.901 196.91C157.153 197.567 154.995 194.411 153.62 191.679C149.919 184.351 146.116 175.724 148.887 167.905C151.077 161.731 156.706 158.124 161.875 154.829C167.045 151.534 172.555 147.489 174.14 141.089C176.233 132.632 170.671 122.833 174.558 115.203C176.011 112.353 178.712 110.341 181.628 109.94C187.572 109.119 192.616 114.457 196.68 119.369" fill="#E39797"/>
<path d="M186.736 115.848C187.71 122.087 188.72 128.458 188.151 134.808C187.665 140.229 186.058 145.639 182.753 149.748C179.589 153.681 175.211 155.951 171.102 158.396C169.067 159.608 167.058 160.892 165.225 162.466C163.393 164.04 161.808 165.779 160.361 167.715C157.477 171.573 155.355 176.155 154.214 181.013C154.073 181.619 153.947 182.225 153.835 182.838C153.748 183.311 153.243 183.587 152.845 183.465C152.404 183.329 152.195 182.838 152.282 182.361C153.198 177.395 155.092 172.648 157.76 168.543C160.477 164.362 163.926 160.92 167.919 158.314C171.912 155.707 176.265 153.796 179.789 150.451C183.312 147.106 185.476 142.115 186.286 136.902C187.225 130.857 186.456 124.654 185.546 118.67C185.428 117.885 185.305 117.103 185.183 116.318C185.109 115.841 185.299 115.354 185.746 115.214C186.132 115.095 186.659 115.361 186.736 115.841V115.848Z" fill="#915555"/>
<path d="M194.33 124.794C195.738 129.032 195.571 133.718 194.404 137.999C193.202 142.405 191.022 146.342 188.331 149.809C182.859 156.865 175.645 161.852 169.894 168.589C166.836 172.171 164.174 176.277 162.792 181.02C162.474 182.114 160.921 181.644 161.242 180.543C163.773 171.859 170.003 165.538 176.111 159.866C182.342 154.083 189.209 148.16 192.247 139.465C193.832 134.93 194.32 129.903 192.777 125.267C192.626 124.812 192.944 124.285 193.34 124.163C193.79 124.027 194.176 124.335 194.33 124.79V124.794Z" fill="#915555"/>
<path d="M170.748 122.951L162.817 77.6209C162.55 76.0971 161.354 75 159.962 75H157.908C156.021 75 154.635 76.972 155.085 79.0156L165.07 124.346C165.389 125.794 166.556 126.816 167.893 126.816C169.722 126.816 171.098 124.955 170.748 122.951Z" fill="#9B5A5A"/>
<path d="M157.597 124.138L149.665 78.8074C149.399 77.2837 148.203 76.1865 146.811 76.1865H144.756C142.869 76.1865 141.484 78.1585 141.934 80.2022L151.919 125.532C152.237 126.981 153.404 128.003 154.742 128.003C156.571 128.003 157.947 126.142 157.597 124.138Z" fill="#9B5A5A"/>
<path d="M146.245 125.436L138.314 80.1055C138.047 78.5817 136.851 77.4846 135.459 77.4846H133.405C131.518 77.4846 130.132 79.4566 130.582 81.5003L140.568 126.83C140.886 128.279 142.053 129.301 143.39 129.301C145.219 129.301 146.595 127.44 146.245 125.436Z" fill="#9B5A5A"/>
</g>
<defs>
<clipPath id="clip0_245_166">
<rect width="275.008" height="177" fill="white" transform="matrix(-1 0 0 1 294.008 20)"/>
</clipPath>
</defs>
</svg>
