<svg width="344" height="217" viewBox="0 0 344 217" fill="none" xmlns="http://www.w3.org/2000/svg">
<rect width="344" height="217" rx="30" fill="#90DEFF"/>
<g clip-path="url(#clip0_247_3)">
<path d="M112.755 42.7097C106.117 33.3778 101.874 22.3659 100.537 11C96.1703 12.4529 92.8198 16.1521 90.9074 20.3281C88.9949 24.5042 88.3487 29.1422 88.0275 33.7205C87.7698 37.3937 87.7287 41.2158 89.2004 44.5947C91.322 49.4599 96.7118 52.7009 102.016 52.3023C107.32 51.9037 112.164 47.899 113.535 42.773" fill="#A55151"/>
<path d="M256.366 76.6508C258.678 76.3714 260.994 76.1069 263.324 75.9952C265.988 75.8685 268.591 76.0212 271.232 76.3975C276.36 77.1239 281.085 79.5975 284.69 83.3004C288.007 86.7091 290.547 90.9187 292.407 95.2735C293.43 97.6763 294.338 100.105 294.988 102.635C295.638 105.164 296.052 107.764 296.329 110.365C296.9 115.77 296.471 121.306 295.201 126.588C294.932 127.702 294.035 128.801 293.057 129.371C292.078 129.941 290.58 130.202 289.46 129.841C286.987 129.043 285.586 126.652 286.199 124.111C286.542 122.684 286.811 121.243 287.013 119.786L286.845 121.023C287.375 117.07 287.364 113.066 286.845 109.113L287.013 110.35C286.475 106.401 285.426 102.534 283.879 98.8573L284.35 99.9711C283.016 96.8344 281.343 93.8169 279.251 91.1198L279.98 92.0623C278.766 90.5089 277.402 89.0821 275.841 87.8714L276.786 88.5978C275.561 87.6628 274.239 86.8879 272.816 86.2881L273.932 86.7575C272.199 86.0423 270.376 85.5952 268.52 85.3419L269.76 85.5095C265.304 84.9321 260.803 85.4276 256.369 85.964C255.264 86.0981 253.818 85.3494 253.068 84.6006C252.257 83.7922 251.648 82.466 251.7 81.3074C251.753 80.1489 252.152 78.8525 253.068 78.0143L254.013 77.2878C254.741 76.8669 255.525 76.6545 256.369 76.6508H256.366Z" fill="#B16666"/>
<path d="M107.339 146.627H111.373C115.23 146.627 118.357 149.746 118.357 153.593V185.996C118.357 189.843 115.23 192.962 111.373 192.962H107.339C103.481 192.962 100.354 189.843 100.354 185.996V153.593C100.354 149.746 103.481 146.627 107.339 146.627Z" fill="#683737"/>
<path d="M208.644 145.919H212.678C216.536 145.919 219.663 149.038 219.663 152.885V185.288C219.663 189.135 216.536 192.254 212.678 192.254H208.644C204.787 192.254 201.659 189.135 201.659 185.288V152.885C201.659 149.038 204.787 145.919 208.644 145.919Z" fill="#683737"/>
<path d="M97.6231 43.8423H248.734C255.738 43.8423 261.415 49.5047 261.415 56.4896V148.53C261.415 155.515 255.738 161.178 248.734 161.178H97.6231C90.6196 161.178 84.9421 155.515 84.9421 148.53V56.4896C84.9421 49.5047 90.6196 43.8423 97.6231 43.8423Z" fill="#FFDBDB"/>
<mask id="mask0_247_3" style="mask-type:luminance" maskUnits="userSpaceOnUse" x="84" y="43" width="178" height="119">
<path d="M97.624 43.842H248.735C255.739 43.842 261.416 49.5045 261.416 56.4894V148.53C261.416 155.515 255.739 161.178 248.735 161.178H97.624C90.6205 161.178 84.9431 155.515 84.9431 148.53V56.4894C84.9431 49.5045 90.6205 43.842 97.624 43.842Z" fill="white"/>
</mask>
<g mask="url(#mask0_247_3)">
<path d="M185.587 36.0711C183.021 37.6022 155.478 54.0233 160.098 75.1829C162.806 87.5956 175.902 98.4995 188.53 98.6485C207.789 98.8757 216.104 73.9796 230.197 77.1387C241.492 79.6682 240.554 96.6443 252.746 99.6283C263.574 102.281 280.289 92.7961 283.629 77.1387C286.792 62.312 276.845 47.2134 266.473 44.8702C256.033 42.5121 250.968 54.3921 240.001 52.2053C227.769 49.7652 228.165 33.8098 214.512 29.2277C203.352 25.4801 191.821 32.357 185.591 36.0711H185.587Z" fill="#632A2A"/>
<path d="M133.003 57.9833C142.789 67.4194 147.985 84.1832 141.777 92.9824C137.735 98.7119 132.846 95.4075 123.68 101.733C110.756 110.648 112.422 122.766 103.39 125.251C95.6507 127.378 86.7946 120.576 82.5514 115.409C71.9621 102.5 75.4471 81.84 84.1949 68.9244C91.0079 58.8662 105.314 47.1539 119.836 50.3315C126.586 51.8067 130.885 55.953 132.995 57.987L133.003 57.9833Z" fill="#632A2A"/>
<path d="M237.702 110.145C238.389 118.463 232.252 129.177 222.529 129.602C213.938 129.974 205.792 122.177 206.053 114.902C206.247 109.556 210.928 105.928 213.856 103.659C216.206 101.837 224.382 95.5007 231.199 98.9019C236.895 101.744 237.638 109.389 237.702 110.145Z" fill="#632A2A"/>
<path d="M167.523 164.262C149.609 151.47 140.458 154.696 136.626 146.72C131.841 136.77 140.462 120.054 147.801 119.533C155.257 119 160.053 135.261 167.262 133.875C172.031 132.959 171.841 125.467 178.109 123.548C184.387 121.626 191.047 127.169 192.523 128.488C199.108 134.363 200.983 143.859 199.298 151.533C197.024 161.889 187.753 171.273 179.177 170.916C175.117 170.748 173.451 168.49 167.527 164.258L167.523 164.262Z" fill="#632A2A"/>
</g>
<path d="M261.415 140.67H84.9421V152.237C84.9421 157.173 88.9612 161.181 93.9103 161.181H252.447C257.396 161.181 261.415 157.173 261.415 152.237V140.67Z" fill="#9A5F5F"/>
<path d="M110.173 66.5442H134.146C138.144 66.5442 141.385 69.7765 141.385 73.7638V119.242C141.385 123.229 138.144 126.462 134.146 126.462H110.173C106.176 126.462 102.935 123.229 102.935 119.242V73.7638C102.935 69.7765 106.176 66.5442 110.173 66.5442Z" fill="#9A5F5F"/>
<path d="M105.605 42.7097C112.246 33.3778 116.489 22.3621 117.823 11C122.189 12.4529 125.54 16.1521 127.452 20.3281C129.368 24.5042 130.011 29.1422 130.332 33.7205C130.59 37.3937 130.631 41.2158 129.159 44.5947C127.038 49.4599 121.648 52.7009 116.344 52.3023C111.04 51.9037 106.195 47.899 104.824 42.773" fill="#DB6F6F"/>
<path d="M295.204 125.62C298.301 129.807 301.121 134.192 303.642 138.744C304.352 140.022 303.997 141.851 302.637 142.566C301.278 143.282 299.563 142.931 298.805 141.564C296.28 137.012 293.464 132.627 290.367 128.44C289.964 127.892 289.911 126.913 290.083 126.287C290.255 125.661 290.763 124.934 291.372 124.618C292.022 124.275 292.81 124.104 293.531 124.335C294.252 124.566 294.748 125.002 295.204 125.62Z" fill="#632A2A"/>
<path d="M294.45 127.542C295.421 131.264 296.015 135.089 296.257 138.927C296.351 140.387 294.902 141.784 293.456 141.72C291.857 141.65 290.755 140.491 290.655 138.927C290.572 137.608 290.442 136.296 290.27 134.989L290.371 135.73C290.064 133.473 289.624 131.234 289.049 129.028C288.679 127.617 289.515 125.929 291.006 125.59C292.496 125.251 294.057 126.03 294.453 127.542H294.45Z" fill="#632A2A"/>
<path d="M292.843 128.287V143.397C292.843 144.857 291.554 146.258 290.041 146.191C288.529 146.124 287.24 144.961 287.24 143.397V128.287C287.24 126.827 288.529 125.426 290.041 125.493C291.554 125.56 292.843 126.722 292.843 128.287Z" fill="#632A2A"/>
<path d="M291.957 127.14C290.389 131.226 288.816 135.309 287.247 139.396C286.978 140.093 286.627 140.674 285.959 141.065C285.357 141.415 284.472 141.564 283.8 141.348C282.47 140.92 281.282 139.374 281.843 137.909C283.411 133.823 284.984 129.74 286.553 125.653C286.822 124.957 287.173 124.376 287.841 123.984C288.443 123.634 289.328 123.485 290 123.701C291.33 124.13 292.518 125.676 291.957 127.14Z" fill="#632A2A"/>
<path d="M289.914 127.769C289.631 128.112 289.35 128.459 289.07 128.805C288.932 128.98 288.794 129.155 288.656 129.33C288.588 129.42 288.518 129.505 288.45 129.595L288.686 129.293C288.166 129.945 287.677 130.627 287.188 131.305C286.198 132.683 285.253 134.099 284.357 135.54C282.579 138.401 280.995 141.385 279.609 144.455C279.34 145.055 278.541 145.573 277.936 145.74C277.263 145.923 276.371 145.841 275.777 145.457C275.183 145.073 274.652 144.5 274.488 143.788C274.313 143.013 274.447 142.358 274.772 141.635C277.667 135.209 281.465 129.252 285.955 123.817C286.385 123.295 287.289 122.997 287.935 122.997C288.622 122.997 289.444 123.303 289.914 123.817C290.385 124.331 290.77 125.05 290.736 125.791C290.703 126.533 290.411 127.166 289.914 127.766V127.769Z" fill="#632A2A"/>
<path d="M132.939 149.354H136.973C140.831 149.354 143.958 152.472 143.958 156.32V188.722C143.958 192.57 140.831 195.689 136.973 195.689H132.939C129.082 195.689 125.954 192.57 125.954 188.722V156.32C125.954 152.472 129.082 149.354 132.939 149.354Z" fill="#B16666"/>
<path d="M126.511 182.069C132.323 182.27 138.142 182.159 143.958 182.188V190.038C143.958 193.886 140.832 197.004 136.973 197.004H132.939C129.081 197.004 125.954 193.886 125.954 190.038V182.047C126.137 182.054 126.324 182.062 126.507 182.069H126.511Z" fill="#DB6F6F"/>
<path d="M233.499 148.646H237.533C241.39 148.646 244.518 151.765 244.518 155.612V188.015C244.518 191.862 241.39 194.981 237.533 194.981H233.499C229.641 194.981 226.514 191.862 226.514 188.015V155.612C226.514 151.765 229.641 148.646 233.499 148.646Z" fill="#B16666"/>
<path d="M227.07 180.046C232.882 180.247 238.702 180.136 244.518 180.165V188.015C244.518 191.863 241.391 194.981 237.533 194.981H233.499C229.64 194.981 226.514 191.863 226.514 188.015V180.024C226.697 180.031 226.884 180.039 227.067 180.046H227.07Z" fill="#DB6F6F"/>
<path d="M202.212 177.319C208.024 177.52 213.843 177.409 219.659 177.438V185.288C219.659 189.136 216.533 192.254 212.674 192.254H208.64C204.782 192.254 201.656 189.136 201.656 185.288V177.297C201.839 177.304 202.025 177.312 202.208 177.319H202.212Z" fill="#A55151"/>
<path d="M100.91 178.027C106.722 178.228 112.542 178.117 118.357 178.146V185.996C118.357 189.844 115.231 192.962 111.373 192.962H107.339C103.48 192.962 100.354 189.844 100.354 185.996V178.005C100.537 178.012 100.724 178.02 100.907 178.027H100.91Z" fill="#A55151"/>
</g>
<defs>
<clipPath id="clip0_247_3">
<rect width="228" height="186" fill="white" transform="matrix(-1 0 0 1 304 11)"/>
</clipPath>
</defs>
</svg>
