<svg width="344" height="219" viewBox="0 0 344 219" fill="none" xmlns="http://www.w3.org/2000/svg">
<rect y="2" width="344" height="217" rx="30" fill="#91DEFF"/>
<g clip-path="url(#clip0_218_146)">
<path d="M274.077 121.634L347.666 118.933L364.408 188.049L301.166 233.465L245.339 192.418L274.077 121.634Z" fill="#ED9512"/>
<path d="M84.7236 -30C84.7236 -6.72194 84.5095 13.1157 65.2652 32.5435C50.524 47.4253 31.4156 60.883 11.4106 70.9586C-4.24635 78.8442 -21.1627 79.8787 -39.1027 81.1179C-55.4714 82.2486 -72.932 83.9693 -89.2228 81.2767C-102.591 79.0672 -111.091 73.9814 -122.243 68.5775" stroke="#BB0F0F" stroke-width="31.6406" stroke-linecap="square"/>
<path d="M211.234 44.8268C215.136 40.7933 221.726 45.1599 219.532 50.3253L202.979 89.3068C201.65 92.4378 203.725 95.9629 207.108 96.32L250.16 100.865C255.791 101.46 256.348 109.441 250.854 110.812L210.291 120.933C206.871 121.786 205.348 125.787 207.336 128.699L231.192 163.647C234.399 168.345 228.616 173.945 224.023 170.588L189.331 145.231C186.529 143.183 182.544 144.498 181.511 147.811L169.062 187.731C167.386 193.104 159.509 192.142 159.175 186.524L156.623 143.584C156.423 140.22 153.052 137.987 149.876 139.114L109.338 153.502C104.034 155.385 100.078 148.505 104.373 144.868L136.282 117.843C138.93 115.6 138.587 111.417 135.609 109.635L98.734 87.572C93.8529 84.6515 96.7553 77.1428 102.332 78.2647L143.815 86.6101C147.271 87.3054 150.362 84.3435 149.814 80.8609L143.323 39.5618C142.443 33.9684 150.01 31.3701 152.753 36.3237L173.721 74.1982C175.369 77.1742 179.424 77.7109 181.789 75.266L211.234 44.8268Z" fill="#2241AE"/>
</g>
<defs>
<clipPath id="clip0_218_146">
<rect width="328" height="218" fill="white"/>
</clipPath>
</defs>
</svg>
