<svg width="344" height="217" viewBox="0 0 344 217" fill="none" xmlns="http://www.w3.org/2000/svg">
<rect width="344" height="217" rx="30" fill="#90DEFF"/>
<g clip-path="url(#clip0_247_4)">
<path d="M111.52 109.71C89.2724 105.211 71.4998 86.7796 69.814 66.454C66.9176 72.8883 66.4212 80.1643 68.4193 86.8637C57.0258 79.9876 50.5911 67.4261 51.0531 55.1466C51.5152 42.8671 58.4676 31.1094 68.7958 23.0002C48.7856 26.9223 30.2428 40.8135 27.3848 58.9382C24.5268 77.0418 37.9055 94.8761 55.6054 104.042C54.1037 104.37 52.4265 103.978 51.297 103.036C57.0001 110.535 66.678 115.139 76.6681 116.725C86.6582 118.312 96.9735 117.133 106.81 114.911C108.615 114.503 110.562 113.964 111.602 112.588C112.641 111.208 111.944 108.805 110.087 108.704" fill="#942929"/>
<path d="M126.939 149.031H106.997C104.101 149.031 101.752 151.342 101.752 154.19V190.688C101.752 195.347 105.598 199.134 110.339 199.134H126.943C129.84 199.134 132.188 196.824 132.188 193.975V154.195C132.188 151.346 129.84 149.035 126.943 149.035L126.939 149.031Z" fill="#942929"/>
<path d="M129.622 174.083H107.366C106.779 174.083 106.3 174.554 106.3 175.131V189.157C106.3 194.661 110.844 199.134 116.444 199.134H131.86C138.273 199.134 143.476 194.013 143.476 187.709C143.476 180.189 137.268 174.083 129.622 174.083Z" fill="#942929"/>
<path d="M232.878 149.031H212.937C210.04 149.031 207.691 151.342 207.691 154.19V190.688C207.691 195.347 211.537 199.134 216.278 199.134H232.883C235.779 199.134 238.128 196.824 238.128 193.975V154.195C238.128 151.346 235.779 149.035 232.883 149.035L232.878 149.031Z" fill="#942929"/>
<path d="M235.561 174.083H213.304C212.718 174.083 212.239 174.554 212.239 175.13V189.156C212.239 194.661 216.782 199.134 222.383 199.134H237.798C244.211 199.134 249.414 194.013 249.414 187.709C249.414 180.189 243.206 174.083 235.561 174.083Z" fill="#942929"/>
<path d="M250.325 33.0957C257.141 34.7242 263.961 36.357 270.776 37.9856C273.527 38.6421 276.325 39.3196 278.755 40.7504C285.293 44.6009 287.595 53.2866 285.819 60.5752C284.044 67.8637 279.008 73.9572 273.587 79.2259C267.448 85.1931 260.615 90.4617 253.333 95.015C245.067 100.183 235.158 104.559 225.716 101.984C222.34 101.062 219.153 99.2106 217.078 96.4332C213.758 91.9851 213.732 85.9926 214.254 80.5009C215.114 71.4239 217.09 62.452 220.128 53.8421C221.433 50.1388 222.982 46.4272 225.583 43.452C228.368 40.2706 232.189 38.1413 236.091 36.4412C240.802 34.3876 245.863 32.8558 251.014 32.9863" fill="#631919"/>
<path d="M94.1886 41.1331H247.694C251.811 41.1331 255.147 44.4151 255.147 48.4637V147.895C255.147 151.943 251.811 155.226 247.694 155.226H94.1886C90.0724 155.226 86.7356 151.943 86.7356 147.895V48.4637C86.7356 44.4151 90.0724 41.1331 94.1886 41.1331Z" fill="#AA5E79"/>
<path d="M255.147 142.521H86.7313V155.676C86.7313 158.622 89.1657 161.016 92.1606 161.016H249.714C252.709 161.016 255.143 158.622 255.143 155.676V142.521H255.147Z" fill="#703B4E"/>
<path d="M210.279 56.2153H223.992C230.083 56.2153 235.021 61.0725 235.021 67.064V119.254C235.021 125.246 230.083 130.103 223.992 130.103H210.279C204.188 130.103 199.25 125.246 199.25 119.254V67.064C199.25 61.0725 204.188 56.2153 210.279 56.2153Z" fill="#703B4E"/>
<path d="M114.327 58.614C114.327 57.2893 115.419 56.2153 116.765 56.2153C118.112 56.2153 119.204 57.2893 119.204 58.614V127.704C119.204 129.029 118.112 130.103 116.765 130.103C115.419 130.103 114.327 129.029 114.327 127.704V58.614Z" fill="#703B4E"/>
<path d="M105.633 80.7744C105.633 79.4497 106.725 78.3757 108.072 78.3757C109.419 78.3757 110.511 79.4497 110.511 80.7744V127.704C110.511 129.029 109.419 130.103 108.072 130.103C106.725 130.103 105.633 129.029 105.633 127.704V80.7744Z" fill="#703B4E"/>
<path d="M208.798 25.4535C215.815 25.3988 222.832 25.3399 229.844 25.2852C232.676 25.2642 235.556 25.2473 238.268 26.0511C245.567 28.2141 249.957 36.0834 250.042 43.5824C250.128 51.0814 246.761 58.1933 242.812 64.6065C238.337 71.8657 233.023 78.6198 227.089 84.7848C220.354 91.783 211.832 98.4067 202.038 98.1753C198.534 98.0953 194.983 97.0601 192.284 94.8634C187.962 91.3496 186.448 85.5423 185.588 80.0927C184.167 71.0872 183.855 61.9091 184.664 52.832C185.01 48.9268 185.588 44.9543 187.376 41.4489C189.289 37.6952 192.463 34.7116 195.822 32.1277C199.882 29.0052 204.409 26.3036 209.436 25.1926" fill="#942929"/>
<path d="M280.746 103.099L282.637 116.955L269.921 124.071L260.172 114.614L266.862 101.653L280.746 103.099Z" fill="#D8366F"/>
<path d="M46.9628 134.069L58.1046 136.115L59.0006 147.01L48.4126 151.699L40.9728 143.701L46.9628 134.069Z" fill="#D8366F"/>
</g>
<defs>
<clipPath id="clip0_247_4">
<rect width="259.397" height="176.134" fill="white" transform="matrix(-1 0 0 1 286.397 23)"/>
</clipPath>
</defs>
</svg>
