<svg width="344" height="217" viewBox="0 0 344 217" fill="none" xmlns="http://www.w3.org/2000/svg">
<rect width="344" height="217" rx="30" fill="#90DEFF"/>
<g clip-path="url(#clip0_250_5)">
<path d="M126.231 93.7259C106.474 94.4178 86.1085 94.3834 67.7107 88.4741C49.3129 82.5648 33.1432 69.5213 31.1888 53.4996C30.5174 48.0158 31.6036 42.2526 35.2943 37.6326C38.9807 33.0126 45.5153 29.7377 52.2723 30.0171C58.5204 30.2706 64.097 33.3951 68.3394 37.1426C72.5817 40.8859 75.8191 45.3039 79.8006 49.2363C86.1042 55.4593 94.2896 60.4103 103.424 63.5304C112.632 66.6763 123.571 68.4684 129.118 75.2287C133.75 80.8715 132.697 89.1488 126.753 93.9064" fill="#9B5741"/>
<path d="M126.231 120.346C106.474 119.654 86.1085 119.688 67.7107 125.598C49.3172 131.507 33.1432 144.55 31.1888 160.572C30.5174 166.056 31.6036 171.819 35.2943 176.439C38.9764 181.059 45.511 184.33 52.268 184.055C58.5161 183.801 64.0927 180.677 68.3351 176.929C72.5774 173.186 75.8148 168.768 79.7963 164.835C86.1 158.612 94.2853 153.661 103.42 150.541C112.628 147.395 123.567 145.603 129.114 138.843C133.745 133.2 132.693 124.923 126.749 120.165" fill="#9B5741"/>
<path d="M115.745 85.1348C105.666 85.4184 95.5258 85.6978 85.54 84.4085C75.5542 83.1192 65.6283 80.171 57.5884 74.5625C49.5484 68.954 43.5698 60.4575 42.8171 51.1917C42.5648 48.0974 43.0951 44.5948 45.738 42.6694C47.7009 41.2383 50.4636 41.0191 52.8884 41.5907C55.3132 42.1623 57.4729 43.4258 59.5256 44.7452C72.009 52.7776 82.4695 63.655 96.2785 69.56C103.921 72.8262 112.696 74.6528 118.487 80.2913C119.56 81.3357 120.565 82.7367 120.137 84.1249C119.505 86.1834 116.49 86.4413 114.176 86.2823C106.884 85.7795 99.5886 85.2766 92.297 84.7738" fill="#FBC5C5"/>
<path d="M115.746 128.507C105.667 128.223 95.5268 127.944 85.541 129.233C75.5552 130.522 65.6293 133.471 57.5893 139.079C49.5494 144.688 43.5707 153.184 42.8181 162.45C42.5657 165.544 43.096 169.047 45.739 170.972C47.7019 172.403 50.4646 172.622 52.8894 172.051C55.3142 171.479 57.4739 170.216 59.5266 168.896C72.0099 160.864 82.4704 149.987 96.2795 144.082C103.922 140.815 112.697 138.989 118.488 133.35C119.561 132.306 120.566 130.905 120.138 129.517C119.506 127.458 116.491 127.2 114.177 127.359C106.885 127.862 99.5895 128.365 92.298 128.868" fill="#FBC5C5"/>
<path d="M112.323 58.2658L112.323 164.126C112.323 169.146 116.373 173.216 121.368 173.216L267.854 173.216C272.849 173.216 276.899 169.146 276.899 164.126V58.2658C276.899 53.2458 272.849 49.1762 267.854 49.1762L121.368 49.1762C116.373 49.1762 112.323 53.2458 112.323 58.2658Z" fill="#C17092"/>
<path d="M112.323 169.726V158.423L276.899 158.423V166.267C276.899 172.004 272.263 176.663 266.554 176.663L119.221 176.663C115.415 176.663 112.323 173.556 112.323 169.731V169.726Z" fill="#381926"/>
<path d="M141.207 71.8595L141.207 136.02C141.207 139.335 143.882 142.023 147.181 142.023H157.402C160.702 142.023 163.377 139.335 163.377 136.02V71.8595C163.377 68.5437 160.702 65.8557 157.402 65.8557H147.181C143.882 65.8557 141.207 68.5437 141.207 71.8595Z" fill="#381926"/>
<path d="M210.039 71.8165L210.039 138.138H214.679V71.8165H210.039Z" fill="#381926"/>
<path d="M219.832 74.4037V136.84H224.216V74.4037H219.832Z" fill="#381926"/>
<path d="M228.855 82.9562V126.479H234.013V82.9562H228.855Z" fill="#381926"/>
</g>
<defs>
<clipPath id="clip0_250_5">
<rect width="154.072" height="245.899" fill="white" transform="matrix(0 -1 1 0 31 184.072)"/>
</clipPath>
</defs>
</svg>
