<svg width="1434" height="943" viewBox="0 0 1434 943" fill="none" xmlns="http://www.w3.org/2000/svg">
<path d="M163.269 487.734C169.79 489.805 171.098 498.457 165.482 502.364L145.837 516.027C142.706 518.205 141.477 522.246 142.865 525.799L151.8 548.657C154.345 555.168 148.143 561.694 141.511 559.483L119.991 552.31C116.196 551.044 112.04 552.686 110.133 556.204L99.1624 576.444C95.7934 582.66 86.6769 582.032 84.1915 575.413L75.8081 553.088C74.431 549.421 70.6643 547.228 66.7955 547.842L43.996 551.459C37.1928 552.538 32.1429 545.295 35.5083 539.284L47.5169 517.838C49.3587 514.549 48.7357 510.43 46.0038 507.833L28.1907 490.897C23.1986 486.15 25.8808 477.738 32.699 476.757L55.5484 473.47C59.4257 472.913 62.3756 469.705 62.6067 465.794L64.0137 441.988C64.4308 434.93 72.9539 431.635 78.0103 436.576L94.4754 452.668C97.3368 455.464 101.793 455.804 105.044 453.473L123.48 440.257C129.162 436.184 137.016 440.584 136.51 447.556L134.734 472.034C134.458 475.838 136.828 479.336 140.463 480.49L163.269 487.734Z" fill="#BC245A"/>
<path d="M418.209 825.753C424.73 827.824 426.038 836.477 420.422 840.383L400.777 854.046C397.646 856.224 396.417 860.266 397.805 863.819L406.74 886.676C409.285 893.187 403.083 899.713 396.451 897.502L374.931 890.329C371.136 889.064 366.979 890.705 365.073 894.223L354.102 914.463C350.733 920.679 341.617 920.051 339.131 913.433L330.748 891.107C329.371 887.44 325.604 885.247 321.735 885.861L298.936 889.478C292.133 890.557 287.083 883.314 290.448 877.304L302.457 855.858C304.299 852.569 303.676 848.449 300.944 845.852L283.131 828.916C278.139 824.17 280.821 815.757 287.639 814.776L310.488 811.49C314.366 810.932 317.316 807.724 317.547 803.813L318.954 780.007C319.371 772.949 327.894 769.654 332.95 774.596L349.415 790.687C352.277 793.484 356.732 793.823 359.984 791.492L378.42 778.276C384.102 774.203 391.956 778.603 391.45 785.575L389.674 810.053C389.398 813.857 391.768 817.355 395.403 818.51L418.209 825.753Z" fill="#BC245A"/>
<path d="M1404.84 403.093C1411.36 405.164 1412.67 413.817 1407.05 417.724L1387.4 431.387C1384.27 433.565 1383.04 437.606 1384.43 441.159L1393.37 464.017C1395.91 470.528 1389.71 477.054 1383.08 474.843L1361.56 467.67C1357.76 466.404 1353.61 468.046 1351.7 471.563L1340.73 491.804C1337.36 498.02 1328.24 497.392 1325.76 490.773L1317.38 468.448C1316 464.78 1312.23 462.588 1308.36 463.202L1285.56 466.818C1278.76 467.898 1273.71 460.655 1277.08 454.644L1289.08 433.198C1290.93 429.909 1290.3 425.79 1287.57 423.193L1269.76 406.257C1264.77 401.51 1267.45 393.098 1274.27 392.117L1297.12 388.83C1300.99 388.273 1303.94 385.064 1304.17 381.154L1305.58 357.348C1306 350.29 1314.52 346.995 1319.58 351.936L1336.04 368.028C1338.9 370.824 1343.36 371.163 1346.61 368.832L1365.05 355.617C1370.73 351.544 1378.58 355.944 1378.08 362.916L1376.3 387.394C1376.03 391.198 1378.39 394.696 1382.03 395.85L1404.84 403.093Z" fill="#BC245A"/>
<path d="M783.921 169.262C790.442 171.333 791.751 179.986 786.134 183.893L766.49 197.556C763.358 199.734 762.129 203.775 763.518 207.328L772.452 230.186C774.997 236.697 768.795 243.223 762.163 241.012L740.644 233.839C736.848 232.573 732.692 234.215 730.785 237.732L719.815 257.973C716.446 264.189 707.329 263.561 704.844 256.942L696.46 234.617C695.083 230.949 691.317 228.757 687.448 229.371L664.648 232.987C657.845 234.067 652.795 226.824 656.161 220.813L668.169 199.367C670.011 196.078 669.388 191.959 666.656 189.362L648.843 172.426C643.851 167.679 646.533 159.267 653.351 158.286L676.201 154.999C680.078 154.442 683.028 151.233 683.259 147.323L684.666 123.517C685.083 116.459 693.606 113.164 698.663 118.105L715.128 134.197C717.989 136.993 722.445 137.332 725.697 135.001L744.133 121.786C749.814 117.713 757.668 122.113 757.163 129.085L755.387 153.563C755.111 157.367 757.48 160.865 761.116 162.019L783.921 169.262Z" fill="#BC245A"/>
<path d="M203.634 663.912L229.241 707.048L199.132 741.337L154.917 719.395L157.7 671.543L203.634 663.912Z" fill="#CA4871"/>
<path d="M1100.18 326.717C1124.91 347.09 1180.88 381.578 1206.97 356.549C1233.06 331.52 1231.43 292.601 1227.35 276.271C1225 262.791 1213.28 242.558 1185.14 269.462C1157.01 296.366 1188.81 313.103 1208.22 318.108C1223.6 319.758 1262.76 321.268 1296.43 314.111C1330.09 306.954 1327.88 277.627 1322.58 263.858" stroke="#79509A" stroke-width="20.6171"/>
<path d="M64.4982 167.565C89.2267 187.937 145.205 222.425 171.291 197.396C197.377 172.368 195.747 133.449 191.672 117.118C189.325 103.638 177.599 83.405 149.465 110.309C121.331 137.213 153.128 153.95 172.543 158.956C187.918 160.605 227.085 162.115 260.745 154.959C294.406 147.802 292.205 118.474 286.897 104.705" stroke="#79509A" stroke-width="20.6171"/>
<path d="M491.179 828.065C515.908 848.437 571.886 882.926 597.973 857.897C624.059 832.868 622.429 793.949 618.353 777.618C616.006 764.138 604.28 743.905 576.146 770.809C548.012 797.713 579.809 814.45 599.224 819.456C614.6 821.105 653.766 822.616 687.427 815.459C721.088 808.302 718.886 778.974 713.578 765.205" stroke="#79509A" stroke-width="20.6171"/>
<path d="M1294.4 780.145L1325.86 782.247L1325.52 810.864L1293.85 826.448L1274.61 807.463L1294.4 780.145Z" fill="#CA4871"/>
<path d="M1332.33 164.919L1363.79 167.021L1363.46 195.638L1331.78 211.222L1312.55 192.237L1332.33 164.919Z" fill="#CA4871"/>
<path d="M229.161 571.135L260.624 573.237L260.287 601.854L228.616 617.438L209.379 598.453L229.161 571.135Z" fill="#CA4871"/>
<path d="M420.509 739.472C420.509 733.41 420.71 727.335 420.509 721.274C420.091 708.675 409.54 701.079 395.225 692.342C380.429 683.312 361.564 676.525 339.78 676.525C313.517 676.525 290.064 682.598 269.887 692.129" stroke="#843D5B" stroke-width="20.6171" stroke-linecap="square"/>
<path d="M1114.04 99.9575C1117.22 96.6722 1122.59 100.229 1120.8 104.436L1107.32 136.187C1106.23 138.737 1107.92 141.608 1110.68 141.899L1145.75 145.601C1150.33 146.085 1150.79 152.586 1146.31 153.703L1113.27 161.946C1110.49 162.641 1109.25 165.9 1110.87 168.272L1130.3 196.737C1132.91 200.564 1128.2 205.125 1124.46 202.391L1096.2 181.737C1093.92 180.069 1090.67 181.14 1089.83 183.839L1079.69 216.353C1078.33 220.729 1071.91 219.946 1071.64 215.371L1069.56 180.396C1069.4 177.656 1066.65 175.836 1064.06 176.755L1031.05 188.474C1026.73 190.007 1023.5 184.404 1027 181.442L1052.99 159.429C1055.15 157.602 1054.87 154.196 1052.44 152.744L1022.41 134.774C1018.43 132.395 1020.8 126.279 1025.34 127.193L1059.13 133.99C1061.94 134.556 1064.46 132.144 1064.01 129.307L1058.73 95.6692C1058.01 91.1133 1064.17 88.9969 1066.41 93.0317L1083.49 123.881C1084.83 126.305 1088.13 126.742 1090.06 124.75L1114.04 99.9575Z" fill="#E25581"/>
<path d="M491.593 64.2048C494.771 60.9194 500.138 64.476 498.352 68.6833L484.869 100.434C483.787 102.984 485.477 105.855 488.232 106.146L523.298 109.848C527.884 110.333 528.338 116.833 523.864 117.95L490.825 126.193C488.039 126.889 486.799 130.147 488.418 132.519L507.849 160.984C510.461 164.811 505.75 169.372 502.01 166.638L473.753 145.985C471.47 144.317 468.225 145.387 467.383 148.086L457.243 180.601C455.879 184.977 449.463 184.194 449.191 179.618L447.112 144.643C446.949 141.903 444.204 140.084 441.616 141.002L408.598 152.721C404.278 154.255 401.056 148.651 404.554 145.689L430.544 123.677C432.701 121.85 432.422 118.443 429.996 116.992L399.961 99.0209C395.985 96.6421 398.35 90.5263 402.892 91.4401L436.68 98.2374C439.495 98.8037 442.012 96.3913 441.566 93.5547L436.279 59.9164C435.563 55.3606 441.726 53.2442 443.96 57.2789L461.039 88.1279C462.38 90.5518 465.683 90.989 467.61 88.9976L491.593 64.2048Z" fill="#E25581"/>
<path d="M423.108 159.22L485.444 156.923L499.626 215.715L446.055 254.348L398.765 219.432L423.108 159.22Z" fill="#CA4871"/>
<path d="M1140.78 159.389L1203.12 157.092L1217.3 215.884L1163.73 254.517L1116.44 219.601L1140.78 159.389Z" fill="#833B59"/>
<path d="M825.006 781.888L887.342 779.591L901.524 838.383L847.953 877.016L800.662 842.1L825.006 781.888Z" fill="#CA4871"/>
<path d="M1001.92 93.3446C1001.92 113.146 1001.73 130.02 985.433 146.547C972.946 159.206 956.759 170.653 939.813 179.224C926.551 185.932 912.221 186.812 897.024 187.866C883.159 188.828 868.368 190.291 854.569 188.001C843.245 186.121 836.044 181.795 826.598 177.198" stroke="#843D5B" stroke-width="25.7714" stroke-linecap="square"/>
<path d="M938.999 885.64C931.877 866.741 925.981 850.59 935.596 830.781C942.961 815.607 954.293 800.673 967.384 788.297C977.63 778.612 990.99 774.224 1005.12 769.455C1018 765.104 1031.59 760.045 1045.59 758.815C1057.07 757.805 1065.5 760.151 1076.17 762.2" stroke="#843D5B" stroke-width="25.7714" stroke-linecap="square"/>
</svg>
