<svg width="1120" height="622" viewBox="0 0 1120 622" fill="none" xmlns="http://www.w3.org/2000/svg">
<path d="M124.025 418.252C126.326 415.832 130.239 418.47 128.946 421.568L116.952 450.298C116.167 452.178 117.407 454.303 119.414 454.519L150.689 457.878C154.022 458.236 154.38 463.024 151.136 463.848L121.464 471.378C119.451 471.889 118.562 474.278 119.735 476.026L137.21 502.066C139.108 504.893 135.697 508.235 132.977 506.213L107.643 487.378C105.984 486.144 103.63 486.922 103.022 488.906L93.9601 518.464C92.9723 521.686 88.3072 521.082 88.11 517.707L86.2622 486.087C86.1437 484.059 84.1355 482.706 82.253 483.385L52.9066 493.98C49.7737 495.111 47.4084 490.977 49.9405 488.795L73.1676 468.785C74.7266 467.442 74.514 464.934 72.7501 463.86L45.8223 447.472C42.9317 445.713 44.6271 441.215 47.9263 441.89L78.3133 448.108C80.3532 448.526 82.1693 446.762 81.847 444.677L77.0983 413.947C76.5792 410.588 81.054 409.056 82.677 412.038L97.9096 440.025C98.8873 441.822 101.294 442.154 102.691 440.686L124.025 418.252Z" fill="#9C1D4A"/>
<path d="M879.651 249.532C881.952 247.112 885.865 249.75 884.571 252.848L872.578 281.577C871.793 283.458 873.032 285.583 875.039 285.799L906.315 289.157C909.647 289.515 910.005 294.304 906.761 295.127L877.09 302.658C875.076 303.169 874.188 305.558 875.361 307.306L892.836 333.346C894.733 336.173 891.322 339.515 888.603 337.493L863.269 318.658C861.609 317.424 859.256 318.202 858.647 320.186L849.586 349.744C848.598 352.966 843.933 352.362 843.735 348.987L841.888 317.367C841.769 315.339 839.761 313.985 837.878 314.665L808.532 325.26C805.399 326.391 803.034 322.257 805.566 320.075L828.793 300.065C830.352 298.722 830.139 296.214 828.376 295.14L801.448 278.752C798.557 276.992 800.253 272.495 803.552 273.17L833.939 279.388C835.979 279.805 837.795 278.042 837.473 275.957L832.724 245.227C832.205 241.868 836.68 240.336 838.302 243.318L853.535 271.305C854.513 273.101 856.92 273.434 858.316 271.965L879.651 249.532Z" fill="#9C1D4A"/>
<path d="M1043.18 444.558C1046.63 440.929 1052.5 444.885 1050.56 449.533L1042.52 468.802C1041.34 471.622 1043.2 474.81 1046.21 475.133L1067.04 477.371C1072.04 477.908 1072.58 485.091 1067.71 486.326L1048.31 491.25C1045.29 492.017 1043.96 495.6 1045.72 498.222L1057.1 515.185C1059.95 519.426 1054.83 524.438 1050.75 521.405L1034.11 509.032C1031.62 507.182 1028.09 508.349 1027.18 511.325L1021.17 530.909C1019.69 535.742 1012.69 534.836 1012.4 529.773L1011.15 508.517C1010.98 505.474 1007.96 503.444 1005.14 504.463L985.413 511.586C980.714 513.283 977.166 507.081 980.964 503.809L996.353 490.551C998.692 488.536 998.373 484.774 995.727 483.164L978.038 472.398C973.702 469.759 976.245 463.013 981.194 464.026L1000.99 468.076C1004.05 468.702 1006.77 466.057 1006.29 462.929L1003.18 442.835C1002.41 437.795 1009.12 435.498 1011.55 439.971L1021.7 458.614C1023.17 461.308 1026.78 461.807 1028.87 459.605L1043.18 444.558Z" fill="#9C1D4A"/>
<path d="M292.707 58.6602C296.159 55.0308 302.028 58.9868 300.088 63.6347L292.044 82.9036C290.866 85.7243 292.726 88.9121 295.737 89.2355L316.57 91.4729C321.568 92.0097 322.105 99.1926 317.24 100.428L297.837 105.352C294.816 106.119 293.484 109.702 295.243 112.324L306.627 129.287C309.473 133.528 304.357 138.54 300.277 135.507L283.635 123.134C281.146 121.284 277.616 122.451 276.704 125.427L270.7 145.011C269.218 149.844 262.22 148.938 261.924 143.875L260.682 122.619C260.504 119.576 257.492 117.546 254.668 118.566L234.941 125.688C230.241 127.385 226.693 121.183 230.491 117.911L245.88 104.653C248.219 102.638 247.9 98.8764 245.254 97.2661L227.565 86.5002C223.229 83.8613 225.772 77.1149 230.721 78.1276L250.516 82.1784C253.576 82.8045 256.3 80.1594 255.817 77.0315L252.712 56.9367C251.933 51.8973 258.645 49.6003 261.08 54.0731L271.226 72.716C272.693 75.4104 276.304 75.9091 278.398 73.7066L292.707 58.6602Z" fill="#9C1D4A"/>
<path d="M848.964 10.1387L880.295 17.6268L884.473 49.028L855.723 60.947L833.777 36.9121L848.964 10.1387Z" fill="#CA4871"/>
<path d="M547.359 59.8184L578.691 67.3065L582.868 98.7077L554.119 110.627L532.173 86.5918L547.359 59.8184Z" fill="#CA4871"/>
<path d="M91.494 39.7556L122.825 47.2437L127.003 78.645L98.2533 90.5639L76.3076 66.529L91.494 39.7556Z" fill="#CA4871"/>
<path d="M1072.18 561.392L1103.51 568.88L1107.69 600.281L1078.94 612.2L1056.99 588.165L1072.18 561.392Z" fill="#CA4871"/>
<path d="M218.869 454.39L250.2 461.878L254.378 493.279L225.628 505.198L203.683 481.163L218.869 454.39Z" fill="#CA4871"/>
</svg>
