<svg width="1334" height="254" viewBox="0 0 1334 254" fill="none" xmlns="http://www.w3.org/2000/svg">
<g clip-path="url(#clip0_128_8)">
<path d="M258.571 45.518C267.536 32.9249 273.267 18.0645 275.073 2.72644C280.971 4.68705 285.496 9.67907 288.079 15.3146C290.662 20.9501 291.535 27.2089 291.969 33.3874C292.317 38.3442 292.373 43.5021 290.385 48.0618C287.519 54.6273 280.239 59.001 273.075 58.4631C265.912 57.9252 259.368 52.5209 257.517 45.6035" fill="#A55151"/>
<path d="M64.5987 91.3209C61.4758 90.9438 58.3479 90.5869 55.1998 90.4361C51.6027 90.2652 48.0863 90.4713 44.5194 90.979C37.5926 91.9593 31.2106 95.2974 26.3422 100.294C21.8622 104.894 18.4316 110.575 15.9191 116.452C14.5368 119.694 13.3109 122.972 12.433 126.386C11.5552 129.799 10.9952 133.308 10.6219 136.817C9.84997 144.112 10.4301 151.582 12.1455 158.711C12.5087 160.214 13.7195 161.697 15.0413 162.466C16.3631 163.235 18.3862 163.587 19.8997 163.099C23.2395 162.024 25.1314 158.796 24.304 155.368C23.8398 153.442 23.4766 151.497 23.2042 149.531L23.4312 151.2C22.7148 145.866 22.7299 140.462 23.4312 135.128L23.2042 136.797C23.9307 131.468 25.3483 126.25 27.437 121.288L26.8013 122.791C28.6024 118.558 30.8625 114.486 33.6878 110.847L32.704 112.118C34.3436 110.022 36.185 108.097 38.2939 106.463L37.0175 107.443C38.6722 106.181 40.4582 105.136 42.3803 104.326L40.8719 104.96C43.2128 103.994 45.6748 103.391 48.1821 103.049L46.5072 103.276C52.5259 102.496 58.6052 103.165 64.5936 103.889C66.087 104.07 68.0394 103.059 69.0534 102.049C70.1482 100.958 70.9706 99.1684 70.8999 97.6049C70.8293 96.0414 70.2895 94.292 69.0534 93.1608L67.777 92.1805C66.7933 91.6125 65.7338 91.3259 64.5936 91.3209H64.5987Z" fill="#B16666"/>
<path d="M265.887 185.752H260.438C255.228 185.752 251.004 189.961 251.004 195.153V238.88C251.004 244.072 255.228 248.28 260.438 248.28H265.887C271.097 248.28 275.321 244.072 275.321 238.88V195.153C275.321 189.961 271.097 185.752 265.887 185.752Z" fill="#683737"/>
<path d="M129.056 184.797H123.607C118.397 184.797 114.173 189.006 114.173 194.198V237.924C114.173 243.116 118.397 247.325 123.607 247.325H129.056C134.266 247.325 138.49 243.116 138.49 237.924V194.198C138.49 189.006 134.266 184.797 129.056 184.797Z" fill="#683737"/>
<path d="M279.01 47.0464H74.9082C65.4487 47.0464 57.7803 54.6877 57.7803 64.1138V188.321C57.7803 197.747 65.4487 205.388 74.9082 205.388H279.01C288.469 205.388 296.138 197.747 296.138 188.321V64.1138C296.138 54.6877 288.469 47.0464 279.01 47.0464Z" fill="#FFDBDB"/>
<mask id="mask0_128_8" style="mask-type:luminance" maskUnits="userSpaceOnUse" x="57" y="47" width="240" height="159">
<path d="M279.007 47.0462H74.9052C65.4458 47.0462 57.7773 54.6875 57.7773 64.1136V188.321C57.7773 197.747 65.4458 205.388 74.9052 205.388H279.007C288.467 205.388 296.135 197.747 296.135 188.321V64.1136C296.135 54.6875 288.467 47.0462 279.007 47.0462Z" fill="white"/>
</mask>
<g mask="url(#mask0_128_8)">
<path d="M160.197 36.5593C163.663 38.6255 200.865 60.7854 194.625 89.34C190.967 106.091 173.279 120.805 156.222 121.006C130.21 121.313 118.979 87.7162 99.9444 91.9793C84.6882 95.3927 85.9545 118.302 69.4875 122.329C54.862 125.908 32.2855 113.109 27.7752 91.9793C23.5021 71.971 36.937 51.5957 50.947 48.4336C65.0479 45.2514 71.889 61.2831 86.7012 58.3322C103.224 55.0393 102.689 33.5078 121.128 27.3243C136.203 22.267 151.777 31.5472 160.192 36.5593H160.197Z" fill="#632A2A"/>
<path d="M231.221 66.1296C218.003 78.8635 210.986 101.486 219.371 113.36C224.829 121.092 231.433 116.633 243.814 125.169C261.27 137.199 259.02 153.553 271.218 156.906C281.672 159.776 293.633 150.597 299.365 143.624C313.667 126.205 308.96 98.3238 297.145 80.8945C287.943 67.321 268.62 51.5155 249.005 55.8037C239.889 57.7945 234.082 63.3897 231.231 66.1346L231.221 66.1296Z" fill="#632A2A"/>
<path d="M89.808 136.521C88.8797 147.746 97.1687 162.205 110.301 162.778C121.904 163.28 132.908 152.758 132.555 142.94C132.292 135.726 125.971 130.83 122.015 127.768C118.842 125.31 107.799 116.759 98.5914 121.348C90.8977 125.184 89.8938 135.5 89.808 136.521Z" fill="#632A2A"/>
<path d="M184.596 209.551C208.792 192.287 221.152 196.641 226.328 185.878C232.791 172.45 221.147 149.893 211.234 149.189C201.164 148.47 194.686 170.414 184.949 168.544C178.506 167.307 178.764 157.197 170.298 154.608C161.818 152.014 152.822 159.495 150.829 161.274C141.935 169.202 139.402 182.017 141.678 192.373C144.75 206.348 157.272 219.012 168.855 218.529C174.339 218.303 176.589 215.257 184.591 209.546L184.596 209.551Z" fill="#632A2A"/>
</g>
<path d="M57.7803 177.713H296.138V193.323C296.138 199.984 290.709 205.393 284.025 205.393H69.8934C63.2087 205.393 57.7803 199.984 57.7803 193.323V177.713Z" fill="#9A5F5F"/>
<path d="M262.058 77.6821H229.679C224.279 77.6821 219.901 82.0441 219.901 87.4249V148.797C219.901 154.178 224.279 158.54 229.679 158.54H262.058C267.458 158.54 271.835 154.178 271.835 148.797V87.4249C271.835 82.0441 267.458 77.6821 262.058 77.6821Z" fill="#9A5F5F"/>
<path d="M268.228 45.518C259.258 32.9249 253.527 18.0594 251.726 2.72644C245.828 4.68705 241.303 9.67907 238.72 15.3146C236.131 20.9501 235.264 27.2089 234.83 33.3874C234.482 38.3442 234.426 43.5021 236.414 48.0618C239.28 54.6273 246.56 59.001 253.723 58.4631C260.887 57.9252 267.431 52.5209 269.282 45.6035" fill="#DB6F6F"/>
<path d="M12.1408 157.404C7.95843 163.054 4.14943 168.971 0.744029 175.115C-0.214527 176.839 0.264751 179.307 2.10114 180.272C3.93754 181.238 6.25321 180.765 7.27735 178.92C10.6878 172.777 14.4917 166.86 18.6741 161.209C19.2189 160.47 19.2896 159.148 19.0575 158.304C18.8254 157.459 18.1393 156.479 17.317 156.051C16.4391 155.589 15.3746 155.358 14.4009 155.669C13.4272 155.981 12.7563 156.569 12.1408 157.404Z" fill="#632A2A"/>
<path d="M13.1605 159.998C11.8488 165.02 11.0466 170.183 10.7187 175.361C10.5926 177.331 12.55 179.217 14.5025 179.131C16.6617 179.036 18.15 177.472 18.2862 175.361C18.3972 173.581 18.5738 171.812 18.8059 170.047L18.6696 171.047C19.0833 168.001 19.6787 164.98 20.4556 162.004C20.955 160.098 19.825 157.821 17.812 157.363C15.799 156.906 13.6902 157.957 13.1554 159.998H13.1605Z" fill="#632A2A"/>
<path d="M15.3301 161.003V181.393C15.3301 183.364 17.0706 185.254 19.1139 185.164C21.1571 185.073 22.8976 183.505 22.8976 181.393V161.003C22.8976 159.032 21.1571 157.142 19.1139 157.232C17.0706 157.323 15.3301 158.891 15.3301 161.003Z" fill="#632A2A"/>
<path d="M16.526 159.455C18.6449 164.969 20.7689 170.479 22.8878 175.994C23.251 176.934 23.7252 177.719 24.6283 178.246C25.4406 178.719 26.6362 178.92 27.5443 178.628C29.3404 178.05 30.9447 175.964 30.1879 173.988C28.069 168.473 25.9451 162.964 23.8261 157.449C23.4629 156.509 22.9887 155.724 22.0856 155.197C21.2734 154.724 20.0777 154.523 19.1696 154.815C17.3736 155.393 15.7692 157.479 16.526 159.455Z" fill="#632A2A"/>
<path d="M19.2855 160.304C19.6689 160.767 20.0473 161.234 20.4257 161.702C20.6124 161.938 20.799 162.174 20.9857 162.411C21.0765 162.531 21.1724 162.647 21.2632 162.768L20.9453 162.36C21.6466 163.24 22.3075 164.16 22.9684 165.075C24.3053 166.935 25.5817 168.846 26.7925 170.791C29.194 174.652 31.3331 178.679 33.2048 182.821C33.568 183.631 34.6477 184.329 35.4649 184.556C36.3731 184.802 37.5788 184.691 38.381 184.174C39.1831 183.656 39.8995 182.882 40.1215 181.921C40.3586 180.876 40.177 179.991 39.7381 179.016C35.8282 170.344 30.6974 162.305 24.6333 154.97C24.0531 154.267 22.8322 153.865 21.9594 153.865C21.0311 153.865 19.9212 154.277 19.2855 154.97C18.6499 155.664 18.1302 156.634 18.1756 157.635C18.221 158.635 18.6145 159.49 19.2855 160.299V160.304Z" fill="#632A2A"/>
<path d="M231.308 189.432H225.859C220.649 189.432 216.425 193.641 216.425 198.833V242.559C216.425 247.751 220.649 251.96 225.859 251.96H231.308C236.518 251.96 240.742 247.751 240.742 242.559V198.833C240.742 193.641 236.518 189.432 231.308 189.432Z" fill="#B16666"/>
<path d="M239.99 233.581C232.14 233.852 224.28 233.702 216.425 233.742V244.334C216.425 249.527 220.648 253.735 225.859 253.735H231.308C236.519 253.735 240.742 249.527 240.742 244.334V233.551C240.495 233.561 240.242 233.571 239.995 233.581H239.99Z" fill="#DB6F6F"/>
<path d="M95.4854 188.477H90.0367C84.8264 188.477 80.6025 192.686 80.6025 197.878V241.604C80.6025 246.796 84.8264 251.005 90.0367 251.005H95.4854C100.696 251.005 104.92 246.796 104.92 241.604V197.878C104.92 192.686 100.696 188.477 95.4854 188.477Z" fill="#B16666"/>
<path d="M104.168 230.851C96.3178 231.122 88.4577 230.972 80.6025 231.012V241.604C80.6025 246.797 84.8252 251.005 90.0367 251.005H95.4854C100.697 251.005 104.92 246.797 104.92 241.604V230.821C104.672 230.831 104.42 230.841 104.173 230.851H104.168Z" fill="#DB6F6F"/>
<path d="M137.743 227.171C129.893 227.442 122.033 227.292 114.178 227.332V237.924C114.178 243.117 118.4 247.325 123.612 247.325H129.061C134.272 247.325 138.495 243.117 138.495 237.924V227.141C138.248 227.151 137.995 227.161 137.748 227.171H137.743Z" fill="#A55151"/>
<path d="M274.569 228.126C266.719 228.398 258.859 228.247 251.004 228.287V238.879C251.004 244.073 255.227 248.28 260.438 248.28H265.887C271.098 248.28 275.321 244.073 275.321 238.879V228.096C275.074 228.106 274.821 228.116 274.574 228.126H274.569Z" fill="#A55151"/>
</g>
<g clip-path="url(#clip1_128_8)">
<path d="M592.353 45.518C601.318 32.9249 607.049 18.0645 608.856 2.72644C614.753 4.68705 619.279 9.67907 621.862 15.3146C624.445 20.9501 625.317 27.2089 625.751 33.3874C626.099 38.3442 626.155 43.5021 624.167 48.0618C621.302 54.6273 614.022 59.001 606.858 58.4631C599.694 57.9252 593.15 52.5209 591.299 45.6035" fill="#A55151"/>
<path d="M398.382 91.3209C395.259 90.9438 392.131 90.5869 388.983 90.4361C385.386 90.2652 381.869 90.4713 378.303 90.979C371.376 91.9593 364.994 95.2974 360.125 100.294C355.645 104.894 352.215 110.575 349.702 116.452C348.32 119.694 347.094 122.972 346.216 126.386C345.338 129.799 344.778 133.308 344.405 136.817C343.633 144.112 344.213 151.582 345.929 158.711C346.292 160.214 347.503 161.697 348.825 162.466C350.146 163.235 352.169 163.587 353.683 163.099C357.023 162.024 358.915 158.796 358.087 155.368C357.623 153.442 357.26 151.497 356.987 149.531L357.214 151.2C356.498 145.866 356.513 140.462 357.214 135.128L356.987 136.797C357.714 131.468 359.132 126.25 361.22 121.288L360.584 122.791C362.386 118.558 364.646 114.486 367.471 110.847L366.487 112.118C368.127 110.022 369.968 108.097 372.077 106.463L370.801 107.443C372.455 106.181 374.241 105.136 376.164 104.326L374.655 104.96C376.996 103.994 379.458 103.391 381.965 103.049L380.29 103.276C386.309 102.496 392.388 103.165 398.377 103.889C399.87 104.07 401.823 103.059 402.837 102.049C403.931 100.958 404.754 99.1684 404.683 97.6049C404.612 96.0414 404.073 94.292 402.837 93.1608L401.56 92.1805C400.576 91.6125 399.517 91.3259 398.377 91.3209H398.382Z" fill="#B16666"/>
<path d="M599.669 185.752H594.22C589.01 185.752 584.786 189.961 584.786 195.153V238.88C584.786 244.072 589.01 248.28 594.22 248.28H599.669C604.879 248.28 609.103 244.072 609.103 238.88V195.153C609.103 189.961 604.879 185.752 599.669 185.752Z" fill="#683737"/>
<path d="M462.838 184.797H457.389C452.179 184.797 447.955 189.006 447.955 194.198V237.924C447.955 243.116 452.179 247.325 457.389 247.325H462.838C468.048 247.325 472.272 243.116 472.272 237.924V194.198C472.272 189.006 468.048 184.797 462.838 184.797Z" fill="#683737"/>
<path d="M612.791 47.0464H408.689C399.23 47.0464 391.562 54.6877 391.562 64.1138V188.321C391.562 197.747 399.23 205.388 408.689 205.388H612.791C622.251 205.388 629.919 197.747 629.919 188.321V64.1138C629.919 54.6877 622.251 47.0464 612.791 47.0464Z" fill="#FFDBDB"/>
<mask id="mask1_128_8" style="mask-type:luminance" maskUnits="userSpaceOnUse" x="391" y="47" width="239" height="159">
<path d="M612.791 47.0464H408.689C399.23 47.0464 391.562 54.6877 391.562 64.1138V188.321C391.562 197.747 399.23 205.388 408.689 205.388H612.791C622.251 205.388 629.919 197.747 629.919 188.321V64.1138C629.919 54.6877 622.251 47.0464 612.791 47.0464Z" fill="white"/>
</mask>
<g mask="url(#mask1_128_8)">
<path d="M493.981 36.5594C497.447 38.6256 534.649 60.7855 528.409 89.34C524.751 106.091 507.063 120.805 490.006 121.006C463.994 121.313 452.763 87.7162 433.729 91.9793C418.472 95.3928 419.739 118.302 403.272 122.329C388.646 125.908 366.07 113.109 361.559 91.9793C357.286 71.971 370.721 51.5958 384.731 48.4336C398.832 45.2514 405.673 61.2832 420.485 58.3322C437.008 55.0394 436.473 33.5079 454.913 27.3244C469.987 22.267 485.561 31.5473 493.976 36.5594H493.981Z" fill="#632A2A"/>
<path d="M565.005 66.1296C551.787 78.8636 544.769 101.486 553.154 113.36C558.613 121.092 565.216 116.633 577.597 125.169C595.053 137.199 592.803 153.553 605.002 156.906C615.455 159.776 627.417 150.597 633.148 143.624C647.45 126.205 642.743 98.3239 630.928 80.8945C621.726 67.3211 602.403 51.5155 582.788 55.8038C573.672 57.7945 567.865 63.3898 565.015 66.1347L565.005 66.1296Z" fill="#632A2A"/>
<path d="M423.593 136.521C422.665 147.746 430.954 162.205 444.086 162.778C455.69 163.28 466.693 152.759 466.34 142.94C466.077 135.726 459.756 130.83 455.801 127.768C452.627 125.31 441.584 116.759 432.377 121.349C424.683 125.184 423.679 135.5 423.593 136.521Z" fill="#632A2A"/>
<path d="M518.38 209.551C542.576 192.287 554.936 196.641 560.113 185.878C566.575 172.45 554.931 149.893 545.018 149.189C534.948 148.47 528.47 170.414 518.733 168.544C512.291 167.307 512.548 157.197 504.082 154.608C495.602 152.014 486.606 159.495 484.614 161.274C475.719 169.202 473.187 182.017 475.462 192.373C478.534 206.348 491.056 219.012 502.64 218.529C508.123 218.303 510.374 215.257 518.375 209.546L518.38 209.551Z" fill="#632A2A"/>
</g>
<path d="M391.562 177.713H629.919V193.323C629.919 199.984 624.491 205.393 617.806 205.393H403.675C396.99 205.393 391.562 199.984 391.562 193.323V177.713Z" fill="#9A5F5F"/>
<path d="M595.839 77.6821H563.46C558.06 77.6821 553.683 82.0441 553.683 87.4249V148.797C553.683 154.178 558.06 158.54 563.46 158.54H595.839C601.239 158.54 605.616 154.178 605.616 148.797V87.4249C605.616 82.0441 601.239 77.6821 595.839 77.6821Z" fill="#9A5F5F"/>
<path d="M602.009 45.518C593.039 32.9249 587.308 18.0594 585.507 2.72644C579.609 4.68705 575.084 9.67907 572.501 15.3146C569.913 20.9501 569.045 27.2089 568.611 33.3874C568.263 38.3442 568.207 43.5021 570.195 48.0618C573.061 54.6273 580.341 59.001 587.505 58.4631C594.669 57.9252 601.212 52.5209 603.064 45.6035" fill="#DB6F6F"/>
<path d="M345.924 157.404C341.742 163.054 337.933 168.971 334.527 175.115C333.569 176.839 334.048 179.307 335.884 180.272C337.721 181.238 340.036 180.765 341.061 178.92C344.471 172.777 348.275 166.86 352.457 161.209C353.002 160.47 353.073 159.148 352.841 158.304C352.609 157.459 351.923 156.479 351.1 156.051C350.222 155.589 349.158 155.358 348.184 155.669C347.21 155.981 346.539 156.569 345.924 157.404Z" fill="#632A2A"/>
<path d="M346.943 159.998C345.631 165.02 344.829 170.183 344.501 175.361C344.375 177.331 346.332 179.217 348.285 179.131C350.444 179.036 351.932 177.472 352.068 175.361C352.179 173.581 352.356 171.812 352.588 170.047L352.452 171.047C352.866 168.001 353.461 164.98 354.238 162.004C354.737 160.098 353.607 157.821 351.594 157.363C349.581 156.906 347.472 157.957 346.938 159.998H346.943Z" fill="#632A2A"/>
<path d="M349.112 161.003V181.393C349.112 183.364 350.853 185.254 352.896 185.164C354.939 185.073 356.68 183.505 356.68 181.393V161.003C356.68 159.032 354.939 157.142 352.896 157.232C350.853 157.323 349.112 158.891 349.112 161.003Z" fill="#632A2A"/>
<path d="M350.307 159.455C352.426 164.969 354.55 170.479 356.669 175.994C357.032 176.934 357.506 177.719 358.41 178.246C359.222 178.719 360.417 178.92 361.326 178.628C363.122 178.05 364.726 175.964 363.969 173.988C361.85 168.473 359.726 162.964 357.607 157.449C357.244 156.509 356.77 155.724 355.867 155.197C355.055 154.724 353.859 154.523 352.951 154.815C351.155 155.393 349.55 157.479 350.307 159.455Z" fill="#632A2A"/>
<path d="M353.068 160.304C353.451 160.767 353.83 161.234 354.208 161.702C354.395 161.938 354.581 162.174 354.768 162.411C354.859 162.531 354.955 162.647 355.045 162.768L354.728 162.36C355.429 163.24 356.09 164.16 356.751 165.075C358.088 166.935 359.364 168.846 360.575 170.791C362.976 174.652 365.115 178.679 366.987 182.821C367.35 183.631 368.43 184.329 369.247 184.556C370.155 184.802 371.361 184.691 372.163 184.174C372.965 183.656 373.682 182.882 373.904 181.921C374.141 180.876 373.959 179.991 373.52 179.016C369.61 170.344 364.48 162.305 358.415 154.97C357.835 154.267 356.614 153.865 355.742 153.865C354.813 153.865 353.703 154.277 353.068 154.97C352.432 155.664 351.912 156.634 351.958 157.635C352.003 158.635 352.397 159.49 353.068 160.299V160.304Z" fill="#632A2A"/>
<path d="M565.091 189.432H559.642C554.432 189.432 550.208 193.641 550.208 198.833V242.559C550.208 247.751 554.432 251.96 559.642 251.96H565.091C570.301 251.96 574.525 247.751 574.525 242.559V198.833C574.525 193.641 570.301 189.432 565.091 189.432Z" fill="#B16666"/>
<path d="M573.773 233.581C565.923 233.852 558.063 233.702 550.208 233.742V244.334C550.208 249.527 554.431 253.735 559.642 253.735H565.091C570.302 253.735 574.525 249.527 574.525 244.334V233.551C574.278 233.561 574.026 233.571 573.778 233.581H573.773Z" fill="#DB6F6F"/>
<path d="M429.268 188.477H423.819C418.609 188.477 414.385 192.686 414.385 197.878V241.604C414.385 246.796 418.609 251.005 423.819 251.005H429.268C434.478 251.005 438.702 246.796 438.702 241.604V197.878C438.702 192.686 434.478 188.477 429.268 188.477Z" fill="#B16666"/>
<path d="M437.95 230.851C430.1 231.122 422.24 230.972 414.385 231.012V241.604C414.385 246.797 418.607 251.005 423.819 251.005H429.268C434.479 251.005 438.702 246.797 438.702 241.604V230.821C438.455 230.831 438.202 230.841 437.955 230.851H437.95Z" fill="#DB6F6F"/>
<path d="M471.525 227.171C463.675 227.442 455.815 227.292 447.96 227.332V237.924C447.96 243.117 452.183 247.325 457.394 247.325H462.843C468.054 247.325 472.277 243.117 472.277 237.924V227.141C472.03 227.151 471.778 227.161 471.53 227.171H471.525Z" fill="#A55151"/>
<path d="M608.351 228.126C600.501 228.398 592.641 228.247 584.786 228.287V238.879C584.786 244.073 589.009 248.28 594.22 248.28H599.669C604.88 248.28 609.103 244.073 609.103 238.879V228.096C608.856 228.106 608.604 228.116 608.357 228.126H608.351Z" fill="#A55151"/>
</g>
<g clip-path="url(#clip2_128_8)">
<path d="M961.897 43.5312C970.862 30.938 976.593 16.0776 978.399 0.739563C984.297 2.70017 988.823 7.69219 991.406 13.3277C993.989 18.9632 994.861 25.2221 995.295 31.4005C995.643 36.3573 995.699 41.5152 993.711 46.0749C990.846 52.6405 983.566 57.0141 976.402 56.4762C969.238 55.9383 962.694 50.5341 960.843 43.6166" fill="#A55151"/>
<path d="M767.926 89.3341C764.803 88.9571 761.675 88.6002 758.527 88.4493C754.93 88.2784 751.413 88.4845 747.847 88.9923C740.92 89.9726 734.538 93.3107 729.669 98.3077C725.189 102.908 721.759 108.588 719.246 114.465C717.864 117.708 716.638 120.985 715.76 124.399C714.882 127.812 714.322 131.321 713.949 134.83C713.177 142.125 713.757 149.595 715.473 156.724C715.836 158.227 717.047 159.71 718.368 160.479C719.69 161.248 721.713 161.6 723.227 161.113C726.567 160.037 728.459 156.809 727.631 153.381C727.167 151.455 726.804 149.51 726.531 147.544L726.758 149.213C726.042 143.879 726.057 138.475 726.758 133.141L726.531 134.81C727.258 129.481 728.675 124.263 730.764 119.301L730.128 120.804C731.93 116.572 734.19 112.5 737.015 108.86L736.031 110.132C737.671 108.035 739.512 106.11 741.621 104.476L740.345 105.456C741.999 104.195 743.785 103.149 745.707 102.34L744.199 102.973C746.54 102.008 749.002 101.404 751.509 101.063L749.834 101.289C755.853 100.51 761.932 101.178 767.921 101.902C769.414 102.083 771.367 101.073 772.381 100.062C773.475 98.9713 774.298 97.1816 774.227 95.6181C774.156 94.0547 773.617 92.3052 772.381 91.1741L771.104 90.1938C770.12 89.6257 769.061 89.3392 767.921 89.3341H767.926Z" fill="#B16666"/>
<path d="M969.213 183.765H963.764C958.554 183.765 954.33 187.974 954.33 193.166V236.893C954.33 242.085 958.554 246.294 963.764 246.294H969.213C974.423 246.294 978.647 242.085 978.647 236.893V193.166C978.647 187.974 974.423 183.765 969.213 183.765Z" fill="#683737"/>
<path d="M832.382 182.81H826.933C821.723 182.81 817.499 187.019 817.499 192.211V235.938C817.499 241.13 821.723 245.338 826.933 245.338H832.382C837.592 245.338 841.816 241.13 841.816 235.938V192.211C841.816 187.019 837.592 182.81 832.382 182.81Z" fill="#683737"/>
<path d="M982.336 45.0596H778.234C768.775 45.0596 761.106 52.7009 761.106 62.1269V186.334C761.106 195.76 768.775 203.402 778.234 203.402H982.336C991.796 203.402 999.464 195.76 999.464 186.334V62.1269C999.464 52.7009 991.796 45.0596 982.336 45.0596Z" fill="#FFDBDB"/>
<mask id="mask2_128_8" style="mask-type:luminance" maskUnits="userSpaceOnUse" x="761" y="45" width="239" height="159">
<path d="M982.336 45.0594H778.234C768.775 45.0594 761.106 52.7008 761.106 62.1268V186.334C761.106 195.76 768.775 203.401 778.234 203.401H982.336C991.796 203.401 999.464 195.76 999.464 186.334V62.1268C999.464 52.7008 991.796 45.0594 982.336 45.0594Z" fill="white"/>
</mask>
<g mask="url(#mask2_128_8)">
<path d="M863.525 34.5723C866.991 36.6385 904.193 58.7984 897.953 87.353C894.295 104.104 876.607 118.818 859.55 119.019C833.538 119.326 822.307 85.7292 803.273 89.9923C788.016 93.4057 789.283 116.315 772.816 120.342C758.19 123.921 735.614 111.122 731.103 89.9923C726.83 69.984 740.265 49.6087 754.275 46.4466C768.376 43.2644 775.217 59.2961 790.029 56.3452C806.552 53.0523 806.017 31.5208 824.457 25.3373C839.531 20.28 855.105 29.5602 863.52 34.5723H863.525Z" fill="#632A2A"/>
<path d="M934.549 64.1425C921.331 76.8764 914.314 99.4989 922.699 111.373C928.157 119.105 934.761 114.646 947.142 123.182C964.598 135.212 962.348 151.566 974.547 154.919C985 157.789 996.962 148.61 1002.69 141.637C1017 124.218 1012.29 96.3368 1000.47 78.9074C991.271 65.334 971.948 49.5284 952.333 53.8166C943.217 55.8074 937.41 61.4027 934.56 64.1475L934.549 64.1425Z" fill="#632A2A"/>
<path d="M793.137 134.533C792.209 145.759 800.498 160.217 813.63 160.791C825.234 161.293 836.237 150.771 835.884 140.953C835.621 133.739 829.3 128.843 825.345 125.781C822.171 123.323 811.128 114.772 801.92 119.361C794.227 123.197 793.223 133.513 793.137 134.533Z" fill="#632A2A"/>
<path d="M887.923 207.564C912.119 190.3 924.479 194.654 929.656 183.891C936.118 170.463 924.474 147.906 914.561 147.202C904.491 146.483 898.013 168.427 888.276 166.557C881.834 165.32 882.091 155.21 873.625 152.621C865.145 150.027 856.149 157.508 854.157 159.287C845.262 167.215 842.73 180.03 845.005 190.386C848.077 204.361 860.599 217.025 872.182 216.542C877.666 216.316 879.917 213.27 887.918 207.559L887.923 207.564Z" fill="#632A2A"/>
</g>
<path d="M761.106 175.727H999.464V191.336C999.464 197.997 994.036 203.406 987.351 203.406H773.22C766.535 203.406 761.106 197.997 761.106 191.336V175.727Z" fill="#9A5F5F"/>
<path d="M965.383 75.6954H933.004C927.604 75.6954 923.227 80.0573 923.227 85.4381V146.81C923.227 152.191 927.604 156.553 933.004 156.553H965.383C970.783 156.553 975.16 152.191 975.16 146.81V85.4381C975.16 80.0573 970.783 75.6954 965.383 75.6954Z" fill="#9A5F5F"/>
<path d="M971.553 43.5312C962.583 30.938 956.852 16.0725 955.051 0.739563C949.153 2.70017 944.628 7.69219 942.045 13.3277C939.457 18.9632 938.589 25.2221 938.155 31.4005C937.807 36.3573 937.751 41.5152 939.739 46.0749C942.605 52.6405 949.885 57.0141 957.049 56.4762C964.213 55.9383 970.756 50.5341 972.608 43.6166" fill="#DB6F6F"/>
<path d="M715.468 155.417C711.286 161.067 707.477 166.984 704.071 173.128C703.113 174.852 703.592 177.32 705.428 178.286C707.265 179.251 709.58 178.778 710.604 176.933C714.015 170.79 717.819 164.873 722.001 159.222C722.546 158.483 722.617 157.161 722.385 156.317C722.153 155.472 721.466 154.492 720.644 154.065C719.766 153.602 718.702 153.371 717.728 153.682C716.754 153.994 716.083 154.582 715.468 155.417Z" fill="#632A2A"/>
<path d="M716.488 158.011C715.176 163.033 714.374 168.196 714.046 173.374C713.92 175.345 715.877 177.23 717.83 177.144C719.989 177.049 721.477 175.485 721.613 173.374C721.724 171.594 721.901 169.825 722.133 168.06L721.997 169.061C722.41 166.014 723.006 162.993 723.783 160.017C724.282 158.111 723.152 155.834 721.139 155.377C719.126 154.919 717.017 155.97 716.483 158.011H716.488Z" fill="#632A2A"/>
<path d="M718.657 159.016V179.406C718.657 181.377 720.398 183.267 722.441 183.177C724.484 183.086 726.225 181.518 726.225 179.406V159.016C726.225 157.045 724.484 155.155 722.441 155.246C720.398 155.336 718.657 156.905 718.657 159.016Z" fill="#632A2A"/>
<path d="M719.851 157.468C721.97 162.983 724.094 168.492 726.213 174.007C726.576 174.947 727.05 175.732 727.954 176.26C728.766 176.732 729.961 176.933 730.87 176.642C732.666 176.063 734.27 173.977 733.513 172.001C731.394 166.487 729.27 160.977 727.151 155.462C726.788 154.522 726.314 153.738 725.411 153.21C724.599 152.737 723.403 152.536 722.495 152.828C720.699 153.406 719.094 155.492 719.851 157.468Z" fill="#632A2A"/>
<path d="M722.612 158.318C722.995 158.78 723.373 159.248 723.752 159.715C723.939 159.951 724.125 160.188 724.312 160.424C724.403 160.545 724.499 160.66 724.589 160.781L724.272 160.374C724.973 161.253 725.634 162.173 726.295 163.088C727.632 164.948 728.908 166.859 730.119 168.804C732.52 172.665 734.659 176.692 736.531 180.834C736.894 181.644 737.974 182.343 738.791 182.569C739.699 182.815 740.905 182.705 741.707 182.187C742.509 181.669 743.226 180.895 743.448 179.935C743.685 178.889 743.503 178.004 743.064 177.029C739.154 168.357 734.024 160.318 727.959 152.984C727.379 152.28 726.158 151.878 725.286 151.878C724.357 151.878 723.247 152.29 722.612 152.984C721.976 153.677 721.456 154.648 721.502 155.648C721.547 156.649 721.941 157.503 722.612 158.313V158.318Z" fill="#632A2A"/>
<path d="M934.635 187.445H929.186C923.976 187.445 919.752 191.654 919.752 196.846V240.573C919.752 245.765 923.976 249.974 929.186 249.974H934.635C939.845 249.974 944.069 245.765 944.069 240.573V196.846C944.069 191.654 939.845 187.445 934.635 187.445Z" fill="#B16666"/>
<path d="M943.317 231.594C935.467 231.865 927.607 231.715 919.752 231.755V242.347C919.752 247.54 923.975 251.748 929.186 251.748H934.635C939.846 251.748 944.069 247.54 944.069 242.347V231.564C943.822 231.574 943.57 231.584 943.322 231.594H943.317Z" fill="#DB6F6F"/>
<path d="M798.813 186.49H793.364C788.154 186.49 783.93 190.699 783.93 195.891V239.617C783.93 244.809 788.154 249.018 793.364 249.018H798.813C804.023 249.018 808.247 244.809 808.247 239.617V195.891C808.247 190.699 804.023 186.49 798.813 186.49Z" fill="#B16666"/>
<path d="M807.495 228.864C799.645 229.136 791.785 228.985 783.93 229.025V239.617C783.93 244.81 788.152 249.018 793.364 249.018H798.813C804.024 249.018 808.247 244.81 808.247 239.617V228.834C808 228.844 807.747 228.854 807.5 228.864H807.495Z" fill="#DB6F6F"/>
<path d="M841.069 225.184C833.219 225.456 825.359 225.305 817.504 225.345V235.937C817.504 241.131 821.727 245.338 826.938 245.338H832.387C837.598 245.338 841.821 241.131 841.821 235.937V225.154C841.574 225.164 841.322 225.174 841.074 225.184H841.069Z" fill="#A55151"/>
<path d="M977.895 226.14C970.045 226.411 962.185 226.26 954.33 226.3V236.893C954.33 242.086 958.553 246.294 963.764 246.294H969.213C974.424 246.294 978.647 242.086 978.647 236.893V226.109C978.4 226.119 978.148 226.129 977.9 226.14H977.895Z" fill="#A55151"/>
</g>
<g clip-path="url(#clip3_128_8)">
<path d="M1283.76 43.5312C1292.72 30.938 1298.46 16.0776 1300.26 0.739563C1306.16 2.70017 1310.68 7.69219 1313.27 13.3277C1315.85 18.9632 1316.72 25.2221 1317.16 31.4005C1317.51 36.3573 1317.56 41.5152 1315.57 46.0749C1312.71 52.6405 1305.43 57.0141 1298.26 56.4762C1291.1 55.9383 1284.56 50.5341 1282.71 43.6166" fill="#A55151"/>
<path d="M1089.79 89.3341C1086.66 88.9571 1083.54 88.6002 1080.39 88.4493C1076.79 88.2784 1073.27 88.4845 1069.71 88.9923C1062.78 89.9726 1056.4 93.3107 1051.53 98.3077C1047.05 102.908 1043.62 108.588 1041.11 114.465C1039.73 117.708 1038.5 120.985 1037.62 124.399C1036.74 127.812 1036.18 131.321 1035.81 134.83C1035.04 142.125 1035.62 149.595 1037.33 156.724C1037.7 158.227 1038.91 159.71 1040.23 160.479C1041.55 161.248 1043.57 161.6 1045.09 161.113C1048.43 160.037 1050.32 156.809 1049.49 153.381C1049.03 151.455 1048.67 149.51 1048.39 147.544L1048.62 149.213C1047.9 143.879 1047.92 138.475 1048.62 133.141L1048.39 134.81C1049.12 129.481 1050.54 124.263 1052.63 119.301L1051.99 120.804C1053.79 116.572 1056.05 112.5 1058.88 108.86L1057.89 110.132C1059.53 108.035 1061.37 106.11 1063.48 104.476L1062.21 105.456C1063.86 104.195 1065.65 103.149 1067.57 102.34L1066.06 102.973C1068.4 102.008 1070.86 101.404 1073.37 101.063L1071.7 101.289C1077.71 100.51 1083.79 101.178 1089.78 101.902C1091.28 102.083 1093.23 101.073 1094.24 100.062C1095.34 98.9713 1096.16 97.1816 1096.09 95.6181C1096.02 94.0547 1095.48 92.3052 1094.24 91.1741L1092.97 90.1938C1091.98 89.6257 1090.92 89.3392 1089.78 89.3341H1089.79Z" fill="#B16666"/>
<path d="M1291.08 183.765H1285.63C1280.42 183.765 1276.19 187.974 1276.19 193.166V236.893C1276.19 242.085 1280.42 246.294 1285.63 246.294H1291.08C1296.29 246.294 1300.51 242.085 1300.51 236.893V193.166C1300.51 187.974 1296.29 183.765 1291.08 183.765Z" fill="#683737"/>
<path d="M1154.24 182.81H1148.79C1143.58 182.81 1139.36 187.019 1139.36 192.211V235.938C1139.36 241.13 1143.58 245.338 1148.79 245.338H1154.24C1159.45 245.338 1163.68 241.13 1163.68 235.938V192.211C1163.68 187.019 1159.45 182.81 1154.24 182.81Z" fill="#683737"/>
<path d="M1304.2 45.0596H1100.1C1090.64 45.0596 1082.97 52.7009 1082.97 62.1269V186.334C1082.97 195.76 1090.64 203.402 1100.1 203.402H1304.2C1313.66 203.402 1321.33 195.76 1321.33 186.334V62.1269C1321.33 52.7009 1313.66 45.0596 1304.2 45.0596Z" fill="#FFDBDB"/>
<mask id="mask3_128_8" style="mask-type:luminance" maskUnits="userSpaceOnUse" x="1082" y="45" width="240" height="159">
<path d="M1304.2 45.0594H1100.09C1090.64 45.0594 1082.97 52.7007 1082.97 62.1268V186.334C1082.97 195.76 1090.64 203.401 1100.09 203.401H1304.2C1313.66 203.401 1321.32 195.76 1321.32 186.334V62.1268C1321.32 52.7007 1313.66 45.0594 1304.2 45.0594Z" fill="white"/>
</mask>
<g mask="url(#mask3_128_8)">
<path d="M1185.38 34.5723C1188.85 36.6385 1226.05 58.7984 1219.81 87.353C1216.15 104.104 1198.47 118.818 1181.41 119.019C1155.4 119.326 1144.17 85.7292 1125.13 89.9923C1109.88 93.4057 1111.14 116.315 1094.68 120.342C1080.05 123.921 1057.47 111.122 1052.96 89.9923C1048.69 69.984 1062.12 49.6087 1076.13 46.4466C1090.24 43.2644 1097.08 59.2961 1111.89 56.3452C1128.41 53.0523 1127.88 31.5208 1146.32 25.3373C1161.39 20.28 1176.96 29.5602 1185.38 34.5723H1185.38Z" fill="#632A2A"/>
<path d="M1256.41 64.1425C1243.19 76.8764 1236.17 99.4989 1244.56 111.373C1250.02 119.105 1256.62 114.646 1269 123.182C1286.46 135.212 1284.21 151.566 1296.41 154.919C1306.86 157.789 1318.82 148.61 1324.55 141.637C1338.85 124.218 1334.15 96.3368 1322.33 78.9074C1313.13 65.334 1293.81 49.5284 1274.19 53.8166C1265.08 55.8074 1259.27 61.4027 1256.42 64.1475L1256.41 64.1425Z" fill="#632A2A"/>
<path d="M1115 134.533C1114.07 145.759 1122.36 160.217 1135.49 160.79C1147.09 161.293 1158.1 150.771 1157.74 140.953C1157.48 133.739 1151.16 128.843 1147.2 125.781C1144.03 123.323 1132.99 114.771 1123.78 119.361C1116.09 123.197 1115.08 133.513 1115 134.533Z" fill="#632A2A"/>
<path d="M1209.78 207.564C1233.98 190.3 1246.34 194.654 1251.52 183.89C1257.98 170.463 1246.33 147.906 1236.42 147.202C1226.35 146.483 1219.87 168.427 1210.14 166.557C1203.69 165.32 1203.95 155.21 1195.49 152.621C1187.01 150.027 1178.01 157.508 1176.02 159.287C1167.12 167.215 1164.59 180.03 1166.87 190.386C1169.94 204.361 1182.46 217.025 1194.04 216.542C1199.53 216.316 1201.78 213.269 1209.78 207.559L1209.78 207.564Z" fill="#632A2A"/>
</g>
<path d="M1082.97 175.727H1321.33V191.336C1321.33 197.997 1315.9 203.406 1309.21 203.406H1095.08C1088.4 203.406 1082.97 197.997 1082.97 191.336V175.727Z" fill="#9A5F5F"/>
<path d="M1287.25 75.6954H1254.87C1249.47 75.6954 1245.09 80.0573 1245.09 85.4381V146.81C1245.09 152.191 1249.47 156.553 1254.87 156.553H1287.25C1292.65 156.553 1297.02 152.191 1297.02 146.81V85.4381C1297.02 80.0573 1292.65 75.6954 1287.25 75.6954Z" fill="#9A5F5F"/>
<path d="M1293.41 43.5312C1284.44 30.938 1278.71 16.0725 1276.91 0.739563C1271.01 2.70017 1266.49 7.69219 1263.91 13.3277C1261.32 18.9632 1260.45 25.2221 1260.02 31.4005C1259.67 36.3573 1259.61 41.5152 1261.6 46.0749C1264.47 52.6405 1271.75 57.0141 1278.91 56.4762C1286.07 55.9383 1292.62 50.5341 1294.47 43.6166" fill="#DB6F6F"/>
<path d="M1037.33 155.417C1033.15 161.067 1029.34 166.984 1025.93 173.128C1024.97 174.852 1025.45 177.32 1027.29 178.286C1029.13 179.251 1031.44 178.778 1032.47 176.933C1035.88 170.79 1039.68 164.873 1043.86 159.222C1044.41 158.483 1044.48 157.161 1044.25 156.317C1044.01 155.472 1043.33 154.492 1042.51 154.065C1041.63 153.602 1040.56 153.371 1039.59 153.682C1038.62 153.994 1037.95 154.582 1037.33 155.417Z" fill="#632A2A"/>
<path d="M1038.35 158.011C1037.04 163.033 1036.24 168.196 1035.91 173.374C1035.78 175.345 1037.74 177.23 1039.69 177.144C1041.85 177.049 1043.34 175.485 1043.48 173.374C1043.59 171.594 1043.76 169.825 1044 168.06L1043.86 169.061C1044.27 166.014 1044.87 162.993 1045.65 160.017C1046.14 158.111 1045.01 155.834 1043 155.377C1040.99 154.919 1038.88 155.97 1038.34 158.011H1038.35Z" fill="#632A2A"/>
<path d="M1040.52 159.016V179.406C1040.52 181.377 1042.26 183.267 1044.3 183.177C1046.34 183.086 1048.09 181.518 1048.09 179.406V159.016C1048.09 157.045 1046.34 155.155 1044.3 155.246C1042.26 155.336 1040.52 156.905 1040.52 159.016Z" fill="#632A2A"/>
<path d="M1041.71 157.468C1043.83 162.983 1045.96 168.492 1048.08 174.007C1048.44 174.947 1048.91 175.732 1049.82 176.26C1050.63 176.732 1051.82 176.933 1052.73 176.642C1054.53 176.063 1056.13 173.977 1055.38 172.001C1053.26 166.487 1051.13 160.977 1049.01 155.462C1048.65 154.522 1048.18 153.738 1047.27 153.21C1046.46 152.737 1045.27 152.536 1044.36 152.828C1042.56 153.406 1040.96 155.492 1041.71 157.468Z" fill="#632A2A"/>
<path d="M1044.47 158.318C1044.86 158.78 1045.23 159.248 1045.61 159.715C1045.8 159.951 1045.99 160.188 1046.17 160.424C1046.26 160.545 1046.36 160.66 1046.45 160.781L1046.13 160.374C1046.83 161.253 1047.5 162.173 1048.16 163.088C1049.49 164.948 1050.77 166.859 1051.98 168.804C1054.38 172.665 1056.52 176.692 1058.39 180.834C1058.76 181.644 1059.84 182.343 1060.65 182.569C1061.56 182.815 1062.77 182.705 1063.57 182.187C1064.37 181.669 1065.09 180.895 1065.31 179.935C1065.55 178.889 1065.36 178.004 1064.93 177.029C1061.02 168.357 1055.88 160.318 1049.82 152.984C1049.24 152.28 1048.02 151.878 1047.15 151.878C1046.22 151.878 1045.11 152.29 1044.47 152.984C1043.84 153.677 1043.32 154.648 1043.36 155.648C1043.41 156.649 1043.8 157.503 1044.47 158.313V158.318Z" fill="#632A2A"/>
<path d="M1256.5 187.445H1251.05C1245.84 187.445 1241.61 191.654 1241.61 196.846V240.573C1241.61 245.765 1245.84 249.974 1251.05 249.974H1256.5C1261.71 249.974 1265.93 245.765 1265.93 240.573V196.846C1265.93 191.654 1261.71 187.445 1256.5 187.445Z" fill="#B16666"/>
<path d="M1265.18 231.594C1257.33 231.865 1249.47 231.715 1241.61 231.755V242.347C1241.61 247.54 1245.84 251.748 1251.05 251.748H1256.5C1261.71 251.748 1265.93 247.54 1265.93 242.347V231.564C1265.68 231.574 1265.43 231.584 1265.18 231.594H1265.18Z" fill="#DB6F6F"/>
<path d="M1120.67 186.49H1115.23C1110.01 186.49 1105.79 190.699 1105.79 195.891V239.617C1105.79 244.809 1110.01 249.018 1115.23 249.018H1120.67C1125.88 249.018 1130.11 244.809 1130.11 239.617V195.891C1130.11 190.699 1125.88 186.49 1120.67 186.49Z" fill="#B16666"/>
<path d="M1129.36 228.864C1121.51 229.136 1113.65 228.985 1105.79 229.025V239.617C1105.79 244.81 1110.01 249.018 1115.23 249.018H1120.67C1125.89 249.018 1130.11 244.81 1130.11 239.617V228.834C1129.86 228.844 1129.61 228.854 1129.36 228.864H1129.36Z" fill="#DB6F6F"/>
<path d="M1162.93 225.184C1155.08 225.456 1147.22 225.305 1139.37 225.345V235.937C1139.37 241.131 1143.59 245.338 1148.8 245.338H1154.25C1159.46 245.338 1163.68 241.131 1163.68 235.937V225.154C1163.44 225.164 1163.18 225.174 1162.94 225.184H1162.93Z" fill="#A55151"/>
<path d="M1299.76 226.14C1291.91 226.411 1284.05 226.26 1276.19 226.3V236.893C1276.19 242.086 1280.42 246.294 1285.63 246.294H1291.08C1296.29 246.294 1300.51 242.086 1300.51 236.893V226.109C1300.26 226.119 1300.01 226.129 1299.76 226.14H1299.76Z" fill="#A55151"/>
</g>
<defs>
<clipPath id="clip0_128_8">
<rect width="307.954" height="251.003" fill="white" transform="translate(0.260742 2.72632)"/>
</clipPath>
<clipPath id="clip1_128_8">
<rect width="307.954" height="251.003" fill="white" transform="translate(334.043 2.72632)"/>
</clipPath>
<clipPath id="clip2_128_8">
<rect width="307.954" height="251.003" fill="white" transform="translate(703.587 0.739502)"/>
</clipPath>
<clipPath id="clip3_128_8">
<rect width="307.954" height="251.003" fill="white" transform="translate(1025.45 0.739502)"/>
</clipPath>
</defs>
</svg>
