<svg width="430" height="292" viewBox="0 0 430 292" fill="none" xmlns="http://www.w3.org/2000/svg">
<g clip-path="url(#clip0_95_1199)">
<path d="M140.684 143.966C103.877 136.532 74.4737 106.073 71.6848 72.4846C66.8928 83.1175 66.0717 95.1412 69.3773 106.212C50.5279 94.8492 39.8821 74.091 40.6466 53.7988C41.411 33.5066 52.9132 14.0767 70.0002 0.676025C36.8951 7.1573 6.21786 30.113 1.48958 60.0645C-3.23871 89.9813 18.8951 119.453 48.1779 134.599C45.6934 135.142 42.9187 134.495 41.0501 132.937C50.4854 145.329 66.4964 152.937 83.0242 155.559C99.552 158.181 116.618 156.233 132.891 152.562C135.878 151.887 139.098 150.997 140.818 148.723C142.538 146.442 141.385 142.471 138.313 142.304" fill="#942929"/>
<path d="M166.194 208.946L133.202 208.946C128.41 208.946 124.524 212.764 124.524 217.472L124.524 277.785C124.524 285.483 130.887 291.742 138.73 291.742H166.201C170.993 291.742 174.879 287.924 174.879 283.216L174.879 217.479C174.879 212.771 170.993 208.953 166.201 208.953L166.194 208.946Z" fill="#942929"/>
<path d="M170.631 250.344L133.81 250.344C132.84 250.344 132.048 251.123 132.048 252.076V275.254C132.048 284.35 139.565 291.742 148.83 291.742H174.333C184.944 291.742 193.551 283.279 193.551 272.862C193.551 260.435 183.28 250.344 170.631 250.344Z" fill="#942929"/>
<path d="M341.459 208.946L308.468 208.946C303.676 208.946 299.79 212.764 299.79 217.472V277.785C299.79 285.484 306.153 291.742 313.996 291.742H341.467C346.259 291.742 350.145 287.925 350.145 283.217L350.145 217.479C350.145 212.771 346.259 208.953 341.467 208.953L341.459 208.946Z" fill="#942929"/>
<path d="M345.897 250.344L309.076 250.344C308.106 250.344 307.313 251.123 307.313 252.076V275.254C307.313 284.35 314.83 291.742 324.096 291.742H349.599C360.209 291.742 368.816 283.279 368.816 272.862C368.816 260.435 358.546 250.344 345.897 250.344Z" fill="#942929"/>
<path d="M370.324 17.3591C381.6 20.0504 392.882 22.7486 404.158 25.4399C408.709 26.5247 413.339 27.6443 417.359 30.0087C428.175 36.3718 431.983 50.7252 429.045 62.7698C426.108 74.8144 417.777 84.884 408.808 93.5906C398.651 103.452 387.347 112.158 375.3 119.683C361.625 128.222 345.231 135.455 329.61 131.199C324.025 129.676 318.752 126.616 315.319 122.026C309.826 114.676 309.783 104.773 310.647 95.6977C312.07 80.6976 315.34 65.8713 320.365 51.6431C322.524 45.5235 325.087 39.3899 329.39 34.4733C333.998 29.216 340.319 25.6972 346.774 22.8877C354.568 19.4941 362.941 16.9628 371.464 17.1783" fill="#631919"/>
<path d="M112.009 30.6416L365.97 30.6416C372.78 30.6416 378.301 36.0653 378.301 42.7557L378.301 207.068C378.301 213.759 372.78 219.183 365.97 219.183L112.009 219.183C105.199 219.183 99.6787 213.759 99.6787 207.068L99.6787 42.7557C99.6787 36.0653 105.199 30.6416 112.009 30.6416Z" fill="#AA5E79"/>
<path d="M378.301 198.188L99.6716 198.188V219.927C99.6716 224.795 103.699 228.751 108.654 228.751L369.311 228.751C374.266 228.751 378.294 224.795 378.294 219.927V198.188H378.301Z" fill="#703B4E"/>
<path d="M304.071 55.5652L326.757 55.5652C336.835 55.5652 345.005 63.5917 345.005 73.493L345.005 159.738C345.005 169.64 336.835 177.666 326.757 177.666H304.071C293.993 177.666 285.823 169.64 285.823 159.738L285.823 73.493C285.823 63.5917 293.993 55.5652 304.071 55.5652Z" fill="#703B4E"/>
<path d="M145.326 59.5291C145.326 57.3399 147.133 55.5652 149.361 55.5652C151.589 55.5652 153.396 57.3399 153.396 59.5291L153.396 173.702C153.396 175.892 151.589 177.666 149.361 177.666C147.133 177.666 145.326 175.892 145.326 173.702L145.326 59.5291Z" fill="#703B4E"/>
<path d="M130.943 96.1497C130.943 93.9605 132.75 92.1858 134.978 92.1858C137.206 92.1858 139.013 93.9605 139.013 96.1497L139.013 173.702C139.013 175.892 137.206 177.666 134.978 177.666C132.75 177.666 130.943 175.892 130.943 173.702L130.943 96.1497Z" fill="#703B4E"/>
<path d="M301.622 4.73047C313.231 4.64007 324.839 4.54271 336.44 4.45231C341.126 4.41754 345.89 4.38972 350.377 5.71796C362.453 9.2924 369.715 22.2967 369.857 34.689C369.998 47.0813 364.428 58.8338 357.894 69.4319C350.491 81.4278 341.699 92.5893 331.882 102.777C320.741 114.342 306.641 125.288 290.439 124.905C284.641 124.773 278.766 123.062 274.3 119.432C267.151 113.626 264.645 104.029 263.223 95.0232C260.873 80.1413 260.356 64.9743 261.694 49.9742C262.267 43.5207 263.223 36.956 266.181 31.1632C269.345 24.9601 274.597 20.0296 280.154 15.7598C286.871 10.5998 294.36 6.13521 302.677 4.29932" fill="#942929"/>
<path d="M420.653 133.042L423.78 155.938L402.743 167.699L386.614 152.071L397.683 130.652L420.653 133.042Z" fill="#D8366F"/>
<path d="M33.8793 184.222L52.3125 187.602L53.7948 205.607L36.2779 213.354L23.9694 200.137L33.8793 184.222Z" fill="#D8366F"/>
</g>
<defs>
<clipPath id="clip0_95_1199">
<rect width="429.149" height="291.066" fill="white" transform="matrix(-1 0 0 1 430.001 0.676025)"/>
</clipPath>
</defs>
</svg>
