<svg width="541" height="482" viewBox="0 0 541 482" fill="none" xmlns="http://www.w3.org/2000/svg">
<g clip-path="url(#clip0_95_40)">
<path d="M203.006 201.987C172.717 176.924 160.646 134.279 174.681 101.911C165.002 109.351 158.298 120.038 155.874 131.887C144.099 112.081 144.54 87.6638 155.28 69.3201C166.019 50.9765 186.241 38.7391 208.636 34.8266C174.881 24.4329 135.221 30.4393 116.047 55.7343C96.8906 80.9972 102.742 119.135 122.274 147.592C119.714 146.864 117.473 144.895 116.519 142.533C119.098 158.633 130.111 173.571 144.066 184.164C158.021 194.758 174.732 201.402 191.565 206.062C194.654 206.918 198.067 207.689 200.778 206.442C203.493 205.188 204.392 200.954 201.64 199.281" fill="#942929"/>
<path d="M194.415 274.555L163.97 258.237C159.548 255.867 154.074 257.468 151.746 261.811L121.922 317.457C118.115 324.559 120.892 333.481 128.13 337.36L153.479 350.946C157.901 353.317 163.375 351.716 165.703 347.373L198.21 286.722C200.538 282.379 198.84 276.935 194.418 274.564L194.415 274.555Z" fill="#942929"/>
<path d="M178.038 314.944L144.06 296.732C143.165 296.253 142.048 296.579 141.577 297.458L130.116 318.843C125.618 327.235 128.899 337.773 137.449 342.355L160.983 354.969C170.774 360.217 182.902 356.665 188.053 347.054C194.198 335.589 189.71 321.2 178.038 314.944Z" fill="#942929"/>
<path d="M356.149 361.239L325.704 344.921C321.282 342.551 315.808 344.152 313.48 348.495L283.656 404.141C279.849 411.243 282.626 420.165 289.863 424.044L315.213 437.631C319.635 440.001 325.109 438.4 327.437 434.057L359.944 373.407C362.272 369.063 360.574 363.619 356.152 361.249L356.149 361.239Z" fill="#942929"/>
<path d="M339.774 401.628L305.796 383.417C304.901 382.937 303.784 383.263 303.313 384.142L291.852 405.527C287.354 413.919 290.635 424.457 299.185 429.04L322.719 441.653C332.51 446.901 344.638 443.35 349.789 433.739C355.934 422.273 351.446 407.884 339.774 401.628Z" fill="#942929"/>
<path d="M477.523 198.755C486.597 206.815 495.674 214.885 504.749 222.945C508.412 226.197 512.13 229.519 514.671 233.689C521.505 244.909 517.922 260.035 509.255 269.695C500.589 279.354 487.921 284.524 475.34 288.121C461.091 292.195 446.354 294.637 431.517 295.621C414.674 296.736 395.971 295.301 383.659 283.648C379.259 279.481 375.906 274.05 375.007 268.117C373.574 258.619 378.431 249.461 383.716 241.516C392.446 228.38 402.795 216.319 414.468 205.677C419.487 201.099 424.884 196.707 431.287 194.3C438.138 191.728 445.711 191.608 453.058 192.209C461.927 192.932 470.906 194.738 478.664 199.152" fill="#631919"/>
<path d="M232.584 83.2506L466.938 208.857C473.222 212.225 475.634 219.959 472.326 226.132L391.075 377.728C387.767 383.901 379.991 386.175 373.706 382.807L139.353 257.2C133.068 253.832 130.656 246.098 133.964 239.925L215.215 88.3287C218.524 82.1561 226.3 79.8825 232.584 83.2506Z" fill="#AA5E79"/>
<path d="M395.467 369.535L138.35 231.728L127.6 251.784C125.193 256.276 126.953 261.918 131.525 264.369L372.058 393.287C376.63 395.738 382.304 394.079 384.711 389.588L395.46 369.532L395.467 369.535Z" fill="#703B4E"/>
<path d="M397.494 201.237L418.428 212.457C427.728 217.442 431.298 228.888 426.402 238.023L383.754 317.593C378.858 326.728 367.35 330.093 358.05 325.109L337.116 313.888C327.816 308.904 324.246 297.458 329.142 288.323L371.79 208.752C376.686 199.617 388.194 196.253 397.494 201.237Z" fill="#703B4E"/>
<path d="M249.045 126.381C250.128 124.361 252.672 123.617 254.729 124.719C256.785 125.821 257.574 128.352 256.492 130.372L200.034 235.709C198.952 237.729 196.407 238.473 194.351 237.371C192.295 236.269 191.505 233.738 192.588 231.718L249.045 126.381Z" fill="#703B4E"/>
<path d="M217.664 153.054C218.746 151.034 221.29 150.29 223.347 151.392C225.403 152.494 226.192 155.025 225.11 157.045L186.761 228.595C185.678 230.615 183.134 231.359 181.078 230.257C179.021 229.155 178.232 226.624 179.314 224.604L217.664 153.054Z" fill="#703B4E"/>
<path d="M420.371 153.125C431.128 158.783 441.888 164.435 452.639 170.089C456.98 172.375 461.389 174.705 464.874 178.15C474.25 187.42 474.521 203.01 468.523 214.513C462.526 226.016 451.574 234.104 440.305 240.651C427.541 248.057 413.909 254.006 399.812 258.55C383.812 263.709 365.388 266.834 350.626 258.468C345.342 255.479 340.766 250.995 338.44 245.437C334.714 236.544 337.147 226.45 340.287 217.438C345.478 202.545 352.501 188.297 361.153 175.119C364.873 169.449 369.001 163.865 374.596 159.983C380.583 155.825 387.868 153.874 395.106 152.683C403.857 151.244 412.975 150.829 421.558 153.249" fill="#942929"/>
</g>
<defs>
<clipPath id="clip0_95_40">
<rect width="449.31" height="304.679" fill="white" transform="matrix(-0.881386 -0.472396 -0.472396 0.881386 540.843 212.879)"/>
</clipPath>
</defs>
</svg>
