<svg width="313" height="354" viewBox="0 0 313 354" fill="none" xmlns="http://www.w3.org/2000/svg">
<path d="M310.849 324.422C229.027 307.591 163.663 238.629 157.464 162.581C146.811 186.655 144.986 213.878 152.334 238.944C110.431 213.217 86.766 166.218 88.4653 120.275C90.1647 74.3314 115.734 30.3403 153.719 0C80.1258 14.6742 11.9301 66.6479 1.41906 134.461C-9.09195 202.195 40.1116 268.922 105.207 303.214C99.6845 304.442 93.5163 302.978 89.3622 299.451C110.337 327.508 145.93 344.733 182.671 350.669C219.412 356.605 257.35 352.196 293.524 343.883C300.165 342.356 307.324 340.34 311.148 335.192C314.971 330.027 312.407 321.037 305.578 320.659" fill="#942929"/>
</svg>
