<svg width="382" height="387" viewBox="0 0 382 387" fill="none" xmlns="http://www.w3.org/2000/svg">
<path d="M378.392 107.327C354.787 113.648 331.755 96.8373 311.757 81.4949C279.782 56.9628 246.54 33.91 210.273 18.4892C174.007 3.06833 134.354 -4.46276 96.0876 2.76576C57.8214 9.99427 21.1629 33.1031 -7.89741e-05 69.3802C2.9543 65.4017 8.7927 65.7155 12.6615 68.5508C16.5304 71.3862 18.9522 76.0371 21.4142 80.4078C41.4416 115.923 73.357 142.876 109.443 154.733C145.528 166.59 185.453 163.25 219.539 145.521C194.014 156.246 172.379 178.032 160.23 205.265C150.432 227.22 146.805 251.853 142.976 276.004C139.147 300.155 134.836 324.765 123.893 346.036C112.95 367.307 94.0477 385.014 72.1109 386.751C107.493 386.987 143.338 381.383 175.786 365.637C208.234 349.891 237.144 323.398 253.624 288.477C266.155 261.928 272.426 229.64 293.991 211.698C317.315 192.299 353.018 195.078 371.95 170.434C386.19 151.886 384.23 120.663 367.8 104.525" fill="#E39797"/>
<path d="M342.819 159.058C326.75 159.069 310.712 162.992 296.001 170.209C281.148 177.494 267.582 187.905 256.207 200.804C244.952 213.569 235.828 228.833 230.09 245.587C223.176 265.827 221.086 288.185 211.077 307.058C202.807 322.658 186.699 336.498 169.636 333.977C167.606 333.674 165.626 333.17 163.697 332.408C162.42 331.904 161.566 330.492 161.938 328.956C162.28 327.578 163.747 326.491 165.033 326.995C180.74 333.159 196.918 320.876 205.36 306.677C210.635 297.812 213.72 287.524 216.353 277.382C219.066 266.903 221.277 256.256 224.613 245.991C230.22 228.766 239.074 213.02 250.258 199.616C261.372 186.302 274.787 175.275 289.489 167.396C304.291 159.45 320.369 154.598 336.789 153.623C338.799 153.499 340.799 153.443 342.809 153.443C346.044 153.443 346.044 159.047 342.809 159.047L342.819 159.058Z" fill="#915555"/>
<path d="M327.282 108.168C310.41 114.993 291.94 113.726 274.877 108.437C257.814 103.147 241.414 93.4754 225.808 83.3891C210.212 73.3028 194.747 62.6001 177.885 55.2708C161.023 47.9414 144.09 44.6577 126.555 44.8707C109.009 45.0724 91.5343 48.9724 75.2953 56.4139C73.3659 57.2992 71.4566 58.2518 69.5775 59.2493C68.3515 59.8993 66.8642 59.6303 66.1407 58.2406C65.4976 57.0191 65.8091 55.0578 67.0451 54.4078C83.2138 45.9129 100.709 40.937 118.536 39.6034C136.363 38.2698 154.089 40.612 170.921 46.5853C188.255 52.738 204.153 62.8131 219.789 72.989C235.324 83.1089 250.88 93.5202 267.943 100.144C285.006 106.767 302.421 109.826 319.544 104.963C321.705 104.346 323.835 103.607 325.935 102.755C327.212 102.239 328.689 103.338 329.03 104.716C329.412 106.274 328.558 107.641 327.272 108.168H327.282Z" fill="#915555"/>
<path d="M332.831 142.943C317.958 144.871 303.166 147.818 288.726 152.301C274.286 156.784 260.287 162.779 247.224 170.916C234.16 179.052 223.277 188.343 213.59 200.11C204.375 211.306 196.688 224.306 191.563 238.415C186.438 252.525 183.795 267.632 184.559 282.829C184.649 284.723 184.8 286.606 185.001 288.5C185.152 290.001 183.735 291.301 182.489 291.301C181.002 291.301 180.127 290.012 179.977 288.5C178.379 272.911 180.288 257.008 184.931 242.226C189.674 227.13 197.06 213.222 206.244 200.973C215.429 188.724 227.036 177.92 239.546 169.425C252.66 160.504 266.95 153.791 281.621 148.771C296.454 143.705 311.718 140.388 327.083 138.124C328.992 137.844 330.911 137.575 332.831 137.328C334.177 137.149 335.343 138.74 335.343 140.13C335.343 141.789 334.187 142.753 332.831 142.932V142.943Z" fill="#915555"/>
<path d="M326.057 126.816C296.735 134.762 265.422 133.014 237.014 121.616C209.842 110.712 184.951 91.391 155.809 87.2668C141.348 85.216 126.235 86.9082 113.643 95.616C110.89 97.5212 108.358 92.6798 111.111 90.7746C135.269 74.065 165.606 81.0694 190.216 92.5341C203.993 98.9557 217.208 106.778 231.035 113.065C244.953 119.397 259.534 123.701 274.517 125.315C291.308 127.13 308.321 125.841 324.721 121.403C327.866 120.552 329.203 125.953 326.057 126.805V126.816Z" fill="#915555"/>
</svg>
