<svg width="621" height="212" viewBox="0 0 621 212" fill="none" xmlns="http://www.w3.org/2000/svg">
<path d="M148.555 24.542L75.2144 24.542C64.5617 24.542 55.9232 33.1859 55.9232 43.8452L55.9232 180.4C55.9232 197.83 70.069 212 87.5034 212L148.571 212C159.224 212 167.862 203.356 167.862 192.697L167.862 43.8609C167.862 33.2017 159.224 24.5578 148.571 24.5578L148.555 24.542Z" fill="#DB6F6F"/>
<path d="M158.421 118.271L76.5673 118.271C74.4116 118.271 72.6493 120.034 72.6493 122.191L72.6493 174.669C72.6493 195.263 89.3599 212 109.957 212L166.65 212C190.237 212 209.371 192.839 209.371 169.253C209.371 141.117 186.54 118.271 158.421 118.271V118.271Z" fill="#DB6F6F"/>
<path d="M538.171 24.542L464.83 24.542C454.177 24.542 445.538 33.1859 445.538 43.8452L445.538 180.4C445.538 197.83 459.684 212 477.119 212L538.186 212C548.839 212 557.478 203.356 557.478 192.697L557.478 43.8609C557.478 33.2017 548.839 24.5578 538.186 24.5578L538.171 24.542Z" fill="#DB6F6F"/>
<path d="M548.036 118.271L466.183 118.271C464.027 118.271 462.265 120.034 462.265 122.191V174.669C462.265 195.263 478.975 212 499.572 212L556.266 212C579.853 212 598.986 192.839 598.986 169.253C598.986 141.117 576.155 118.271 548.036 118.271Z" fill="#DB6F6F"/>
<path d="M620.071 0.184814L0.677023 0.184814V49.4032C0.677023 60.4246 9.63027 69.3834 20.6448 69.3834L600.088 69.3834C611.102 69.3834 620.056 60.4246 620.056 49.4032V0.184814H620.071Z" fill="#812340"/>
</svg>
