<svg width="217" height="201" viewBox="0 0 217 201" fill="none" xmlns="http://www.w3.org/2000/svg">
<ellipse cx="158.786" cy="73.4477" rx="30.6329" ry="30.4903" transform="rotate(-28.5342 158.786 73.4477)" fill="#FF835E"/>
<ellipse cx="113.371" cy="66.3848" rx="12.9601" ry="13.2633" transform="rotate(-28.5342 113.371 66.3848)" fill="#FF835E"/>
<ellipse cx="126.501" cy="41.1997" rx="12.9601" ry="13.2633" transform="rotate(-28.5342 126.501 41.1997)" fill="#FF835E"/>
<ellipse cx="149.271" cy="28.8181" rx="12.9601" ry="13.2633" transform="rotate(-28.5342 149.271 28.8181)" fill="#FF835E"/>
<ellipse cx="177.03" cy="31.7726" rx="12.9601" ry="13.2633" transform="rotate(-28.5342 177.03 31.7726)" fill="#FF835E"/>
<ellipse cx="70.7091" cy="150.103" rx="30.6329" ry="30.4903" transform="rotate(-28.5342 70.7091 150.103)" fill="#FF835E"/>
<ellipse cx="25.2947" cy="143.04" rx="12.9601" ry="13.2633" transform="rotate(-28.5342 25.2947 143.04)" fill="#FF835E"/>
<ellipse cx="38.4236" cy="117.855" rx="12.9601" ry="13.2633" transform="rotate(-28.5342 38.4236 117.855)" fill="#FF835E"/>
<ellipse cx="61.1941" cy="105.474" rx="12.9601" ry="13.2633" transform="rotate(-28.5342 61.1941 105.474)" fill="#FF835E"/>
<ellipse cx="88.9529" cy="108.428" rx="12.9601" ry="13.2633" transform="rotate(-28.5342 88.9529 108.428)" fill="#FF835E"/>
</svg>
