<svg width="217" height="202" viewBox="0 0 217 202" fill="none" xmlns="http://www.w3.org/2000/svg">
<ellipse cx="159.21" cy="74.2464" rx="30.6329" ry="30.4903" transform="rotate(-28.5342 159.21 74.2464)" fill="#602940"/>
<ellipse cx="113.795" cy="67.1835" rx="12.9601" ry="13.2633" transform="rotate(-28.5342 113.795 67.1835)" fill="#602940"/>
<ellipse cx="126.924" cy="41.9983" rx="12.9601" ry="13.2633" transform="rotate(-28.5342 126.924 41.9983)" fill="#602940"/>
<ellipse cx="149.695" cy="29.6168" rx="12.9601" ry="13.2633" transform="rotate(-28.5342 149.695 29.6168)" fill="#602940"/>
<ellipse cx="177.454" cy="32.5713" rx="12.9601" ry="13.2633" transform="rotate(-28.5342 177.454 32.5713)" fill="#602940"/>
<ellipse cx="71.1339" cy="150.902" rx="30.6329" ry="30.4903" transform="rotate(-28.5342 71.1339 150.902)" fill="#602940"/>
<ellipse cx="25.7205" cy="143.839" rx="12.9601" ry="13.2633" transform="rotate(-28.5342 25.7205 143.839)" fill="#602940"/>
<ellipse cx="38.8484" cy="118.654" rx="12.9601" ry="13.2633" transform="rotate(-28.5342 38.8484 118.654)" fill="#602940"/>
<ellipse cx="61.6199" cy="106.272" rx="12.9601" ry="13.2633" transform="rotate(-28.5342 61.6199 106.272)" fill="#602940"/>
<ellipse cx="89.3777" cy="109.227" rx="12.9601" ry="13.2633" transform="rotate(-28.5342 89.3777 109.227)" fill="#602940"/>
</svg>
