<svg width="415" height="391" viewBox="0 0 415 391" fill="none" xmlns="http://www.w3.org/2000/svg">
<g clip-path="url(#clip0_95_55)">
<path d="M186.403 151.605C164.392 136.914 142.285 120.964 126.885 100.197C111.484 79.4296 104.05 52.6927 114.387 33.8334C117.921 27.378 123.583 21.994 131.187 19.8814C138.786 17.7655 148.434 19.33 155.56 24.9121C162.154 30.0686 165.785 37.8053 167.482 45.1733C169.182 52.5366 169.265 59.8444 170.535 67.2084C172.547 78.8643 177.593 90.6149 185.095 101.127C192.656 111.724 203.152 122.211 203.924 133.856C204.57 143.578 196.99 151.708 186.83 152.208" fill="#A32525"/>
<path d="M165.701 180.399C144.765 164.212 122.605 148.336 98.0151 140.35C73.4295 132.368 45.7122 133.831 31.1267 149.636C26.1329 155.042 22.8322 162.124 23.2509 170.004C23.665 177.882 28.2206 186.53 35.7816 191.507C42.7693 196.115 51.2597 197.094 58.7844 196.356C66.3058 195.623 73.2596 193.374 80.6445 192.233C92.3344 190.428 105.08 191.47 117.434 195.234C129.887 199.026 143.17 205.636 154.455 202.659C163.877 200.176 169.169 190.402 166.408 180.611" fill="#A32525"/>
<path d="M181.687 134.12C170.511 126.55 159.274 118.929 149.423 109.732C139.573 100.534 131.078 89.5895 126.701 77.2415C122.324 64.8934 122.432 51.0327 128.819 40.4237C130.951 36.88 134.251 33.5064 138.62 33.4893C141.867 33.4754 145.04 35.3971 147.231 37.9101C149.421 40.423 150.786 43.4771 151.991 46.508C159.313 64.9496 162.224 84.8874 172.64 102.064C178.406 111.568 186.523 120.401 188.432 131.024C188.787 132.992 188.79 135.293 187.246 136.46C184.957 138.191 181.48 136.114 179.089 134.134C171.555 127.893 164.017 121.648 156.483 115.407" fill="#F396B3"/>
<path d="M147.958 181.031C137.224 172.848 126.421 164.623 114.565 158.214C102.71 151.805 89.6298 147.238 76.5307 147.021C63.4317 146.804 50.3272 151.321 42.3044 160.754C39.6241 163.903 37.4769 168.105 38.8522 172.253C39.8728 175.334 42.7049 177.73 45.7847 179.007C48.8646 180.283 52.1942 180.605 55.4512 180.782C75.2642 181.849 95.0909 178.259 114.691 182.664C125.536 185.103 136.494 189.985 147.172 188.412C149.15 188.121 151.332 187.391 151.947 185.556C152.859 182.835 149.783 180.2 147.145 178.564C138.829 173.41 130.509 168.253 122.193 163.099" fill="#F396B3"/>
<path d="M306.724 183.513C302.197 179.003 297.576 174.348 295.188 168.324C292.801 162.299 293.122 154.507 297.762 149.064C302.06 144.018 309.159 142.086 315.309 142.799C321.459 143.513 326.859 146.457 331.923 149.611C350.072 160.897 365.809 175.342 381.447 189.709C384.898 192.881 388.48 196.274 389.632 200.938C390.903 206.104 388.864 211.999 385.509 216.714C382.153 221.43 377.599 225.206 373.113 228.905C368.382 232.808 363.227 236.899 357.392 237.561C350.603 238.335 344.837 234.253 340.052 230.044C324.565 216.428 312.25 199.352 304.076 180.164" fill="#D15C5C"/>
<path d="M223.465 295.242C217.66 292.57 211.688 289.863 205.206 289.729C198.728 289.59 191.539 292.607 188.053 298.858C184.82 304.649 185.489 311.976 188.298 317.492C191.11 323.004 195.753 327.04 200.471 330.686C217.374 343.763 236.399 353.479 255.317 363.126C259.492 365.253 263.925 367.432 268.695 366.878C273.98 366.264 278.788 362.303 282.041 357.514C285.294 352.725 287.243 347.14 289.142 341.645C291.149 335.853 293.189 329.593 291.773 323.894C290.127 317.26 284.301 313.282 278.683 310.259C260.52 300.493 240.222 294.902 219.392 293.935" fill="#D15C5C"/>
<path d="M198.859 102.392L116.544 216.88C112.641 222.309 113.878 229.875 119.307 233.778L278.512 348.243C283.941 352.147 291.507 350.91 295.41 345.481L377.724 230.993C381.628 225.564 380.391 217.999 374.962 214.095L215.757 99.6299C210.328 95.7265 202.762 96.9633 198.859 102.392Z" fill="#B4375E"/>
<path d="M112.189 222.936L120.978 210.712L299.844 339.313L293.745 347.795C289.284 354 280.623 355.416 274.418 350.955L114.293 235.828C110.156 232.854 109.212 227.077 112.186 222.941L112.189 222.936Z" fill="#8E324F"/>
<path d="M219.68 139.664L169.791 209.053C167.213 212.639 168.03 217.636 171.616 220.214L182.724 228.201C186.31 230.779 191.307 229.962 193.886 226.376L243.775 156.988C246.353 153.402 245.536 148.404 241.95 145.826L230.842 137.839C227.256 135.261 222.258 136.078 219.68 139.664Z" fill="#8E324F"/>
<path d="M294.526 193.398L242.956 265.125L247.999 268.751L299.569 197.024L294.526 193.398Z" fill="#8E324F"/>
<path d="M303.154 203.854L254.604 271.379L259.369 274.804L307.918 207.279L303.154 203.854Z" fill="#8E324F"/>
<path d="M306.311 220.154L272.469 267.224L278.075 271.254L311.917 224.184L306.311 220.154Z" fill="#8E324F"/>
<path d="M314.468 338.194C318.584 332.469 317.877 324.922 312.889 321.336C307.902 317.75 300.522 319.483 296.406 325.208C292.291 330.932 292.997 338.479 297.985 342.065C302.973 345.651 310.352 343.918 314.468 338.194Z" fill="#D15C5C"/>
<path d="M333.177 312.006C337.292 306.282 336.585 298.734 331.598 295.148C326.61 291.562 319.23 293.296 315.115 299.02C310.999 304.745 311.706 312.292 316.693 315.878C321.681 319.464 329.061 317.731 333.177 312.006Z" fill="#D15C5C"/>
<path d="M323.795 325.221C327.91 319.497 325.782 310.928 319.041 306.081C312.3 301.235 303.499 301.946 299.384 307.67C295.268 313.395 297.396 321.964 304.137 326.811C310.878 331.657 319.679 330.946 323.795 325.221Z" fill="#A32525"/>
<path d="M276.49 378.659C279.696 374.2 278.252 367.678 273.264 364.092C268.277 360.506 261.634 361.214 258.429 365.673C255.223 370.132 256.667 376.653 261.655 380.239C266.643 383.825 273.285 383.118 276.49 378.659Z" fill="#A32525"/>
<path d="M291.046 358.249C294.251 353.79 292.807 347.268 287.819 343.682C282.832 340.096 276.19 340.804 272.984 345.263C269.778 349.722 271.222 356.243 276.21 359.829C281.198 363.415 287.84 362.708 291.046 358.249Z" fill="#A32525"/>
<path d="M283.756 368.554C286.962 364.095 284.726 357.005 278.763 352.718C272.8 348.431 265.367 348.57 262.162 353.028C258.956 357.487 261.191 364.577 267.154 368.865C273.117 373.152 280.55 373.013 283.756 368.554Z" fill="#A32525"/>
<path d="M388.326 223.112C391.532 218.653 390.087 212.131 385.1 208.545C380.112 204.959 373.47 205.667 370.264 210.126C367.058 214.584 368.503 221.106 373.49 224.692C378.478 228.278 385.12 227.571 388.326 223.112Z" fill="#A32525"/>
<path d="M402.881 202.702C406.086 198.243 404.642 191.721 399.654 188.135C394.667 184.549 388.025 185.257 384.819 189.716C381.613 194.174 383.057 200.696 388.045 204.282C393.033 207.868 399.675 207.16 402.881 202.702Z" fill="#A32525"/>
<path d="M395.59 213.007C398.796 208.548 396.561 201.458 390.598 197.171C384.635 192.883 377.202 193.023 373.996 197.481C370.79 201.94 373.025 209.03 378.989 213.318C384.952 217.605 392.384 217.466 395.59 213.007Z" fill="#A32525"/>
<path d="M358.242 277.311C362.358 271.586 361.651 264.039 356.663 260.453C351.676 256.867 344.296 258.6 340.18 264.325C336.064 270.049 336.771 277.596 341.759 281.182C346.747 284.768 354.126 283.035 358.242 277.311Z" fill="#D15C5C"/>
<path d="M376.953 251.119C381.069 245.394 380.362 237.847 375.374 234.261C370.386 230.675 363.007 232.408 358.891 238.132C354.775 243.857 355.482 251.404 360.47 254.99C365.457 258.576 372.837 256.843 376.953 251.119Z" fill="#D15C5C"/>
<path d="M367.569 264.338C371.684 258.614 369.556 250.045 362.815 245.198C356.074 240.351 347.273 241.063 343.158 246.787C339.042 252.512 341.17 261.081 347.911 265.928C354.652 270.774 363.453 270.063 367.569 264.338Z" fill="#A32525"/>
</g>
<defs>
<clipPath id="clip0_95_55">
<rect width="236.527" height="340.376" fill="white" transform="translate(0.182129 192.245) rotate(-54.2846)"/>
</clipPath>
</defs>
</svg>
