<svg width="1325" height="253" viewBox="0 0 1325 253" fill="none" xmlns="http://www.w3.org/2000/svg">
<g clip-path="url(#clip0_128_8)">
<path d="M1074.83 44.7785C1065.87 32.1854 1060.14 17.3249 1058.33 1.98694C1052.43 3.94755 1047.91 8.93957 1045.32 14.5751C1042.74 20.2106 1041.87 26.4694 1041.43 32.6479C1041.09 37.6047 1041.03 42.7626 1043.02 47.3223C1045.88 53.8878 1053.16 58.2615 1060.33 57.7236C1067.49 57.1857 1074.04 51.7814 1075.89 44.864" fill="#A55151"/>
<path d="M1268.8 90.5814C1271.93 90.2043 1275.06 89.8474 1278.2 89.6966C1281.8 89.5257 1285.32 89.7318 1288.88 90.2395C1295.81 91.2198 1302.19 94.5579 1307.06 99.555C1311.54 104.155 1314.97 109.836 1317.48 115.712C1318.87 118.955 1320.09 122.233 1320.97 125.646C1321.85 129.06 1322.41 132.569 1322.78 136.078C1323.55 143.372 1322.97 150.843 1321.26 157.971C1320.89 159.474 1319.68 160.957 1318.36 161.726C1317.04 162.496 1315.02 162.848 1313.5 162.36C1310.16 161.284 1308.27 158.057 1309.1 154.628C1309.56 152.703 1309.93 150.757 1310.2 148.791L1309.97 150.46C1310.69 145.127 1310.67 139.722 1309.97 134.388L1310.2 136.058C1309.47 130.729 1308.06 125.51 1305.97 120.549L1306.6 122.052C1304.8 117.819 1302.54 113.747 1299.72 110.107L1300.7 111.379C1299.06 109.283 1297.22 107.357 1295.11 105.723L1296.39 106.704C1294.73 105.442 1292.95 104.396 1291.02 103.587L1292.53 104.22C1290.19 103.255 1287.73 102.652 1285.22 102.31L1286.9 102.536C1280.88 101.757 1274.8 102.425 1268.81 103.149C1267.32 103.33 1265.36 102.32 1264.35 101.309C1263.26 100.219 1262.43 98.4289 1262.5 96.8654C1262.57 95.3019 1263.11 93.5525 1264.35 92.4213L1265.63 91.441C1266.61 90.873 1267.67 90.5864 1268.81 90.5814H1268.8Z" fill="#B16666"/>
<path d="M1067.52 185.013H1072.97C1078.18 185.013 1082.4 189.221 1082.4 194.413V238.14C1082.4 243.332 1078.18 247.541 1072.97 247.541H1067.52C1062.31 247.541 1058.08 243.332 1058.08 238.14V194.413C1058.08 189.221 1062.31 185.013 1067.52 185.013Z" fill="#683737"/>
<path d="M1204.35 184.057H1209.8C1215.01 184.057 1219.23 188.266 1219.23 193.458V237.185C1219.23 242.377 1215.01 246.586 1209.8 246.586H1204.35C1199.14 246.586 1194.91 242.377 1194.91 237.185V193.458C1194.91 188.266 1199.14 184.057 1204.35 184.057Z" fill="#683737"/>
<path d="M1054.39 46.3069H1258.5C1267.95 46.3069 1275.62 53.9482 1275.62 63.3743V187.581C1275.62 197.008 1267.95 204.649 1258.5 204.649H1054.39C1044.93 204.649 1037.27 197.008 1037.27 187.581V63.3743C1037.27 53.9482 1044.93 46.3069 1054.39 46.3069Z" fill="#FFDBDB"/>
<mask id="mask0_128_8" style="mask-type:luminance" maskUnits="userSpaceOnUse" x="1037" y="46" width="239" height="159">
<path d="M1054.4 46.3067H1258.5C1267.96 46.3067 1275.63 53.948 1275.63 63.3741V187.581C1275.63 197.007 1267.96 204.649 1258.5 204.649H1054.4C1044.94 204.649 1037.27 197.007 1037.27 187.581V63.3741C1037.27 53.948 1044.94 46.3067 1054.4 46.3067Z" fill="white"/>
</mask>
<g mask="url(#mask0_128_8)">
<path d="M1173.21 35.8198C1169.74 37.886 1132.54 60.0459 1138.78 88.6005C1142.44 105.351 1160.12 120.066 1177.18 120.267C1203.19 120.574 1214.42 86.9767 1233.46 91.2398C1248.72 94.6532 1247.45 117.562 1263.92 121.589C1278.54 125.168 1301.12 112.369 1305.63 91.2398C1309.9 71.2315 1296.47 50.8562 1282.46 47.6941C1268.36 44.5119 1261.51 60.5436 1246.7 57.5927C1230.18 54.2998 1230.71 32.7683 1212.27 26.5848C1197.2 21.5275 1181.63 30.8077 1173.21 35.8198H1173.21Z" fill="#632A2A"/>
<path d="M1102.18 65.3901C1115.4 78.124 1122.42 100.746 1114.03 112.621C1108.57 120.353 1101.97 115.893 1089.59 124.43C1072.13 136.46 1074.38 152.813 1062.18 156.166C1051.73 159.037 1039.77 149.857 1034.04 142.884C1019.74 125.465 1024.44 97.5843 1036.26 80.155C1045.46 66.5815 1064.78 50.776 1084.4 55.0642C1093.51 57.055 1099.32 62.6502 1102.17 65.3951L1102.18 65.3901Z" fill="#632A2A"/>
<path d="M1243.6 135.781C1244.52 147.007 1236.23 161.465 1223.1 162.038C1211.5 162.541 1200.5 152.019 1200.85 142.201C1201.11 134.987 1207.43 130.09 1211.39 127.029C1214.56 124.57 1225.6 116.019 1234.81 120.609C1242.51 124.445 1243.51 134.761 1243.6 135.781Z" fill="#632A2A"/>
<path d="M1148.81 208.811C1124.61 191.548 1112.25 195.901 1107.07 185.138C1100.61 171.71 1112.26 149.153 1122.17 148.449C1132.24 147.731 1138.72 169.674 1148.45 167.804C1154.9 166.568 1154.64 156.458 1163.11 153.869C1171.59 151.275 1180.58 158.755 1182.57 160.535C1191.47 168.463 1194 181.277 1191.73 191.633C1188.65 205.609 1176.13 218.272 1164.55 217.79C1159.06 217.564 1156.81 214.517 1148.81 208.806L1148.81 208.811Z" fill="#632A2A"/>
</g>
<path d="M1275.62 176.974H1037.27V192.583C1037.27 199.244 1042.69 204.654 1049.38 204.654H1263.51C1270.19 204.654 1275.62 199.244 1275.62 192.583V176.974Z" fill="#9A5F5F"/>
<path d="M1071.35 76.9426H1103.72C1109.12 76.9426 1113.5 81.3046 1113.5 86.6854V148.058C1113.5 153.438 1109.12 157.8 1103.72 157.8H1071.35C1065.95 157.8 1061.57 153.438 1061.57 148.058V86.6854C1061.57 81.3046 1065.95 76.9426 1071.35 76.9426Z" fill="#9A5F5F"/>
<path d="M1065.18 44.7785C1074.15 32.1854 1079.88 17.3199 1081.68 1.98694C1087.58 3.94755 1092.1 8.93957 1094.68 14.5751C1097.27 20.2106 1098.14 26.4694 1098.57 32.6479C1098.92 37.6047 1098.98 42.7626 1096.99 47.3223C1094.12 53.8878 1086.84 58.2615 1079.68 57.7236C1072.52 57.1857 1065.97 51.7814 1064.12 44.864" fill="#DB6F6F"/>
<path d="M1321.26 156.664C1325.44 162.315 1329.25 168.232 1332.66 174.375C1333.62 176.099 1333.14 178.568 1331.3 179.533C1329.47 180.498 1327.15 180.026 1326.13 178.181C1322.72 172.037 1318.91 166.12 1314.73 160.47C1314.18 159.731 1314.11 158.409 1314.35 157.564C1314.58 156.719 1315.26 155.739 1316.09 155.312C1316.96 154.849 1318.03 154.618 1319 154.93C1319.98 155.241 1320.65 155.83 1321.26 156.664Z" fill="#632A2A"/>
<path d="M1320.24 159.258C1321.55 164.28 1322.36 169.443 1322.68 174.621C1322.81 176.592 1320.85 178.477 1318.9 178.392C1316.74 178.296 1315.25 176.733 1315.12 174.621C1315.01 172.842 1314.83 171.072 1314.6 169.308L1314.73 170.308C1314.32 167.261 1313.72 164.24 1312.95 161.264C1312.45 159.359 1313.58 157.081 1315.59 156.624C1317.6 156.166 1319.71 157.217 1320.25 159.258H1320.24Z" fill="#632A2A"/>
<path d="M1318.07 160.263V180.654C1318.07 182.624 1316.33 184.515 1314.29 184.424C1312.25 184.334 1310.51 182.765 1310.51 180.654V160.263C1310.51 158.293 1312.25 156.403 1314.29 156.493C1316.33 156.583 1318.07 158.152 1318.07 160.263Z" fill="#632A2A"/>
<path d="M1316.88 158.715C1314.76 164.23 1312.63 169.74 1310.52 175.255C1310.15 176.195 1309.68 176.979 1308.78 177.507C1307.96 177.979 1306.77 178.18 1305.86 177.889C1304.06 177.311 1302.46 175.225 1303.22 173.249C1305.33 167.734 1307.46 162.224 1309.58 156.709C1309.94 155.769 1310.41 154.985 1311.32 154.457C1312.13 153.985 1313.33 153.783 1314.23 154.075C1316.03 154.653 1317.63 156.739 1316.88 158.715Z" fill="#632A2A"/>
<path d="M1314.12 159.565C1313.73 160.027 1313.36 160.495 1312.98 160.962C1312.79 161.199 1312.6 161.435 1312.42 161.671C1312.33 161.792 1312.23 161.908 1312.14 162.028L1312.46 161.621C1311.76 162.501 1311.1 163.421 1310.43 164.336C1309.1 166.196 1307.82 168.106 1306.61 170.052C1304.21 173.912 1302.07 177.939 1300.2 182.082C1299.84 182.891 1298.76 183.59 1297.94 183.816C1297.03 184.062 1295.82 183.952 1295.02 183.434C1294.22 182.916 1293.5 182.142 1293.28 181.182C1293.04 180.136 1293.23 179.251 1293.67 178.276C1297.58 169.604 1302.71 161.566 1308.77 154.231C1309.35 153.527 1310.57 153.125 1311.44 153.125C1312.37 153.125 1313.48 153.537 1314.12 154.231C1314.75 154.925 1315.27 155.895 1315.23 156.895C1315.18 157.896 1314.79 158.75 1314.12 159.56V159.565Z" fill="#632A2A"/>
<path d="M1102.1 188.692H1107.54C1112.75 188.692 1116.98 192.901 1116.98 198.093V241.82C1116.98 247.012 1112.75 251.221 1107.54 251.221H1102.1C1096.89 251.221 1092.66 247.012 1092.66 241.82V198.093C1092.66 192.901 1096.89 188.692 1102.1 188.692Z" fill="#B16666"/>
<path d="M1093.41 232.841C1101.26 233.113 1109.12 232.962 1116.98 233.002V243.595C1116.98 248.788 1112.76 252.995 1107.54 252.995H1102.1C1096.88 252.995 1092.66 248.788 1092.66 243.595V232.811C1092.91 232.821 1093.16 232.831 1093.41 232.841H1093.41Z" fill="#DB6F6F"/>
<path d="M1237.92 187.737H1243.37C1248.58 187.737 1252.8 191.946 1252.8 197.138V240.865C1252.8 246.057 1248.58 250.266 1243.37 250.266H1237.92C1232.71 250.266 1228.48 246.057 1228.48 240.865V197.138C1228.48 191.946 1232.71 187.737 1237.92 187.737Z" fill="#B16666"/>
<path d="M1229.24 230.112C1237.09 230.383 1244.95 230.232 1252.8 230.272V240.865C1252.8 246.058 1248.58 250.266 1243.37 250.266H1237.92C1232.71 250.266 1228.48 246.058 1228.48 240.865V230.081C1228.73 230.091 1228.98 230.101 1229.23 230.112H1229.24Z" fill="#DB6F6F"/>
<path d="M1195.66 226.431C1203.51 226.703 1211.37 226.552 1219.23 226.592V237.185C1219.23 242.378 1215 246.585 1209.79 246.585H1204.34C1199.13 246.585 1194.91 242.378 1194.91 237.185V226.401C1195.16 226.411 1195.41 226.421 1195.66 226.431H1195.66Z" fill="#A55151"/>
<path d="M1058.83 227.387C1066.68 227.658 1074.54 227.507 1082.4 227.548V238.14C1082.4 243.333 1078.18 247.541 1072.97 247.541H1067.52C1062.31 247.541 1058.08 243.333 1058.08 238.14V227.357C1058.33 227.367 1058.58 227.377 1058.83 227.387H1058.83Z" fill="#A55151"/>
</g>
<g clip-path="url(#clip1_128_8)">
<path d="M741.05 44.7785C732.085 32.1854 726.354 17.3249 724.548 1.98694C718.65 3.94755 714.125 8.93957 711.542 14.5751C708.959 20.2106 708.086 26.4694 707.652 32.6479C707.304 37.6047 707.248 42.7626 709.236 47.3223C712.102 53.8878 719.382 58.2615 726.546 57.7236C733.71 57.1857 740.253 51.7814 742.104 44.864" fill="#A55151"/>
<path d="M935.021 90.5814C938.144 90.2043 941.272 89.8474 944.42 89.6966C948.017 89.5257 951.534 89.7318 955.101 90.2395C962.028 91.2198 968.409 94.5579 973.278 99.555C977.758 104.155 981.189 109.836 983.701 115.712C985.083 118.955 986.309 122.233 987.187 125.646C988.065 129.06 988.625 132.569 988.998 136.078C989.77 143.372 989.19 150.843 987.475 157.971C987.111 159.474 985.901 160.957 984.579 161.726C983.257 162.496 981.234 162.848 979.72 162.36C976.381 161.284 974.489 158.057 975.316 154.628C975.78 152.703 976.144 150.757 976.416 148.791L976.189 150.46C976.905 145.127 976.89 139.722 976.189 134.388L976.416 136.058C975.689 130.729 974.272 125.51 972.183 120.549L972.819 122.052C971.018 117.819 968.758 113.747 965.932 110.107L966.916 111.379C965.277 109.283 963.435 107.357 961.326 105.723L962.603 106.704C960.948 105.442 959.162 104.396 957.24 103.587L958.748 104.22C956.407 103.255 953.945 102.652 951.438 102.31L953.113 102.536C947.094 101.757 941.015 102.425 935.026 103.149C933.533 103.33 931.581 102.32 930.567 101.309C929.472 100.219 928.65 98.4289 928.72 96.8654C928.791 95.3019 929.331 93.5525 930.567 92.4213L931.843 91.441C932.827 90.873 933.886 90.5864 935.026 90.5814H935.021Z" fill="#B16666"/>
<path d="M733.734 185.013H739.183C744.393 185.013 748.617 189.221 748.617 194.413V238.14C748.617 243.332 744.393 247.541 739.183 247.541H733.734C728.524 247.541 724.3 243.332 724.3 238.14V194.413C724.3 189.221 728.524 185.013 733.734 185.013Z" fill="#683737"/>
<path d="M870.565 184.057H876.014C881.224 184.057 885.448 188.266 885.448 193.458V237.185C885.448 242.377 881.224 246.586 876.014 246.586H870.565C865.355 246.586 861.131 242.377 861.131 237.185V193.458C861.131 188.266 865.355 184.057 870.565 184.057Z" fill="#683737"/>
<path d="M720.612 46.3069H924.714C934.173 46.3069 941.842 53.9482 941.842 63.3743V187.581C941.842 197.008 934.173 204.649 924.714 204.649H720.612C711.153 204.649 703.484 197.008 703.484 187.581V63.3743C703.484 53.9482 711.153 46.3069 720.612 46.3069Z" fill="#FFDBDB"/>
<mask id="mask1_128_8" style="mask-type:luminance" maskUnits="userSpaceOnUse" x="703" y="46" width="239" height="159">
<path d="M720.612 46.3069H924.714C934.173 46.3069 941.842 53.9482 941.842 63.3743V187.581C941.842 197.008 934.173 204.649 924.714 204.649H720.612C711.153 204.649 703.484 197.008 703.484 187.581V63.3743C703.484 53.9482 711.153 46.3069 720.612 46.3069Z" fill="white"/>
</mask>
<g mask="url(#mask1_128_8)">
<path d="M839.422 35.8199C835.956 37.8861 798.754 60.046 804.995 88.6005C808.652 105.351 826.34 120.066 843.397 120.267C869.41 120.574 880.64 86.9767 899.675 91.2398C914.931 94.6533 913.665 117.562 930.132 121.589C944.757 125.168 967.334 112.369 971.844 91.2398C976.117 71.2315 962.682 50.8563 948.672 47.6941C934.571 44.5119 927.73 60.5437 912.918 57.5927C896.395 54.2999 896.93 32.7684 878.491 26.5849C863.416 21.5275 847.842 30.8078 839.427 35.8199H839.422Z" fill="#632A2A"/>
<path d="M768.399 65.3901C781.617 78.1241 788.634 100.746 780.25 112.621C774.791 120.353 768.187 115.893 755.806 124.43C738.351 136.46 740.601 152.813 728.402 156.166C717.948 159.037 705.987 149.857 700.255 142.885C685.953 125.465 690.66 97.5844 702.475 80.155C711.677 66.5816 731 50.776 750.615 55.0643C759.731 57.055 765.538 62.6503 768.389 65.3952L768.399 65.3901Z" fill="#632A2A"/>
<path d="M909.81 135.781C910.738 147.007 902.449 161.465 889.317 162.038C877.714 162.541 866.71 152.019 867.064 142.201C867.326 134.987 873.647 130.09 877.603 127.029C880.776 124.57 891.82 116.019 901.027 120.609C908.72 124.445 909.724 134.761 909.81 135.781Z" fill="#632A2A"/>
<path d="M815.023 208.811C790.827 191.548 778.467 195.901 773.291 185.138C766.828 171.71 778.472 149.153 788.386 148.45C798.455 147.731 804.933 169.674 814.67 167.804C821.113 166.568 820.855 156.458 829.321 153.869C837.802 151.275 846.797 158.755 848.79 160.535C857.684 168.463 860.217 181.277 857.941 191.633C854.869 205.609 842.347 218.272 830.764 217.79C825.28 217.564 823.03 214.517 815.028 208.806L815.023 208.811Z" fill="#632A2A"/>
</g>
<path d="M941.842 176.974H703.484V192.583C703.484 199.244 708.913 204.654 715.597 204.654H929.729C936.413 204.654 941.842 199.244 941.842 192.583V176.974Z" fill="#9A5F5F"/>
<path d="M737.564 76.9426H769.943C775.343 76.9426 779.721 81.3046 779.721 86.6854V148.058C779.721 153.438 775.343 157.8 769.943 157.8H737.564C732.165 157.8 727.787 153.438 727.787 148.058V86.6854C727.787 81.3046 732.165 76.9426 737.564 76.9426Z" fill="#9A5F5F"/>
<path d="M731.394 44.7785C740.364 32.1854 746.095 17.3199 747.896 1.98694C753.794 3.94755 758.319 8.93957 760.903 14.5751C763.491 20.2106 764.358 26.4694 764.792 32.6479C765.14 37.6047 765.196 42.7626 763.208 47.3223C760.343 53.8878 753.063 58.2615 745.899 57.7236C738.735 57.1857 732.191 51.7814 730.34 44.864" fill="#DB6F6F"/>
<path d="M987.479 156.664C991.662 162.315 995.471 168.232 998.876 174.375C999.835 176.099 999.355 178.568 997.519 179.533C995.683 180.498 993.367 180.026 992.343 178.181C988.932 172.037 985.128 166.12 980.946 160.47C980.401 159.731 980.331 158.409 980.563 157.564C980.795 156.719 981.481 155.739 982.303 155.312C983.181 154.849 984.245 154.618 985.219 154.93C986.193 155.241 986.864 155.83 987.479 156.664Z" fill="#632A2A"/>
<path d="M986.461 159.258C987.772 164.28 988.574 169.443 988.902 174.621C989.029 176.592 987.071 178.477 985.119 178.392C982.959 178.296 981.471 176.733 981.335 174.621C981.224 172.842 981.047 171.072 980.815 169.308L980.951 170.308C980.538 167.261 979.942 164.24 979.166 161.264C978.666 159.359 979.796 157.081 981.809 156.624C983.822 156.166 985.931 157.217 986.466 159.258H986.461Z" fill="#632A2A"/>
<path d="M984.291 160.263V180.654C984.291 182.624 982.55 184.515 980.507 184.424C978.464 184.334 976.723 182.765 976.723 180.654V160.263C976.723 158.293 978.464 156.403 980.507 156.493C982.55 156.583 984.291 158.152 984.291 160.263Z" fill="#632A2A"/>
<path d="M983.096 158.715C980.977 164.23 978.853 169.74 976.734 175.255C976.371 176.195 975.897 176.979 974.994 177.507C974.182 177.979 972.986 178.18 972.078 177.889C970.282 177.311 968.677 175.225 969.434 173.249C971.553 167.734 973.677 162.224 975.796 156.709C976.159 155.769 976.633 154.985 977.536 154.457C978.349 153.985 979.544 153.783 980.452 154.075C982.249 154.653 983.853 156.739 983.096 158.715Z" fill="#632A2A"/>
<path d="M980.336 159.565C979.952 160.027 979.574 160.495 979.195 160.962C979.009 161.199 978.822 161.435 978.635 161.671C978.545 161.792 978.449 161.908 978.358 162.028L978.676 161.621C977.974 162.501 977.314 163.421 976.653 164.336C975.316 166.196 974.039 168.106 972.829 170.052C970.427 173.912 968.288 177.939 966.416 182.082C966.053 182.891 964.973 183.59 964.156 183.816C963.248 184.062 962.042 183.952 961.24 183.434C960.438 182.916 959.722 182.142 959.5 181.182C959.262 180.136 959.444 179.251 959.883 178.276C963.793 169.604 968.924 161.566 974.988 154.231C975.568 153.527 976.789 153.125 977.662 153.125C978.59 153.125 979.7 153.537 980.336 154.231C980.971 154.925 981.491 155.895 981.445 156.895C981.4 157.896 981.007 158.75 980.336 159.56V159.565Z" fill="#632A2A"/>
<path d="M768.312 188.692H773.761C778.971 188.692 783.195 192.901 783.195 198.093V241.82C783.195 247.012 778.971 251.221 773.761 251.221H768.312C763.102 251.221 758.878 247.012 758.878 241.82V198.093C758.878 192.901 763.102 188.692 768.312 188.692Z" fill="#B16666"/>
<path d="M759.63 232.841C767.48 233.113 775.34 232.962 783.195 233.002V243.595C783.195 248.788 778.973 252.995 773.761 252.995H768.312C763.101 252.995 758.878 248.788 758.878 243.595V232.811C759.125 232.821 759.378 232.831 759.625 232.841H759.63Z" fill="#DB6F6F"/>
<path d="M904.136 187.737H909.584C914.795 187.737 919.019 191.946 919.019 197.138V240.865C919.019 246.057 914.795 250.266 909.584 250.266H904.136C898.925 250.266 894.701 246.057 894.701 240.865V197.138C894.701 191.946 898.925 187.737 904.136 187.737Z" fill="#B16666"/>
<path d="M895.453 230.112C903.303 230.383 911.163 230.232 919.019 230.272V240.865C919.019 246.058 914.796 250.266 909.584 250.266H904.136C898.924 250.266 894.701 246.058 894.701 240.865V230.081C894.949 230.091 895.201 230.101 895.448 230.112H895.453Z" fill="#DB6F6F"/>
<path d="M861.878 226.431C869.728 226.703 877.588 226.552 885.443 226.592V237.185C885.443 242.378 881.221 246.585 876.009 246.585H870.561C865.349 246.585 861.126 242.378 861.126 237.185V226.401C861.374 226.411 861.626 226.421 861.873 226.431H861.878Z" fill="#A55151"/>
<path d="M725.052 227.387C732.902 227.658 740.762 227.507 748.617 227.548V238.14C748.617 243.333 744.394 247.541 739.183 247.541H733.734C728.523 247.541 724.3 243.333 724.3 238.14V227.357C724.547 227.367 724.8 227.377 725.047 227.387H725.052Z" fill="#A55151"/>
</g>
<g clip-path="url(#clip2_128_8)">
<path d="M371.506 42.7917C362.541 30.1985 356.81 15.3381 355.004 6.10352e-05C349.106 1.96067 344.581 6.95269 341.998 12.5882C339.415 18.2237 338.542 24.4826 338.108 30.661C337.76 35.6178 337.704 40.7757 339.692 45.3354C342.558 51.901 349.838 56.2746 357.002 55.7367C364.166 55.1988 370.709 49.7946 372.561 42.8771" fill="#A55151"/>
<path d="M565.478 88.5946C568.6 88.2176 571.728 87.8607 574.876 87.7098C578.474 87.5389 581.99 87.745 585.557 88.2528C592.484 89.2331 598.866 92.5712 603.734 97.5682C608.214 102.168 611.645 107.849 614.157 113.726C615.539 116.968 616.765 120.246 617.643 123.659C618.521 127.073 619.081 130.582 619.454 134.091C620.226 141.385 619.646 148.856 617.931 155.984C617.567 157.488 616.357 158.971 615.035 159.74C613.713 160.509 611.69 160.861 610.176 160.373C606.837 159.297 604.945 156.07 605.772 152.641C606.236 150.716 606.6 148.77 606.872 146.805L606.645 148.474C607.361 143.14 607.346 137.736 606.645 132.402L606.872 134.071C606.146 128.742 604.728 123.524 602.639 118.562L603.275 120.065C601.474 115.832 599.214 111.76 596.388 108.12L597.372 109.392C595.733 107.296 593.891 105.37 591.782 103.737L593.059 104.717C591.404 103.455 589.618 102.409 587.696 101.6L589.204 102.233C586.863 101.268 584.401 100.665 581.894 100.323L583.569 100.549C577.55 99.7701 571.471 100.439 565.483 101.163C563.989 101.344 562.037 100.333 561.023 99.3227C559.928 98.2318 559.106 96.4421 559.176 94.8786C559.247 93.3152 559.787 91.5657 561.023 90.4346L562.299 89.4543C563.283 88.8862 564.342 88.5997 565.483 88.5946H565.478Z" fill="#B16666"/>
<path d="M364.19 183.026H369.639C374.849 183.026 379.073 187.235 379.073 192.427V236.153C379.073 241.345 374.849 245.554 369.639 245.554H364.19C358.98 245.554 354.756 241.345 354.756 236.153V192.427C354.756 187.235 358.98 183.026 364.19 183.026Z" fill="#683737"/>
<path d="M501.021 182.071H506.47C511.68 182.071 515.904 186.279 515.904 191.471V235.198C515.904 240.39 511.68 244.599 506.47 244.599H501.021C495.811 244.599 491.587 240.39 491.587 235.198V191.471C491.587 186.279 495.811 182.071 501.021 182.071Z" fill="#683737"/>
<path d="M351.067 44.3201H555.169C564.628 44.3201 572.297 51.9614 572.297 61.3874V185.595C572.297 195.021 564.628 202.662 555.169 202.662H351.067C341.608 202.662 333.939 195.021 333.939 185.595V61.3874C333.939 51.9614 341.608 44.3201 351.067 44.3201Z" fill="#FFDBDB"/>
<mask id="mask2_128_8" style="mask-type:luminance" maskUnits="userSpaceOnUse" x="333" y="44" width="240" height="159">
<path d="M351.067 44.3199H555.169C564.628 44.3199 572.297 51.9613 572.297 61.3873V185.595C572.297 195.021 564.628 202.662 555.169 202.662H351.067C341.608 202.662 333.939 195.021 333.939 185.595V61.3873C333.939 51.9613 341.608 44.3199 351.067 44.3199Z" fill="white"/>
</mask>
<g mask="url(#mask2_128_8)">
<path d="M469.878 33.8328C466.412 35.899 429.21 58.0589 435.451 86.6135C439.108 103.364 456.796 118.079 473.853 118.28C499.866 118.587 511.096 84.9897 530.131 89.2528C545.387 92.6662 544.121 115.575 560.588 119.602C575.213 123.181 597.79 110.382 602.3 89.2528C606.573 69.2445 593.138 48.8692 579.128 45.7071C565.027 42.5249 558.186 58.5566 543.374 55.6057C526.852 52.3128 527.386 30.7813 508.947 24.5978C493.872 19.5405 478.298 28.8207 469.883 33.8328H469.878Z" fill="#632A2A"/>
<path d="M398.854 63.403C412.072 76.1369 419.089 98.7594 410.705 110.634C405.246 118.365 398.642 113.906 386.261 122.443C368.806 134.473 371.056 150.826 358.857 154.179C348.403 157.05 336.442 147.87 330.711 140.897C316.408 123.478 321.115 95.5973 332.93 78.1679C342.133 64.5945 361.455 48.7889 381.07 53.0771C390.186 55.0679 395.993 60.6632 398.844 63.408L398.854 63.403Z" fill="#632A2A"/>
<path d="M540.266 133.794C541.195 145.02 532.906 159.478 519.773 160.051C508.17 160.554 497.167 150.032 497.52 140.214C497.782 133 504.103 128.103 508.059 125.042C511.232 122.583 522.276 114.032 531.483 118.622C539.176 122.458 540.18 132.773 540.266 133.794Z" fill="#632A2A"/>
<path d="M445.48 206.824C421.284 189.561 408.924 193.914 403.748 183.151C397.285 169.723 408.929 147.166 418.843 146.462C428.912 145.744 435.39 167.687 445.127 165.817C451.57 164.581 451.312 154.471 459.778 151.882C468.259 149.288 477.254 156.768 479.247 158.548C488.141 166.476 490.674 179.29 488.398 189.646C485.326 203.622 472.804 216.285 461.221 215.803C455.737 215.577 453.487 212.53 445.485 206.819L445.48 206.824Z" fill="#632A2A"/>
</g>
<path d="M572.297 174.987H333.939V190.597C333.939 197.258 339.368 202.667 346.052 202.667H560.184C566.868 202.667 572.297 197.258 572.297 190.597V174.987Z" fill="#9A5F5F"/>
<path d="M368.02 74.9559H400.399C405.799 74.9559 410.177 79.3178 410.177 84.6986V146.071C410.177 151.452 405.799 155.813 400.399 155.813H368.02C362.621 155.813 358.243 151.452 358.243 146.071V84.6986C358.243 79.3178 362.621 74.9559 368.02 74.9559Z" fill="#9A5F5F"/>
<path d="M361.85 42.7917C370.82 30.1985 376.551 15.333 378.353 6.10352e-05C384.25 1.96067 388.776 6.95269 391.359 12.5882C393.947 18.2237 394.814 24.4826 395.248 30.661C395.596 35.6178 395.652 40.7757 393.664 45.3354C390.799 51.901 383.519 56.2746 376.355 55.7367C369.191 55.1988 362.647 49.7946 360.796 42.8771" fill="#DB6F6F"/>
<path d="M617.935 154.677C622.118 160.328 625.927 166.245 629.332 172.388C630.291 174.113 629.811 176.581 627.975 177.546C626.139 178.511 623.823 178.039 622.799 176.194C619.388 170.051 615.584 164.134 611.402 158.483C610.857 157.744 610.787 156.422 611.019 155.577C611.251 154.733 611.937 153.752 612.759 153.325C613.637 152.863 614.702 152.631 615.675 152.943C616.649 153.255 617.32 153.843 617.935 154.677Z" fill="#632A2A"/>
<path d="M616.916 157.271C618.227 162.294 619.03 167.456 619.357 172.634C619.484 174.605 617.526 176.49 615.574 176.405C613.414 176.309 611.926 174.746 611.79 172.634C611.679 170.855 611.502 169.085 611.27 167.321L611.407 168.321C610.993 165.275 610.398 162.253 609.621 159.277C609.121 157.372 610.251 155.095 612.264 154.637C614.277 154.18 616.386 155.23 616.921 157.271H616.916Z" fill="#632A2A"/>
<path d="M614.746 158.277V178.667C614.746 180.638 613.006 182.528 610.962 182.437C608.919 182.347 607.179 180.778 607.179 178.667V158.277C607.179 156.306 608.919 154.416 610.962 154.506C613.006 154.597 614.746 156.165 614.746 158.277Z" fill="#632A2A"/>
<path d="M613.552 156.728C611.433 162.243 609.309 167.753 607.19 173.268C606.827 174.208 606.353 174.992 605.45 175.52C604.638 175.993 603.442 176.194 602.534 175.902C600.738 175.324 599.133 173.238 599.89 171.262C602.009 165.747 604.133 160.237 606.252 154.722C606.615 153.782 607.089 152.998 607.993 152.47C608.805 151.998 610 151.797 610.909 152.088C612.705 152.666 614.309 154.753 613.552 156.728Z" fill="#632A2A"/>
<path d="M610.792 157.578C610.408 158.041 610.03 158.508 609.651 158.976C609.465 159.212 609.278 159.448 609.091 159.684C609.001 159.805 608.905 159.921 608.814 160.041L609.132 159.634C608.431 160.514 607.77 161.434 607.109 162.349C605.772 164.209 604.495 166.119 603.285 168.065C600.883 171.926 598.744 175.953 596.872 180.095C596.509 180.904 595.429 181.603 594.612 181.829C593.704 182.076 592.498 181.965 591.696 181.447C590.894 180.929 590.178 180.155 589.956 179.195C589.719 178.149 589.9 177.265 590.339 176.289C594.249 167.617 599.38 159.579 605.444 152.244C606.024 151.54 607.245 151.138 608.118 151.138C609.046 151.138 610.156 151.55 610.792 152.244C611.427 152.938 611.947 153.908 611.902 154.909C611.856 155.909 611.463 156.764 610.792 157.573V157.578Z" fill="#632A2A"/>
<path d="M398.769 186.706H404.217C409.428 186.706 413.651 190.915 413.651 196.106V239.833C413.651 245.025 409.428 249.234 404.217 249.234H398.769C393.558 249.234 389.334 245.025 389.334 239.833V196.106C389.334 190.915 393.558 186.706 398.769 186.706Z" fill="#B16666"/>
<path d="M390.086 230.855C397.936 231.126 405.796 230.975 413.651 231.015V241.608C413.651 246.801 409.429 251.009 404.217 251.009H398.769C393.557 251.009 389.334 246.801 389.334 241.608V230.824C389.582 230.834 389.834 230.844 390.081 230.855H390.086Z" fill="#DB6F6F"/>
<path d="M534.591 185.75H540.039C545.25 185.75 549.474 189.959 549.474 195.151V238.878C549.474 244.07 545.25 248.279 540.039 248.279H534.591C529.38 248.279 525.157 244.07 525.157 238.878V195.151C525.157 189.959 529.38 185.75 534.591 185.75Z" fill="#B16666"/>
<path d="M525.908 228.125C533.758 228.396 541.619 228.245 549.474 228.286V238.878C549.474 244.071 545.251 248.279 540.039 248.279H534.591C529.379 248.279 525.157 244.071 525.157 238.878V228.094C525.404 228.105 525.656 228.115 525.903 228.125H525.908Z" fill="#DB6F6F"/>
<path d="M492.334 224.445C500.184 224.716 508.044 224.565 515.899 224.606V235.198C515.899 240.391 511.677 244.599 506.465 244.599H501.017C495.805 244.599 491.582 240.391 491.582 235.198V224.415C491.83 224.425 492.082 224.435 492.329 224.445H492.334Z" fill="#A55151"/>
<path d="M355.508 225.4C363.358 225.672 371.218 225.521 379.073 225.561V236.153C379.073 241.346 374.851 245.554 369.639 245.554H364.19C358.979 245.554 354.756 241.346 354.756 236.153V225.37C355.003 225.38 355.256 225.39 355.503 225.4H355.508Z" fill="#A55151"/>
</g>
<g clip-path="url(#clip3_128_8)">
<path d="M49.6438 42.7917C40.6788 30.1985 34.9477 15.3381 33.1415 6.10352e-05C27.2439 1.96067 22.7185 6.95269 20.1354 12.5882C17.5524 18.2237 16.6796 24.4826 16.2457 30.661C15.8976 35.6178 15.8421 40.7757 17.8299 45.3354C20.6954 51.901 27.9754 56.2746 35.1394 55.7367C42.3033 55.1988 48.8467 49.7946 50.6982 42.8771" fill="#A55151"/>
<path d="M243.616 88.5946C246.739 88.2176 249.867 87.8607 253.015 87.7098C256.612 87.5389 260.129 87.745 263.695 88.2528C270.622 89.2331 277.004 92.5712 281.873 97.5682C286.353 102.168 289.783 107.849 292.296 113.726C293.678 116.968 294.904 120.246 295.782 123.659C296.66 127.073 297.22 130.582 297.593 134.091C298.365 141.385 297.785 148.856 296.069 155.984C295.706 157.488 294.495 158.971 293.174 159.74C291.852 160.509 289.829 160.861 288.315 160.373C284.975 159.297 283.083 156.07 283.911 152.641C284.375 150.716 284.738 148.77 285.011 146.805L284.784 148.474C285.5 143.14 285.485 137.736 284.784 132.402L285.011 134.071C284.284 128.742 282.867 123.524 280.778 118.562L281.414 120.065C279.612 115.832 277.352 111.76 274.527 108.12L275.511 109.392C273.871 107.296 272.03 105.37 269.921 103.737L271.197 104.717C269.543 103.455 267.757 102.409 265.834 101.6L267.343 102.233C265.002 101.268 262.54 100.665 260.033 100.323L261.708 100.549C255.689 99.7701 249.61 100.439 243.621 101.163C242.128 101.344 240.175 100.333 239.161 99.3227C238.067 98.2318 237.244 96.4421 237.315 94.8786C237.386 93.3152 237.925 91.5657 239.161 90.4346L240.438 89.4543C241.422 88.8862 242.481 88.5997 243.621 88.5946H243.616Z" fill="#B16666"/>
<path d="M42.3281 183.026H47.7767C52.9871 183.026 57.2109 187.235 57.2109 192.427V236.153C57.2109 241.345 52.9871 245.554 47.7767 245.554H42.3281C37.1177 245.554 32.8939 241.345 32.8939 236.153V192.427C32.8939 187.235 37.1177 183.026 42.3281 183.026Z" fill="#683737"/>
<path d="M179.16 182.071H184.609C189.819 182.071 194.043 186.279 194.043 191.471V235.198C194.043 240.39 189.819 244.599 184.609 244.599H179.16C173.95 244.599 169.726 240.39 169.726 235.198V191.471C169.726 186.279 173.95 182.071 179.16 182.071Z" fill="#683737"/>
<path d="M29.2058 44.3201H233.308C242.767 44.3201 250.436 51.9614 250.436 61.3874V185.595C250.436 195.021 242.767 202.662 233.308 202.662H29.2058C19.7464 202.662 12.078 195.021 12.078 185.595V61.3874C12.078 51.9614 19.7464 44.3201 29.2058 44.3201Z" fill="#FFDBDB"/>
<mask id="mask3_128_8" style="mask-type:luminance" maskUnits="userSpaceOnUse" x="12" y="44" width="239" height="159">
<path d="M29.2068 44.3199H233.309C242.768 44.3199 250.437 51.9612 250.437 61.3873V185.594C250.437 195.021 242.768 202.662 233.309 202.662H29.2068C19.7473 202.662 12.0789 195.021 12.0789 185.594V61.3873C12.0789 51.9612 19.7473 44.3199 29.2068 44.3199Z" fill="white"/>
</mask>
<g mask="url(#mask3_128_8)">
<path d="M148.019 33.8328C144.553 35.899 107.351 58.0589 113.591 86.6135C117.249 103.364 134.937 118.079 151.994 118.28C178.006 118.587 189.237 84.9897 208.271 89.2528C223.528 92.6662 222.261 115.575 238.728 119.602C253.354 123.181 275.93 110.382 280.441 89.2528C284.714 69.2445 271.279 48.8692 257.269 45.7071C243.168 42.5249 236.327 58.5566 221.515 55.6057C204.992 52.3128 205.527 30.7813 187.087 24.5978C172.013 19.5405 156.439 28.8207 148.024 33.8328H148.019Z" fill="#632A2A"/>
<path d="M76.9945 63.403C90.2125 76.1369 97.2301 98.7594 88.8452 110.634C83.3865 118.365 76.7826 113.906 64.4021 122.443C46.9462 134.473 49.1963 150.826 36.9974 154.179C26.5441 157.05 14.5824 147.87 8.8512 140.897C-5.45147 123.478 -0.744446 95.5973 11.071 78.1679C20.2732 64.5945 39.5956 48.7889 59.2107 53.0771C68.3271 55.0679 74.1339 60.6632 76.9844 63.408L76.9945 63.403Z" fill="#632A2A"/>
<path d="M218.407 133.794C219.335 145.02 211.046 159.478 197.914 160.051C186.31 160.554 175.307 150.032 175.66 140.214C175.923 133 182.244 128.103 186.199 125.041C189.373 122.583 200.416 114.032 209.623 118.622C217.317 122.457 218.321 132.773 218.407 133.794Z" fill="#632A2A"/>
<path d="M123.62 206.824C99.424 189.561 87.0637 193.914 81.8875 183.151C75.4248 169.723 87.0687 147.166 96.9822 146.462C107.052 145.744 113.53 167.687 123.267 165.817C129.709 164.58 129.452 154.471 137.918 151.882C146.398 149.288 155.394 156.768 157.386 158.548C166.281 166.476 168.813 179.29 166.538 189.646C163.466 203.622 150.944 216.285 139.36 215.803C133.877 215.576 131.626 212.53 123.625 206.819L123.62 206.824Z" fill="#632A2A"/>
</g>
<path d="M250.436 174.987H12.078V190.597C12.078 197.258 17.5064 202.667 24.1911 202.667H238.322C245.007 202.667 250.436 197.258 250.436 190.597V174.987Z" fill="#9A5F5F"/>
<path d="M46.1582 74.9559H78.5372C83.937 74.9559 88.3145 79.3178 88.3145 84.6986V146.071C88.3145 151.452 83.937 155.813 78.5372 155.813H46.1582C40.7583 155.813 36.3809 151.452 36.3809 146.071V84.6986C36.3809 79.3178 40.7583 74.9559 46.1582 74.9559Z" fill="#9A5F5F"/>
<path d="M39.9889 42.7917C48.9589 30.1985 54.6901 15.333 56.4912 6.10352e-05C62.3888 1.96067 66.9142 6.95269 69.4973 12.5882C72.0854 18.2237 72.9531 24.4826 73.387 30.661C73.7351 35.6178 73.7906 40.7757 71.8029 45.3354C68.9373 51.901 61.6573 56.2746 54.4933 55.7367C47.3294 55.1988 40.786 49.7946 38.9345 42.8771" fill="#DB6F6F"/>
<path d="M296.073 154.677C300.255 160.328 304.064 166.245 307.47 172.388C308.428 174.113 307.949 176.581 306.113 177.546C304.276 178.511 301.961 178.039 300.937 176.194C297.526 170.051 293.722 164.134 289.54 158.483C288.995 157.744 288.924 156.422 289.156 155.577C289.388 154.733 290.075 153.752 290.897 153.325C291.775 152.863 292.839 152.631 293.813 152.943C294.787 153.255 295.458 153.843 296.073 154.677Z" fill="#632A2A"/>
<path d="M295.053 157.271C296.365 162.294 297.167 167.456 297.495 172.634C297.621 174.605 295.664 176.49 293.711 176.405C291.552 176.309 290.064 174.746 289.928 172.634C289.817 170.855 289.64 169.085 289.408 167.321L289.544 168.321C289.131 165.275 288.535 162.253 287.758 159.277C287.259 157.372 288.389 155.095 290.402 154.637C292.415 154.18 294.524 155.23 295.058 157.271H295.053Z" fill="#632A2A"/>
<path d="M292.886 158.277V178.667C292.886 180.638 291.145 182.528 289.102 182.437C287.059 182.347 285.318 180.778 285.318 178.667V158.277C285.318 156.306 287.059 154.416 289.102 154.506C291.145 154.597 292.886 156.165 292.886 158.277Z" fill="#632A2A"/>
<path d="M291.69 156.728C289.571 162.243 287.447 167.753 285.328 173.268C284.965 174.208 284.491 174.992 283.588 175.52C282.775 175.993 281.58 176.194 280.671 175.902C278.875 175.324 277.271 173.238 278.028 171.262C280.147 165.747 282.271 160.237 284.39 154.722C284.753 153.782 285.227 152.998 286.13 152.47C286.942 151.998 288.138 151.797 289.046 152.088C290.842 152.666 292.447 154.753 291.69 156.728Z" fill="#632A2A"/>
<path d="M288.93 157.578C288.547 158.041 288.168 158.508 287.79 158.976C287.603 159.212 287.417 159.448 287.23 159.684C287.139 159.805 287.043 159.921 286.953 160.041L287.27 159.634C286.569 160.514 285.908 161.434 285.247 162.349C283.91 164.209 282.634 166.119 281.423 168.065C279.022 171.926 276.883 175.953 275.011 180.095C274.648 180.904 273.568 181.603 272.751 181.829C271.843 182.076 270.637 181.965 269.835 181.447C269.033 180.929 268.316 180.155 268.094 179.195C267.857 178.149 268.039 177.265 268.478 176.289C272.388 167.617 277.518 159.579 283.583 152.244C284.163 151.54 285.384 151.138 286.256 151.138C287.185 151.138 288.295 151.55 288.93 152.244C289.566 152.938 290.086 153.908 290.04 154.909C289.995 155.909 289.601 156.764 288.93 157.573V157.578Z" fill="#632A2A"/>
<path d="M76.9072 186.706H82.3558C87.5662 186.706 91.79 190.915 91.79 196.106V239.833C91.79 245.025 87.5662 249.234 82.3558 249.234H76.9072C71.6968 249.234 67.473 245.025 67.473 239.833V196.106C67.473 190.915 71.6968 186.706 76.9072 186.706Z" fill="#B16666"/>
<path d="M68.2247 230.855C76.0748 231.126 83.9349 230.975 91.79 231.015V241.608C91.79 246.801 87.5673 251.009 82.3558 251.009H76.9072C71.6957 251.009 67.473 246.801 67.473 241.608V230.824C67.7202 230.834 67.9724 230.844 68.2196 230.855H68.2247Z" fill="#DB6F6F"/>
<path d="M212.729 185.75H218.178C223.388 185.75 227.612 189.959 227.612 195.151V238.878C227.612 244.07 223.388 248.279 218.178 248.279H212.729C207.519 248.279 203.295 244.07 203.295 238.878V195.151C203.295 189.959 207.519 185.75 212.729 185.75Z" fill="#B16666"/>
<path d="M204.047 228.125C211.897 228.396 219.757 228.245 227.612 228.286V238.878C227.612 244.071 223.39 248.279 218.178 248.279H212.729C207.518 248.279 203.295 244.071 203.295 238.878V228.094C203.542 228.105 203.795 228.115 204.042 228.125H204.047Z" fill="#DB6F6F"/>
<path d="M170.472 224.445C178.322 224.716 186.182 224.565 194.037 224.606V235.198C194.037 240.391 189.814 244.599 184.603 244.599H179.154C173.943 244.599 169.72 240.391 169.72 235.198V224.415C169.967 224.425 170.22 224.435 170.467 224.445H170.472Z" fill="#A55151"/>
<path d="M33.6456 225.4C41.4957 225.672 49.3558 225.521 57.2109 225.561V236.153C57.2109 241.346 52.9882 245.554 47.7767 245.554H42.3281C37.1166 245.554 32.8939 241.346 32.8939 236.153V225.37C33.1411 225.38 33.3934 225.39 33.6406 225.4H33.6456Z" fill="#A55151"/>
</g>
<defs>
<clipPath id="clip0_128_8">
<rect width="307.954" height="251.003" fill="white" transform="matrix(-1 0 0 1 1333.14 1.98682)"/>
</clipPath>
<clipPath id="clip1_128_8">
<rect width="307.954" height="251.003" fill="white" transform="matrix(-1 0 0 1 999.36 1.98682)"/>
</clipPath>
<clipPath id="clip2_128_8">
<rect width="307.954" height="251.003" fill="white" transform="matrix(-1 0 0 1 629.816 0)"/>
</clipPath>
<clipPath id="clip3_128_8">
<rect width="307.954" height="251.003" fill="white" transform="matrix(-1 0 0 1 307.954 0)"/>
</clipPath>
</defs>
</svg>
