<svg width="166" height="166" viewBox="0 0 166 166" fill="none" xmlns="http://www.w3.org/2000/svg">
<path d="M114.252 -38.969C118.224 -44.7632 126.776 -44.7632 130.748 -38.969L155.193 -3.31202C157.303 -0.233788 160.952 1.41314 164.656 0.959415L211.642 -4.79535C219.367 -5.74157 225.165 2.11174 221.985 9.21582L206.823 43.0912C204.969 47.2334 206.137 52.1048 209.667 54.9562L240.349 79.7358C246.698 84.8634 244.563 95.0267 236.687 97.1658L194.269 108.687C190.255 109.777 187.335 113.238 186.936 117.378L183.214 155.973C182.516 163.208 174.578 167.305 168.277 163.683L127.483 140.235C124.398 138.461 120.602 138.461 117.517 140.235L76.7233 163.683C70.4219 167.305 62.4836 163.208 61.786 155.973L58.0642 117.378C57.6649 113.238 54.7451 109.777 50.7315 108.687L8.31299 97.1658C0.437309 95.0267 -1.69795 84.8634 4.65103 79.7358L35.3328 54.9562C38.8634 52.1048 40.0312 47.2334 38.1772 43.0912L23.0149 9.21581C19.8352 2.11172 25.6326 -5.74157 33.358 -4.79535L80.3436 0.959415C84.0481 1.41314 87.6969 -0.233784 89.8072 -3.31202L114.252 -38.969Z" fill="#D6688F"/>
</svg>
