<svg width="163" height="166" viewBox="0 0 163 166" fill="none" xmlns="http://www.w3.org/2000/svg">
<path d="M32.2521 -38.969C36.2243 -44.7632 44.7757 -44.7632 48.7479 -38.969L73.1928 -3.31202C75.3031 -0.233788 78.9519 1.41314 82.6564 0.959415L129.642 -4.79535C137.367 -5.74157 143.165 2.11174 139.985 9.21582L124.823 43.0912C122.969 47.2334 124.137 52.1048 127.667 54.9562L158.349 79.7358C164.698 84.8634 162.563 95.0267 154.687 97.1658L112.269 108.687C108.255 109.777 105.335 113.238 104.936 117.378L101.214 155.973C100.516 163.208 92.5781 167.305 86.2767 163.683L45.4835 140.235C42.3979 138.461 38.6021 138.461 35.5165 140.235L-5.27672 163.683C-11.5781 167.305 -19.5164 163.208 -20.214 155.973L-23.9358 117.378C-24.3351 113.238 -27.2549 109.777 -31.2685 108.687L-73.687 97.1658C-81.5627 95.0267 -83.6979 84.8634 -77.349 79.7358L-46.6672 54.9562C-43.1366 52.1048 -41.9688 47.2334 -43.8228 43.0912L-58.9851 9.21581C-62.1648 2.11172 -56.3674 -5.74157 -48.642 -4.79535L-1.65639 0.959415C2.04806 1.41314 5.69691 -0.233784 7.80721 -3.31202L32.2521 -38.969Z" fill="#D6688F"/>
</svg>
