<svg width="411" height="186" viewBox="0 0 411 186" fill="none" xmlns="http://www.w3.org/2000/svg">
<path d="M399.186 168.063C392.673 138.514 386.035 108.577 372.829 81.9609C359.623 55.3451 338.847 31.9728 312.574 23.7941C262.13 8.07295 209.709 51.0772 157.971 41.9518C138.558 38.5376 120.844 27.9688 103.171 18.3778C85.4978 8.77132 66.7673 -0.183378 47.1044 0.0028547C27.4415 0.189088 6.60974 11.7976 -0.000213623 32.4539C13.3589 20.2867 31.6301 15.1343 48.5655 18.7503C65.5009 22.3818 80.7664 34.7353 89.1159 51.5583C103.867 81.2625 97.0478 120.977 115.124 148.291C127.134 166.418 147.59 174.86 167.364 179.5C206.147 188.61 246.962 186.655 284.896 173.882C315.204 163.671 348.185 146.754 376.809 161.87C382.695 164.974 388.15 169.397 394.51 170.965C400.869 172.532 408.787 170.08 411 163.252" fill="#E39797"/>
<path d="M292.745 167.815C295.027 155.709 291.242 143.325 284.604 133.718C277.34 123.212 267.015 116.135 255.534 112.907C241.814 109.058 227.327 110.3 213.62 113.605C206.509 115.312 199.579 117.718 192.622 120.077C185.664 122.436 177.996 124.717 170.454 124.453C162.912 124.19 156.455 121.474 151.028 116.119C146.046 111.2 142.692 103.828 143.583 96.2856C143.833 94.206 145.002 92.4058 147.062 92.4058C148.745 92.4058 150.791 94.1905 150.54 96.2856C149.831 102.292 152.405 107.429 156.51 111.184C161.214 115.483 167.072 116.942 173.042 116.694C180.431 116.399 187.57 113.714 194.57 111.293C201.569 108.872 208.611 106.715 215.805 105.225C229.999 102.261 244.833 101.547 258.874 105.877C270.772 109.539 281.599 117.144 289.322 127.961C297.782 139.833 302.305 154.778 299.452 169.894C298.534 174.783 291.827 172.719 292.745 167.83V167.815Z" fill="#915555"/>
<path d="M358.635 159.806C359.498 140.251 354.029 120.868 343.537 105.193C333.044 89.5185 317.598 79.0895 300.76 74.8372C292.327 72.711 283.518 72.1989 274.946 73.4714C265.79 74.8216 256.939 78.1893 248.298 81.6967C230.987 88.727 213.105 97.1386 194.263 94.5003C175.421 91.8619 157.442 79.4154 147.339 60.9783C145.001 56.7105 151.013 52.7996 153.351 57.0674C162.048 72.9438 177.175 83.8384 193.637 86.6319C211.95 89.7358 229.651 81.0294 246.447 74.2009C255.297 70.6004 264.287 67.3258 273.652 65.8825C283.017 64.4391 291.965 64.8892 300.983 66.9378C318.614 70.9573 335.118 81.5881 346.626 97.0765C359.568 114.505 366.609 137.132 365.607 159.79C365.384 164.757 358.427 164.788 358.649 159.79L358.635 159.806Z" fill="#915555"/>
</svg>
