<svg width="279" height="321" viewBox="0 0 279 321" fill="none" xmlns="http://www.w3.org/2000/svg">
<path d="M1.66473 226.774C5.87924 211.4 17.6566 199.136 30.7526 190.087C43.8486 181.038 58.5218 174.557 72.1221 166.286C116.025 139.567 146.38 95.789 175.416 53.2939C184.13 40.5376 192.843 27.7813 201.557 15.025C206.043 11.6155 210.529 8.20604 215.015 4.79658L242.525 0C253.333 0.414839 263.171 7.38933 269.054 16.4899C274.923 25.5904 277.276 36.5707 277.961 47.3954C279.939 78.7287 268.95 109.271 258.116 138.738C244.568 175.594 230.916 212.683 211.02 246.531C197.239 269.983 179.98 292.202 156.71 306.216C114.849 331.418 56.0914 323.678 22.1426 288.495C6.39639 272.186 -4.30796 248.644 1.69061 226.749L1.66473 226.774Z" fill="#E7E7E7"/>
</svg>
