<svg width="219" height="275" viewBox="0 0 219 275" fill="none" xmlns="http://www.w3.org/2000/svg">
<path d="M62.0632 22.2414C85.6768 16.3815 109.287 10.5074 132.886 4.65102C142.419 2.28915 152.114 -0.0965988 161.91 0.419416C188.269 1.80861 209.435 24.7909 215.789 50.006C222.143 75.2211 216.543 101.924 208.415 126.741C199.198 154.837 186.744 181.908 171.723 207.494C154.677 236.537 131.299 265.764 98.0919 272.905C86.2127 275.469 73.4022 274.851 62.5229 269.628C45.1109 261.276 35.307 242.92 27.9995 225.242C15.9261 196.027 7.44932 165.334 2.83374 134.075C0.843479 120.627 -0.422266 106.766 2.77225 93.5C6.18428 79.2968 14.4747 66.6692 23.7089 55.2407C34.8731 41.4286 47.9501 28.6581 64.0015 20.846" fill="#942929"/>
</svg>
